<?xml version="1.0" encoding="utf-8"?>
<!-- Generator: Adobe Illustrator 25.4.1, SVG Export Plug-In . SVG Version: 6.00 Build 0)  -->
<svg version="1.1" id="Layer_1" xmlns="http://www.w3.org/2000/svg" xmlns:xlink="http://www.w3.org/1999/xlink" x="0px" y="0px"
	 viewBox="0 0 455.5 126.9" style="enable-background:new 0 0 455.5 126.9;" xml:space="preserve">
<style type="text/css">
	.st0{fill:none;stroke:#FFFFFF;stroke-miterlimit:10;}
	.st1{fill:#FFFFFF;}
</style>
<g>
	<path class="st0" d="M117.1,0c0.3,0,0.6,0,0.9,0s0.6,0.1,0.8,0.2c1.2-0.2,2.4-0.2,3.7-0.2c1.3,0.1,2.4,0.2,3.5,0.2
		c0.4,0,1,0,1.9-0.1c0.9,0,1.7-0.1,2.6-0.1c0.9,0,1.7,0,2.5,0s1.3,0,1.6,0c0.4,0.1,0.8,0.2,1.1,0.2c0.3,0.1,0.6,0.1,0.9,0.1
		s0.6,0,0.9-0.1c0.3,0,0.6-0.1,0.8-0.1c0.1,0.1,0.2,0.2,0.3,0.2h0.3c0.4,0.1,0.8,0.1,1.1,0.1c0.3,0,0.7-0.1,1.2-0.1
		c1.1,0,2.2,0.1,3.4,0.2c1.2,0.2,2.3,0.2,3.4,0.2c0.4,0,1,0,1.9,0.1c0.9,0.1,1.8,0.1,2.7,0.2c1,0.1,1.9,0.1,2.7,0.2
		c0.9,0.1,1.5,0.1,1.9,0.1l0.2,0.2c0.2,0,0.5,0,0.8-0.1c0.4,0,0.6,0,0.8,0.1c0.2,0,0.8,0.1,1.7,0.2c0.9,0.1,1.9,0.2,2.9,0.2
		c1.1,0.1,2.5,0.2,4.3,0.4h1.8c0.3,0,0.6,0.1,0.9,0.2c0.3,0.1,0.6,0.2,0.9,0.2c0.7,0,1.4,0,2.1,0c0.7,0,1.4,0.1,2,0.2
		c0.9,0.2,1.8,0.3,2.7,0.3c0.9,0,1.8,0,2.6,0c0.5,0,0.9,0.1,1.3,0.2c0.4,0.1,0.8,0.2,1.3,0.2h0.2c0.8,0,1.7,0,2.8,0
		c1.1,0,2,0.1,2.8,0.2l0.3,0.2c0.8,0,1.6,0,2.3,0.1c0.7,0.1,1.5,0.1,2.3,0.1c1.9,0,3.8,0,5.7,0.1c1.9,0.1,3.8,0.1,5.7,0.1
		c2,0,4,0,6-0.1c2,0,3.9-0.1,6-0.1h0.6c0,0.2,0,0.5,0.2,0.8c0.1,0.3,0.2,0.6,0.2,0.8c0,0.2,0,0.4-0.1,0.6C218,6,218,6.2,218,6.4
		c-0.1,0.1-0.2,0.2-0.2,0.4s-0.1,0.3-0.2,0.4c-0.3,0.5-0.8,1-1.4,1.5c-0.7,0.5-1.3,0.9-1.9,1.1c-0.2,0.2-0.6,0.4-1.1,0.7
		c-0.5,0.3-0.9,0.4-1.2,0.5l-0.2,0.2c-0.5,0.1-1.2,0.4-2.1,0.8c-0.9,0.5-1.6,0.7-2,0.7c-0.5,0-0.9,0.1-1.1,0.3h-0.5l-0.2,0.2
		c-0.2,0-0.5,0.1-1,0.2c-0.5,0.2-0.8,0.2-1,0.1c-0.2,0.2-0.4,0.3-0.5,0.2c-0.1,0-0.3,0-0.5,0.1l-0.5,0.3c-0.3,0-0.6,0-1,0.1
		c-0.4,0.1-0.6,0.1-0.8,0.1l-0.2,0.2l-0.5,0.2h-0.2c-0.2,0.1-0.8,0.2-1.7,0.4c-0.9,0.2-1.9,0.3-2.9,0.5c-1.1,0.2-2,0.4-2.9,0.5
		c-0.9,0.1-1.3,0.2-1.4,0.2c-0.1,0.1-0.4,0.2-0.9,0.2c-0.1,0-0.2,0-0.3,0.1c-0.1,0.1-0.2,0.1-0.3,0.1h-0.3l-0.3,0.2
		c-0.5-0.1-1,0-1.6,0.2c-0.6,0.2-1.1,0.3-1.6,0.2l-0.5,0.3c-0.2,0-0.6,0-1.1,0c-0.6,0-0.9,0.1-1.1,0.2l-0.8,0.2
		c-0.2,0.2-0.4,0.3-0.6,0.2c-0.2-0.1-0.4-0.2-0.6-0.2c-1.1,0-2.3,0.2-3.7,0.5c-1.4,0.3-2.7,0.4-4,0.3c-0.2,0.1-0.6,0.2-1.1,0.2
		c-0.6,0.1-1.2,0.1-2,0.1s-1.5,0-2.2,0c-0.7,0-1.2,0-1.5,0c-0.5,0-1.3,0.1-2.3,0.2c-1,0.1-1.7,0.1-2-0.2h-1.4l-0.2-0.2
		c-0.1,0-0.4,0-0.8-0.1c-0.4,0-0.8-0.1-1.3-0.2c-0.5,0-1.1-0.1-1.9-0.2c-0.3,0-0.8-0.2-1.4-0.5c-0.9,0.2-1.7,0.1-2.4-0.5
		c-0.4,0-0.9,0-1.5-0.1c-0.6,0-1.2-0.1-1.9-0.2c-0.7-0.1-1.3-0.2-1.8-0.4c-0.6-0.2-1-0.3-1.3-0.4c-0.6-0.2-1.3-0.2-2.1-0.2
		c-0.8,0.1-1.6,0.1-2.3,0c-0.1,0-0.2,0-0.2-0.1c-0.1,0-0.2-0.1-0.4-0.1c-0.2,0.1-0.4,0.2-0.7,0.2c-0.3,0-0.5,0.1-0.7,0.3l-0.6,0.2
		c-0.2,0.2-0.5,0.4-1,0.5c-0.5,0.2-0.9,0.3-1.3,0.5c-1.2,0.7-2.3,1.5-3.4,2.3c-1.1,0.8-2.1,1.6-3.2,2.4c0,0.2-0.4,0.6-1.1,1.1
		c-0.7,0.5-1.2,0.9-1.4,1.1c-1.8,1.7-3.6,3.5-5.4,5.3c-1.8,1.8-3.4,3.7-4.7,5.7c-0.2,0.3-0.5,0.5-0.8,0.6c-0.3,0.1-0.6,0.5-0.8,1.2
		c-0.2,0.1-0.8,0.9-1.9,2.3c-1.1,1.4-2.2,3-3.4,4.7c-1.2,1.7-2.3,3.3-3.3,4.8c-1,1.5-1.6,2.3-1.7,2.5c0,0.3-0.2,0.6-0.5,0.9
		l-0.2,0.5l-0.3,0.3c0,0.3-0.1,0.5-0.2,0.5l-0.2,0.3c-0.4,0.4-0.9,1.1-1.5,2.1c-0.6,1-1,1.8-1.2,2.3c-0.2,0.1-0.4,0.3-0.6,0.6
		c-0.2,0.3-0.3,0.6-0.3,0.8l-0.2,0.2v0.2c-0.2,0.2-0.5,0.7-1,1.4c-0.5,0.7-0.7,1.2-0.8,1.4c0,0.1-0.1,0.2-0.2,0.3
		c-0.1,0.1-0.2,0.3-0.3,0.5c-0.2,0.2-0.4,0.4-0.5,0.6v0.2l-0.2,0.3c-0.6,0.5-1,1.1-1.2,1.8c-0.2,0.7-0.6,1.3-1.2,1.8
		c-0.2,0.5-0.4,0.9-0.5,1.1c-0.1,0.3-0.4,0.5-0.8,0.8c-0.3,0.4-0.7,1-1.2,1.9c-0.5,0.9-1,1.8-1.6,2.7c-0.6,1-1.1,1.9-1.6,2.7
		c-0.5,0.9-0.9,1.4-1.2,1.7c-0.1,0.2-0.4,0.7-0.8,1.4c-0.4,0.7-0.7,1.1-0.9,1.2c-0.1,0.5-0.4,1-0.9,1.5c-0.5,0.5-0.9,1-1.1,1.5
		c-0.7,0.9-1.5,2.1-2.3,3.5c-0.9,1.5-1.7,2.4-2.5,2.9c-0.1,0.2-0.3,0.4-0.5,0.6l-4.4,5.4c-0.2,0.2-0.3,0.4-0.3,0.5s-0.1,0.3-0.2,0.5
		c-0.1,0.1-0.5,0.5-1.3,1.2c-0.8,0.7-1.6,1.5-2.4,2.3c-0.9,0.9-1.6,1.7-2.3,2.4c-0.7,0.8-1.1,1.2-1.1,1.3c-0.4,0.2-1.2,0.8-2.3,1.7
		c-1.1,0.9-1.9,1.6-2.4,2c-0.5,0.5-1.2,1.1-2.2,1.7c-1,0.7-2,1.3-3.1,2c-1.1,0.7-2.2,1.4-3.2,2c-1.1,0.6-1.9,1-2.5,1.2h-0.2
		c-0.2,0.1-0.4,0.2-0.5,0.3c-0.1,0.1-0.3,0.2-0.5,0.2l-2.1,1.1c-0.2,0.1-0.6,0.2-1.1,0.2c-0.5,0-0.9,0.1-1.1,0.2
		c-0.1,0.2-0.3,0.4-0.7,0.5c-0.4,0.1-0.6,0.2-0.8,0.3c-0.4,0-0.8,0.1-1.2,0.3c-0.1,0.1-0.2,0.2-0.4,0.2c-0.2,0-0.3,0.1-0.4,0.2
		c-0.2-0.1-0.5-0.1-0.8,0c-0.3,0.1-0.6,0.2-0.8,0.2c-0.2,0.1-0.5,0.2-0.8,0.2c-0.3,0-0.6,0.1-0.8,0.2c-0.3-0.1-0.9-0.1-1.7,0.1
		c-0.8,0.2-1.3,0.3-1.5,0.5c-0.8-0.1-1.5-0.1-2.2,0.1c-0.7,0.2-1.4,0.2-2.2,0.2h-0.2c-0.6,0.1-1.2,0.2-1.8,0.2s-1.2,0-1.8,0
		c-0.8,0-1.6,0-2.4-0.1c-0.8-0.1-1.6-0.1-2.4-0.1c-0.4,0-0.8-0.1-1.1-0.2s-0.7-0.2-1.2-0.1c-0.2-0.2-0.4-0.3-0.7-0.3
		c-0.3,0-0.5-0.1-0.7-0.2c-1.1-0.2-2.2-0.5-3.2-0.8c-1-0.3-2-0.7-3-1.1c-1.2-0.4-2.5-1.1-4-2c-1.5-1-2.9-2.1-4.2-3.3
		c-1.4-1.3-2.5-2.6-3.5-4c-1-1.4-1.7-2.8-2.1-4.1c0-0.1-0.1-0.5-0.4-1.3c-0.2-0.8-0.4-1.2-0.5-1.3c-0.2-0.8-0.3-1.5-0.4-2
		c0-0.5-0.1-1-0.2-1.4c0-0.5-0.1-0.8-0.1-1c-0.1-0.8-0.2-1.5-0.2-2.1C0.1,94.9,0,94.4,0,94c0-0.5,0-0.7,0-0.8l0.2-1.1
		c0.2-0.5,0.3-0.9,0.2-1.2c0-0.3-0.1-0.7-0.1-1.2l0.3-0.3c0-0.6,0.2-1.3,0.5-2.1v-0.5l0.3-0.6V86C1.7,85.5,2,85,2.3,84.4
		c0.3-0.6,0.6-1.2,0.8-1.7c0-0.2,0.2-0.5,0.5-0.8c0.4-0.4,0.9-1,1.4-1.8c0.4-0.5,0.9-1,1.5-1.4s1.1-1,1.5-1.6c1-0.4,1.7-0.8,2.1-1.2
		c0.2-0.2,0.6-0.4,1.3-0.7c0.7-0.2,1-0.5,1.1-0.7c0.3-0.2,0.6-0.3,0.9-0.3s0.7,0,1.1-0.2c0.2-0.4,0.9-0.7,2.1-0.8
		c1.2-0.2,2-0.3,2.3-0.5h0.8c0.2-0.2,1-0.3,2.3-0.3c1.3,0,2.2,0,2.7,0c1.4,0,2.8,0,4.2,0.1c1.4,0.1,2.8,0.2,4.2,0.5
		c0.6,0.2,1.1,0.3,1.4,0.3c1.2,0.7,2.5,1.3,3.8,1.7c1.3,0.4,2.2,1.5,2.7,3.2c0.1,0.5,0.2,0.9,0.3,1.1c0.1,0.2,0.2,0.6,0.2,1.1
		c0,0.2-0.1,0.4-0.2,0.7c-0.1,0.3-0.2,0.5-0.3,0.7V82v0.2v0.3c-0.2,0.2-0.3,0.4-0.4,0.7c-0.1,0.3-0.2,0.5-0.4,0.7
		c-0.2,0-0.3,0.1-0.3,0.3c-0.2,0.3-0.3,0.6-0.4,1c-0.1,0.4-0.2,0.7-0.4,1v1.1c0,0.2,0,0.5,0,0.8c0,0.4,0.1,0.6,0.3,0.8v0.2
		c0.2,0.3,0.5,0.8,0.9,1.4c0.4,0.7,1,1,1.7,1h0.3c0.4,0.2,1,0.4,1.7,0.5c0.8,0.1,1.3,0.2,1.7,0.2c0.5,0,1.1,0,1.7,0
		c0.6,0,1.2,0,1.8-0.2c0.2-0.1,0.4-0.2,0.7-0.3c0.2-0.1,0.5-0.2,0.7-0.2H51c0.2,0,0.5,0,0.8-0.2c0.3-0.1,0.5-0.2,0.6-0.2
		c0.2-0.1,0.4-0.2,0.5-0.2c0.1,0,0.2-0.1,0.5-0.3c0.5-0.2,1.2-0.4,2.2-0.7c1-0.2,1.6-0.6,1.9-1.1h0.5c0.2-0.2,0.7-0.5,1.4-0.8
		c0.8-0.3,1.3-0.7,1.7-1.2c0.2-0.1,0.6-0.4,1.2-0.8c0.6-0.4,1.2-0.9,1.8-1.4c0.6-0.5,1.2-1,1.7-1.4c0.6-0.5,0.9-0.8,1.1-1
		c0.1-0.1,0.4-0.4,1-0.9c0.6-0.5,1.2-1.1,1.8-1.7c0.7-0.6,1.3-1.2,1.9-1.8s1.1-1,1.4-1.2c0.1-0.1,0.2-0.2,0.2-0.3
		c0-0.1,0-0.2,0.2-0.5c0.3-0.3,0.6-0.6,0.9-1c0.3-0.4,0.7-0.6,1.1-0.8l0.2-0.5l1.5-1.8c0.4-0.1,1.4-1.1,2.9-3.1
		c1.5-2,3.1-4.1,4.9-6.5c1.8-2.4,3.4-4.6,4.9-6.6c1.5-2.1,2.4-3.3,2.7-3.8c1.2-1.7,2.2-3.1,2.9-4.1c0.8-1.1,1.4-2,2-2.9
		c0.6-0.9,1-1.3,1.1-1.3c0.2-0.5,0.9-1.4,2-2.8c1.1-1.4,2.3-2.8,3.7-4.2c1.4-1.5,2.7-2.8,3.9-4.1c1.3-1.3,2.1-2.1,2.6-2.5
		c0.2-0.3,0.8-0.9,1.7-1.7c0.9-0.9,1.9-1.8,2.9-2.8c1.1-1,2.1-1.9,3.1-2.8c1-0.9,1.8-1.5,2.3-1.9c0.4-0.3,0.8-0.6,1.3-0.8
		c0.5-0.2,0.8-0.6,1.1-1.1h0.2l0.5-0.3c0.1-0.2,0.2-0.4,0.4-0.5s0.3-0.3,0.5-0.5l0.6-0.3c0.5-0.5,1-1.1,1.6-1.7
		c0.6-0.6,1.1-1.2,1.7-1.8c0-0.3,0-0.5,0.2-0.6c-0.1-0.1-0.5-0.2-1.1-0.4c-0.7-0.2-1.1-0.2-1.3-0.2c-0.1-0.1-0.4-0.2-0.9-0.2
		c-0.5,0-1.1-0.1-1.7-0.1s-1.2,0-1.7,0c-0.6,0-1,0-1.3,0c-0.5,0-1.2,0.1-2,0.2c-0.9,0.1-1.5,0.1-1.9,0c-0.3,0-0.6,0-0.9-0.1
		c-0.3,0-0.6-0.1-0.9-0.1c-0.3,0.2-0.7,0.3-1.1,0.2c-0.4,0-0.9-0.1-1.4-0.1c-1.1,0-2.2,0.1-3.3,0.3c-1.1,0.2-2.2,0.3-3.3,0.3
		c-0.2,0-0.4,0-0.5,0.1c-0.1,0.1-0.3,0.1-0.5,0.1h-0.3c-0.7,0-1.7,0.1-2.9,0.2c-1.3,0.2-2.3,0.3-3.1,0.4c-0.4,0.2-0.8,0.3-1.3,0.4
		c-0.5,0.1-0.9,0.1-1.4,0.1l-0.2,0.2l-0.6,0.2c-0.2,0.1-0.6,0.2-1.2,0.2c-0.6,0.1-1,0.1-1.1,0.1c-0.4,0.2-0.7,0.3-0.9,0.3
		c-0.3,0.2-1.1,0.4-2.3,0.5c-1.2,0.1-2.1,0.3-2.6,0.6h-0.6c-0.1,0.2-0.3,0.3-0.6,0.2c-0.3,0-0.6,0-0.8,0.2c-0.2,0-0.5,0.1-1,0.2
		s-0.8,0.3-1,0.5c-0.2-0.1-0.5-0.1-1,0.1s-0.8,0.3-1,0.5h-0.8c-0.2,0.2-0.5,0.3-0.8,0.3c-0.3,0-0.6,0.1-0.8,0.3h-0.3
		c-0.7,0.3-1.5,0.6-2.3,0.8c0,0.2-0.3,0.4-0.8,0.6c-0.6,0.2-1,0.3-1.2,0.3c-0.4,0.2-0.8,0.4-1.3,0.7c-0.5,0.3-0.9,0.4-1.4,0.5
		c-0.2,0.2-0.5,0.4-0.9,0.6c-0.4,0.2-0.8,0.4-1.1,0.6c-0.9,0.3-1.9,1-2.9,2c-1.1,1-2,1.9-2.8,2.6c-0.6,0.7-1.1,1.4-1.5,2.1
		c-0.4,0.7-0.9,1.5-1.4,2.3v0.3c-0.3,0.4-0.5,1-0.5,1.7c-0.1,0.7-0.1,1.3-0.1,1.8v1.7c0.4,0.4,0.5,0.8,0.3,1.1
		c0.2,0.6,0.8,1.3,1.9,2c1.1,0.8,1.8,1,2.3,0.8l0.3,0.2c0.5,0.1,1,0.2,1.6,0.2c0.6,0,1,0,1.4,0l0.2-0.2c0.5,0.1,1.4,0,2.6-0.5
		c1.3-0.4,2-0.6,2.2-0.6c0.1-0.1,0.4-0.2,1-0.4c0.6-0.2,1.2-0.3,1.8-0.5c0.7-0.2,1.3-0.3,1.8-0.5c0.6-0.2,0.8-0.3,0.8-0.4
		c0.2-0.1,0.6-0.2,1.1-0.3c0.6-0.1,0.9-0.2,1.1-0.3c0.4,0,0.8,0,1.1-0.1c0.4,0,0.8-0.1,1.3-0.1c0.2,0,0.6,0,1.2,0
		c0.6,0,1,0.1,1.1,0.2c0.1,0.1,0.2,0.4,0.5,0.8v1.5c0,0.4-0.2,1.2-0.5,2.3c-0.3,1.1-0.6,1.8-0.9,2l-0.2,0.5c-0.1,0-0.4,0.4-0.9,1.3
		c-0.5,0.9-0.9,1.4-1.1,1.6c-0.5,0.5-1.1,1.1-1.9,1.8c-0.8,0.7-1.6,1.4-2.5,2.2c-0.9,0.8-1.8,1.5-2.7,2.1c-0.9,0.7-1.7,1.1-2.3,1.3
		c-0.2,0.2-0.4,0.4-0.5,0.6c-0.2,0-0.4,0-0.5,0.1c-0.2,0.1-0.3,0.1-0.4,0.1c-0.2,0.1-0.9,0.5-2,1.1c-1.1,0.6-1.7,1-1.8,1.2
		c-0.7,0.1-1.4,0.4-2.2,0.8c-0.8,0.5-1.5,0.8-2.2,1c-0.2,0.2-0.4,0.3-0.6,0.3c-0.2,0-0.4,0.1-0.6,0.3h-0.6c-0.7,0.2-1.3,0.4-1.7,0.6
		c-0.4,0.2-0.9,0.4-1.5,0.5c-0.9,0.3-1.6,0.5-2.1,0.7c-0.5,0.2-1,0.3-1.4,0.4c-0.5,0.1-0.7,0.2-0.8,0.2c-0.2,0.1-0.4,0.1-0.5,0
		c-0.2-0.1-0.3-0.1-0.5,0c-0.2,0.1-0.5,0.2-0.9,0.2h-0.2H51h-2.9c-0.3-0.2-1-0.5-2-0.8c-1-0.4-1.7-0.6-2.1-0.7c-0.1,0-0.2,0-0.3-0.2
		c-0.1-0.1-0.3-0.2-0.5-0.3c-1.7-1.1-3.1-2.6-4.3-4.5c-1.2-1.9-1.7-3.9-1.7-5.9c0-0.4,0-1,0-1.7c0-0.8,0-1.5,0.2-2.3
		c0.1-0.8,0.2-1.5,0.3-2.1c0.1-0.7,0.3-1.1,0.6-1.4c0-0.2,0-0.4,0.1-0.7c0-0.2,0.1-0.5,0.1-0.7v-0.2c0-0.1,0-0.2,0.1-0.2
		c0,0,0.1,0,0.1-0.2l0.2-0.2c0.1-0.5,0.2-1,0.5-1.4c0.2-0.4,0.4-0.9,0.6-1.4c0.4-0.5,0.8-1.2,1.2-2.2c0.4-1,0.9-1.7,1.4-2.2
		c0.7-0.8,1.4-1.7,2.1-2.6c0.7-0.9,1.4-1.8,2.1-2.6c0.2-0.3,0.7-0.8,1.4-1.4c0.7-0.6,1.5-1.3,2.3-2c0.8-0.7,1.6-1.3,2.3-1.9
		c0.7-0.6,1.2-0.8,1.5-0.8c0.1-0.2,0.4-0.5,0.8-0.8c0.5-0.3,0.9-0.6,1.4-1c0.5-0.4,1-0.7,1.4-1c0.5-0.3,0.8-0.6,1-0.9h0.2
		c1.1-0.6,2.3-1.2,3.5-1.9c1.3-0.7,2.4-1.3,3.5-2c0.4-0.1,1.2-0.5,2.3-1.1c1.1-0.7,1.9-1.1,2.4-1.3c0.3,0,0.6,0,0.8-0.2
		c0.2-0.2,0.7-0.5,1.4-0.8c0.8-0.4,1.2-0.6,1.4-0.8H75l0.5-0.3c0.2,0,0.6-0.1,1.2-0.4c0.6-0.2,1-0.5,1.2-0.7c0.1,0,0.2,0,0.2-0.1
		c0,0,0.1-0.1,0.2-0.1l0.6-0.2C79,9,79.1,8.9,79.1,8.9c0,0,0.1,0,0.2-0.2c0.2,0,0.6-0.1,1.1-0.2c0.5-0.2,0.9-0.3,1.1-0.5h0.2
		c0.3-0.2,0.6-0.3,0.9-0.3s0.6-0.1,0.8-0.3h0.5c0.2-0.1,0.5-0.2,0.8-0.4c0.4-0.2,0.5-0.3,0.5-0.4c0.2-0.1,0.4-0.2,0.6-0.2
		c0.1-0.1,0.2-0.2,0.5-0.2c0.2,0,0.4,0,0.5,0c0.2-0.1,0.4-0.2,0.6-0.5c0.2,0,0.5,0,1-0.1c0.5,0,0.8-0.2,1-0.4c0.2,0,0.3,0,0.4-0.1
		c0,0,0.2-0.1,0.4-0.1c0.2-0.2,0.5-0.4,1-0.5c0.5-0.1,0.8-0.2,1-0.2c0.2-0.1,0.4-0.2,0.5-0.2c0.2,0,0.3-0.1,0.4-0.2l0.2-0.2
		c0.8-0.2,1.5-0.3,2.1-0.3c0.1-0.1,0.4-0.2,1-0.4c0.6-0.2,0.9-0.2,1.1-0.2l0.2-0.2c0.1,0,0.4-0.1,1-0.2c0.6-0.2,1.2-0.3,1.9-0.5
		c0.7-0.2,1.6-0.4,2.7-0.7h0.3l0.3-0.2c0.8-0.2,1.7-0.4,2.6-0.6c0.9-0.2,1.8-0.2,2.7-0.2c1-0.5,2.4-0.8,4.1-0.8
		C114.5,0,116,0,117.1,0z"/>
	<path class="st0" d="M328.2,1.2c0.3,0,0.6,0,0.9,0c0.3,0,0.6,0.1,0.8,0.2c1.2-0.2,2.4-0.2,3.7-0.2c1.3,0.1,2.4,0.2,3.5,0.2
		c0.4,0,1,0,1.9-0.1c0.9,0,1.7-0.1,2.6-0.1c0.9,0,1.7,0,2.5,0s1.3,0,1.6,0c0.4,0.1,0.8,0.2,1.1,0.2c0.3,0.1,0.6,0.1,0.9,0.1
		c0.3,0,0.6,0,0.9-0.1c0.3,0,0.6-0.1,0.8-0.1c0.1,0.1,0.2,0.2,0.3,0.2h0.3c0.4,0.1,0.8,0.1,1.1,0.1c0.3,0,0.7-0.1,1.2-0.1
		c1.1,0,2.2,0.1,3.4,0.2c1.2,0.2,2.3,0.2,3.4,0.2c0.4,0,1,0,1.9,0.1c0.9,0.1,1.8,0.1,2.7,0.2c1,0.1,1.9,0.1,2.7,0.2
		c0.9,0.1,1.5,0.1,1.9,0.1l0.2,0.2c0.2,0,0.5,0,0.8-0.1c0.4,0,0.6,0,0.8,0.1c0.2,0,0.8,0.1,1.7,0.2c0.9,0.1,1.9,0.2,2.9,0.2
		c1.1,0.1,2.5,0.2,4.3,0.4h1.8c0.3,0,0.6,0.1,0.9,0.2c0.3,0.1,0.6,0.2,0.9,0.2c0.7,0,1.4,0,2.1,0s1.4,0.1,2,0.2
		c0.9,0.2,1.8,0.3,2.7,0.3c0.9,0,1.8,0,2.6,0c0.5,0,0.9,0.1,1.3,0.2c0.4,0.1,0.8,0.2,1.3,0.2h0.2c0.8,0,1.7,0,2.8,0
		c1.1,0,2,0.1,2.8,0.2l0.3,0.2c0.8,0,1.6,0,2.3,0.1c0.7,0.1,1.5,0.1,2.3,0.1c1.9,0,3.8,0,5.7,0.1c1.9,0.1,3.8,0.1,5.7,0.1
		c2,0,4,0,6-0.1c2,0,3.9-0.1,6-0.1h0.6c0,0.2,0,0.5,0.2,0.8c0.1,0.3,0.2,0.6,0.2,0.8c0,0.2,0,0.4-0.1,0.6c-0.1,0.2-0.1,0.4-0.1,0.6
		c-0.1,0.1-0.2,0.2-0.2,0.4c0,0.2-0.1,0.3-0.2,0.4c-0.3,0.5-0.8,1-1.4,1.5c-0.7,0.5-1.3,0.9-1.9,1.1c-0.2,0.2-0.6,0.4-1.1,0.7
		c-0.5,0.3-0.9,0.4-1.2,0.5l-0.2,0.2c-0.5,0.1-1.2,0.4-2.1,0.8c-0.9,0.5-1.6,0.7-2,0.7c-0.5,0-0.9,0.1-1.1,0.3h-0.5l-0.2,0.2
		c-0.2,0-0.5,0.1-1,0.2s-0.8,0.2-1,0.1c-0.2,0.2-0.4,0.3-0.5,0.2c-0.1,0-0.3,0-0.5,0.1L414,15c-0.3,0-0.6,0-1,0.1
		c-0.4,0.1-0.6,0.1-0.8,0.1l-0.2,0.2l-0.5,0.2h-0.2c-0.2,0.1-0.8,0.2-1.7,0.4c-0.9,0.2-1.9,0.3-2.9,0.5c-1.1,0.2-2,0.4-2.9,0.5
		c-0.9,0.1-1.3,0.2-1.4,0.2c-0.1,0.1-0.4,0.2-0.9,0.2c-0.1,0-0.2,0-0.3,0.1c-0.1,0.1-0.2,0.1-0.3,0.1h-0.3l-0.3,0.2
		c-0.5-0.1-1,0-1.6,0.2c-0.6,0.2-1.1,0.3-1.6,0.2l-0.5,0.3c-0.2,0-0.6,0-1.1,0c-0.6,0-0.9,0.1-1.1,0.2l-0.8,0.2
		c-0.2,0.2-0.4,0.3-0.6,0.2c-0.2-0.1-0.4-0.2-0.6-0.2c-1.1,0-2.3,0.2-3.7,0.5c-1.4,0.3-2.7,0.4-4,0.3c-0.2,0.1-0.6,0.2-1.1,0.2
		c-0.6,0.1-1.2,0.1-2,0.1c-0.8,0-1.5,0-2.2,0c-0.7,0-1.2,0-1.5,0c-0.5,0-1.3,0.1-2.3,0.2c-1,0.1-1.7,0.1-2-0.2h-1.4l-0.2-0.2
		c-0.1,0-0.4,0-0.8-0.1c-0.4,0-0.8-0.1-1.3-0.2c-0.5,0-1.1-0.1-1.9-0.2c-0.3,0-0.8-0.2-1.4-0.5c-0.9,0.2-1.7,0.1-2.4-0.5
		c-0.4,0-0.9,0-1.5-0.1c-0.6,0-1.2-0.1-1.9-0.2c-0.7-0.1-1.3-0.2-1.8-0.4c-0.6-0.2-1-0.3-1.3-0.4c-0.6-0.2-1.3-0.2-2.1-0.2
		c-0.8,0.1-1.6,0.1-2.3,0c-0.1,0-0.2,0-0.2-0.1c-0.1,0-0.2-0.1-0.4-0.1c-0.2,0.1-0.4,0.2-0.7,0.2c-0.3,0-0.5,0.1-0.7,0.3l-0.6,0.2
		c-0.2,0.2-0.5,0.4-1,0.5c-0.5,0.2-0.9,0.3-1.3,0.5c-1.2,0.7-2.3,1.5-3.4,2.3c-1.1,0.8-2.1,1.6-3.2,2.4c0,0.2-0.4,0.6-1.1,1.1
		c-0.7,0.5-1.2,0.9-1.4,1.1c-1.8,1.7-3.6,3.5-5.4,5.3c-1.8,1.8-3.4,3.7-4.7,5.7c-0.2,0.3-0.5,0.5-0.8,0.6c-0.3,0.1-0.6,0.5-0.8,1.2
		c-0.2,0.1-0.8,0.9-1.9,2.3c-1.1,1.4-2.2,3-3.4,4.7c-1.2,1.7-2.3,3.3-3.3,4.8c-1,1.5-1.6,2.3-1.7,2.5c0,0.3-0.2,0.6-0.5,0.9
		l-0.2,0.5l-0.3,0.3c0,0.3-0.1,0.5-0.2,0.5l-0.2,0.3c-0.4,0.4-0.9,1.1-1.5,2.1c-0.6,1-1,1.8-1.2,2.3c-0.2,0.1-0.4,0.3-0.6,0.6
		c-0.2,0.3-0.3,0.6-0.3,0.8l-0.2,0.2v0.2c-0.2,0.2-0.5,0.7-1,1.4c-0.5,0.7-0.7,1.2-0.8,1.4c0,0.1-0.1,0.2-0.2,0.3
		c-0.1,0.1-0.2,0.3-0.3,0.5c-0.2,0.2-0.4,0.4-0.5,0.6v0.2l-0.2,0.3c-0.6,0.5-1,1.1-1.2,1.8c-0.2,0.7-0.6,1.3-1.2,1.8
		c-0.2,0.5-0.4,0.9-0.5,1.1c-0.1,0.3-0.4,0.5-0.8,0.8c-0.3,0.4-0.7,1-1.2,1.9c-0.5,0.9-1,1.8-1.6,2.7c-0.6,1-1.1,1.9-1.6,2.7
		c-0.5,0.9-0.9,1.4-1.2,1.7c-0.1,0.2-0.4,0.7-0.8,1.4c-0.4,0.7-0.7,1.1-0.9,1.2c-0.1,0.5-0.4,1-0.9,1.5c-0.5,0.5-0.9,1-1.1,1.5
		c-0.7,0.9-1.5,2.1-2.3,3.5c-0.9,1.5-1.7,2.4-2.5,2.9c-0.1,0.2-0.3,0.4-0.5,0.6l-4.4,5.4c-0.2,0.2-0.3,0.4-0.3,0.5s-0.1,0.3-0.2,0.5
		c-0.1,0.1-0.5,0.5-1.3,1.2c-0.8,0.7-1.6,1.5-2.4,2.3c-0.9,0.9-1.6,1.7-2.3,2.4c-0.7,0.8-1.1,1.2-1.1,1.3c-0.4,0.2-1.2,0.8-2.3,1.7
		c-1.1,0.9-1.9,1.6-2.4,2c-0.5,0.5-1.2,1.1-2.2,1.7c-1,0.7-2,1.3-3.1,2c-1.1,0.7-2.2,1.4-3.2,2c-1.1,0.6-1.9,1-2.5,1.2h-0.2
		c-0.2,0.1-0.4,0.2-0.5,0.3c-0.1,0.1-0.3,0.2-0.5,0.2l-2.1,1.1c-0.2,0.1-0.6,0.2-1.1,0.2c-0.5,0-0.9,0.1-1.1,0.2
		c-0.1,0.2-0.3,0.4-0.7,0.5c-0.4,0.1-0.6,0.2-0.8,0.3c-0.4,0-0.8,0.1-1.2,0.3c-0.1,0.1-0.2,0.2-0.4,0.2c-0.2,0-0.3,0.1-0.4,0.2
		c-0.2-0.1-0.5-0.1-0.8,0c-0.3,0.1-0.6,0.2-0.8,0.2c-0.2,0.1-0.5,0.2-0.8,0.2c-0.3,0-0.6,0.1-0.8,0.2c-0.3-0.1-0.9-0.1-1.7,0.1
		c-0.8,0.2-1.3,0.3-1.5,0.5c-0.8-0.1-1.5-0.1-2.2,0.1c-0.7,0.2-1.4,0.2-2.2,0.2H245c-0.6,0.1-1.2,0.2-1.8,0.2s-1.2,0-1.8,0
		c-0.8,0-1.6,0-2.4-0.1c-0.8-0.1-1.6-0.1-2.4-0.1c-0.4,0-0.8-0.1-1.1-0.2s-0.7-0.2-1.2-0.1c-0.2-0.2-0.4-0.3-0.7-0.3
		c-0.3,0-0.5-0.1-0.7-0.2c-1.1-0.2-2.2-0.5-3.2-0.8c-1-0.3-2-0.7-3-1.1c-1.2-0.4-2.5-1.1-4-2c-1.5-1-2.9-2.1-4.2-3.3
		c-1.4-1.3-2.5-2.6-3.5-4c-1-1.4-1.7-2.8-2.1-4.1c0-0.1-0.1-0.5-0.4-1.3c-0.2-0.8-0.4-1.2-0.5-1.3c-0.2-0.8-0.3-1.5-0.4-2
		c0-0.5-0.1-1-0.2-1.4c0-0.5-0.1-0.8-0.1-1c-0.1-0.8-0.2-1.5-0.2-2.1c-0.1-0.5-0.2-1-0.2-1.4c0-0.5,0-0.7,0-0.8l0.2-1.1
		c0.2-0.5,0.3-0.9,0.2-1.2c0-0.3-0.1-0.7-0.1-1.2l0.3-0.3c0-0.6,0.2-1.3,0.5-2.1v-0.5l0.3-0.6v-0.2c0.3-0.5,0.6-1.1,0.9-1.7
		c0.3-0.6,0.6-1.2,0.8-1.7c0-0.2,0.2-0.5,0.5-0.8c0.4-0.4,0.9-1,1.4-1.8c0.4-0.5,0.9-1,1.5-1.4s1.1-1,1.5-1.6c1-0.4,1.7-0.8,2.1-1.2
		c0.2-0.2,0.6-0.4,1.3-0.7c0.7-0.2,1-0.5,1.1-0.7c0.3-0.2,0.6-0.3,0.9-0.3s0.7,0,1.1-0.2c0.2-0.4,0.9-0.7,2.1-0.8
		c1.2-0.2,2-0.3,2.3-0.5h0.8c0.2-0.2,1-0.3,2.3-0.3c1.3,0,2.2,0,2.7,0c1.4,0,2.8,0,4.2,0.1c1.4,0.1,2.8,0.2,4.2,0.5
		c0.6,0.2,1.1,0.3,1.4,0.3c1.2,0.7,2.5,1.3,3.8,1.7c1.3,0.4,2.2,1.5,2.7,3.2c0.1,0.5,0.2,0.9,0.3,1.1c0.1,0.2,0.2,0.6,0.2,1.1
		c0,0.2-0.1,0.4-0.2,0.7c-0.1,0.3-0.2,0.5-0.3,0.7v0.3v0.2v0.3c-0.2,0.2-0.3,0.4-0.4,0.7c-0.1,0.3-0.2,0.5-0.4,0.7
		c-0.2,0-0.3,0.1-0.3,0.3c-0.2,0.3-0.3,0.6-0.4,1c-0.1,0.4-0.2,0.7-0.4,1v1.1c0,0.2,0,0.5,0,0.8c0,0.4,0.1,0.6,0.3,0.8V90
		c0.2,0.3,0.5,0.8,0.9,1.4c0.4,0.7,1,1,1.7,1h0.3c0.4,0.2,1,0.4,1.7,0.5c0.8,0.1,1.3,0.2,1.7,0.2c0.5,0,1.1,0,1.7,0
		c0.6,0,1.2,0,1.8-0.2c0.2-0.1,0.4-0.2,0.7-0.3c0.2-0.1,0.5-0.2,0.7-0.2h0.6c0.2,0,0.5,0,0.8-0.2c0.3-0.1,0.5-0.2,0.6-0.2
		c0.2-0.1,0.4-0.2,0.5-0.2c0.1,0,0.2-0.1,0.5-0.3c0.5-0.2,1.2-0.4,2.2-0.7c1-0.2,1.6-0.6,1.9-1.1h0.5c0.2-0.2,0.7-0.5,1.4-0.8
		c0.8-0.3,1.3-0.7,1.7-1.2c0.2-0.1,0.6-0.4,1.2-0.8c0.6-0.4,1.2-0.9,1.8-1.4c0.6-0.5,1.2-1,1.7-1.4c0.6-0.5,0.9-0.8,1.1-1
		c0.1-0.1,0.4-0.4,1-0.9c0.6-0.5,1.2-1.1,1.8-1.7c0.7-0.6,1.3-1.2,1.9-1.8s1.1-1,1.4-1.2c0.1-0.1,0.2-0.2,0.2-0.3
		c0-0.1,0-0.2,0.2-0.5c0.3-0.3,0.6-0.6,0.9-1c0.3-0.4,0.7-0.6,1.1-0.8l0.2-0.5l1.5-1.8c0.4-0.1,1.4-1.1,2.9-3.1s3.1-4.1,4.9-6.5
		c1.8-2.4,3.4-4.6,4.9-6.6c1.5-2.1,2.4-3.3,2.7-3.8c1.2-1.7,2.2-3.1,2.9-4.1c0.8-1.1,1.4-2,2-2.9c0.6-0.9,1-1.3,1.1-1.3
		c0.2-0.5,0.9-1.4,2-2.8c1.1-1.4,2.3-2.8,3.7-4.2c1.4-1.5,2.7-2.8,3.9-4.1c1.3-1.3,2.1-2.1,2.6-2.5c0.2-0.3,0.8-0.9,1.7-1.7
		c0.9-0.9,1.9-1.8,2.9-2.8c1.1-1,2.1-1.9,3.1-2.8c1-0.9,1.8-1.5,2.3-1.9c0.4-0.3,0.8-0.6,1.3-0.8c0.5-0.2,0.8-0.6,1.1-1.1h0.2
		l0.5-0.3c0.1-0.2,0.2-0.4,0.4-0.5s0.3-0.3,0.5-0.5l0.6-0.3c0.5-0.5,1-1.1,1.6-1.7c0.6-0.6,1.1-1.2,1.7-1.8c0-0.3,0.1-0.5,0.2-0.6
		c-0.1-0.1-0.5-0.2-1.1-0.4c-0.7-0.2-1.1-0.2-1.3-0.2c-0.1-0.1-0.4-0.2-0.9-0.2c-0.5,0-1.1-0.1-1.7-0.1s-1.2,0-1.7,0
		c-0.6,0-1,0-1.3,0c-0.5,0-1.2,0.1-2,0.2c-0.9,0.1-1.5,0.1-1.9,0c-0.3,0-0.6,0-0.9-0.1c-0.3,0-0.6-0.1-0.9-0.1
		c-0.3,0.2-0.7,0.3-1.1,0.2c-0.4,0-0.9-0.1-1.4-0.1c-1.1,0-2.2,0.1-3.3,0.3c-1.1,0.2-2.2,0.3-3.3,0.3c-0.2,0-0.4,0-0.5,0.1
		c-0.1,0.1-0.3,0.1-0.5,0.1h-0.3c-0.7,0-1.7,0.1-2.9,0.2c-1.3,0.2-2.3,0.3-3.1,0.4c-0.4,0.2-0.8,0.3-1.3,0.4
		c-0.5,0.1-0.9,0.1-1.4,0.1l-0.2,0.2l-0.6,0.2c-0.2,0.1-0.6,0.2-1.2,0.2c-0.6,0.1-1,0.1-1.1,0.1c-0.4,0.2-0.7,0.3-0.9,0.3
		c-0.3,0.2-1.1,0.4-2.3,0.5c-1.2,0.1-2.1,0.3-2.6,0.6h-0.6c-0.1,0.2-0.3,0.3-0.6,0.2c-0.3,0-0.6,0-0.8,0.2c-0.2,0-0.5,0.1-1,0.2
		s-0.8,0.3-1,0.5c-0.2-0.1-0.5-0.1-1,0.1s-0.8,0.3-1,0.5h-0.8c-0.2,0.2-0.5,0.3-0.8,0.3c-0.3,0-0.6,0.1-0.8,0.3h-0.3
		c-0.7,0.3-1.5,0.6-2.3,0.8c0,0.2-0.3,0.4-0.8,0.6c-0.6,0.2-1,0.3-1.2,0.3c-0.4,0.2-0.8,0.4-1.3,0.7c-0.5,0.3-0.9,0.4-1.4,0.5
		c-0.2,0.2-0.5,0.4-0.9,0.6c-0.4,0.2-0.8,0.4-1.1,0.6c-0.9,0.3-1.9,1-2.9,2c-1.1,1-2,1.9-2.8,2.6c-0.6,0.7-1.1,1.4-1.5,2.1
		c-0.4,0.7-0.9,1.5-1.4,2.3v0.3c-0.3,0.4-0.5,1-0.5,1.7c-0.1,0.7-0.1,1.3-0.1,1.8V38c0.4,0.4,0.5,0.8,0.3,1.1c0.2,0.6,0.8,1.3,1.9,2
		c1.1,0.8,1.8,1,2.3,0.8l0.3,0.2c0.5,0.1,1,0.2,1.6,0.2s1,0,1.4,0l0.2-0.2c0.5,0.1,1.4,0,2.6-0.5c1.3-0.4,2-0.6,2.2-0.6
		c0.1-0.1,0.4-0.2,1-0.4c0.6-0.2,1.2-0.3,1.8-0.5c0.7-0.2,1.3-0.3,1.8-0.5s0.8-0.3,0.8-0.4c0.2-0.1,0.6-0.2,1.1-0.3
		c0.6-0.1,0.9-0.2,1.1-0.3c0.4,0,0.8,0,1.1-0.1c0.4,0,0.8-0.1,1.3-0.1c0.2,0,0.6,0,1.2,0s1,0.1,1.1,0.2c0.1,0.1,0.2,0.4,0.5,0.8V41
		c0,0.4-0.2,1.2-0.5,2.3c-0.3,1.1-0.6,1.8-0.9,2l-0.2,0.5c-0.1,0-0.4,0.4-0.9,1.3c-0.5,0.9-0.9,1.4-1.1,1.6
		c-0.5,0.5-1.1,1.1-1.9,1.8c-0.8,0.7-1.6,1.4-2.5,2.2c-0.9,0.8-1.8,1.5-2.7,2.1c-0.9,0.7-1.7,1.1-2.3,1.3c-0.2,0.2-0.4,0.4-0.5,0.6
		c-0.2,0-0.4,0-0.5,0.1c-0.2,0.1-0.3,0.1-0.4,0.1c-0.2,0.1-0.9,0.5-2,1.1c-1.1,0.6-1.7,1-1.8,1.2c-0.7,0.1-1.4,0.4-2.2,0.8
		c-0.8,0.5-1.5,0.8-2.2,1c-0.2,0.2-0.4,0.3-0.6,0.3c-0.2,0-0.4,0.1-0.6,0.3H273c-0.7,0.2-1.3,0.4-1.7,0.6c-0.4,0.2-0.9,0.4-1.5,0.5
		c-0.9,0.3-1.6,0.5-2.1,0.7c-0.5,0.2-1,0.3-1.4,0.4c-0.5,0.1-0.7,0.2-0.8,0.2c-0.2,0.1-0.4,0.1-0.5,0c-0.2-0.1-0.3-0.1-0.5,0
		c-0.2,0.1-0.5,0.2-0.9,0.2h-0.2h-1.2h-2.9c-0.3-0.2-1-0.5-2-0.8c-1-0.4-1.7-0.6-2.1-0.7c-0.1,0-0.2,0-0.3-0.2
		c-0.1-0.1-0.3-0.2-0.5-0.3c-1.7-1.1-3.1-2.6-4.3-4.5c-1.2-1.9-1.7-3.9-1.7-5.9c0-0.4,0-1,0-1.7c0-0.8,0-1.5,0.2-2.3
		c0.1-0.8,0.2-1.5,0.3-2.1c0.1-0.7,0.3-1.1,0.6-1.4c0-0.2,0-0.4,0.1-0.7c0-0.2,0.1-0.5,0.1-0.7v-0.2c0-0.1,0-0.2,0.1-0.2
		c0,0,0.1,0,0.1-0.2l0.2-0.2c0.1-0.5,0.2-1,0.5-1.4c0.2-0.4,0.4-0.9,0.6-1.4c0.4-0.5,0.8-1.2,1.2-2.2c0.4-1,0.9-1.7,1.4-2.2
		c0.7-0.8,1.4-1.7,2.1-2.6c0.7-0.9,1.4-1.8,2.1-2.6c0.2-0.3,0.7-0.8,1.4-1.4c0.7-0.6,1.5-1.3,2.3-2c0.8-0.7,1.6-1.3,2.3-1.9
		c0.7-0.6,1.2-0.8,1.5-0.8c0.1-0.2,0.4-0.5,0.8-0.8c0.5-0.3,0.9-0.6,1.4-1c0.5-0.4,1-0.7,1.4-1c0.5-0.3,0.8-0.6,1-0.9h0.2
		c1.1-0.6,2.3-1.2,3.5-1.9c1.3-0.7,2.4-1.3,3.5-2c0.4-0.1,1.2-0.5,2.3-1.1c1.1-0.7,1.9-1.1,2.4-1.3c0.3,0,0.6,0,0.8-0.2
		c0.2-0.2,0.7-0.5,1.4-0.8c0.8-0.4,1.2-0.6,1.4-0.8h0.8l0.5-0.3c0.2,0,0.6-0.1,1.2-0.4c0.6-0.2,1-0.5,1.2-0.7c0.1,0,0.2,0,0.2-0.1
		c0,0,0.1-0.1,0.2-0.1l0.6-0.2c0.1-0.1,0.2-0.2,0.2-0.2c0,0,0.1,0,0.2-0.2c0.2,0,0.6-0.1,1.1-0.2c0.5-0.2,0.9-0.3,1.1-0.5h0.2
		c0.3-0.2,0.6-0.3,0.9-0.3c0.3,0,0.6-0.1,0.8-0.3h0.5c0.2-0.1,0.5-0.2,0.8-0.4c0.4-0.2,0.5-0.3,0.5-0.4c0.2-0.1,0.4-0.2,0.6-0.2
		c0.1-0.1,0.2-0.2,0.5-0.2c0.2,0,0.4,0,0.5,0c0.2-0.1,0.4-0.2,0.6-0.5c0.2,0,0.5,0,1-0.1c0.5,0,0.8-0.2,1-0.4c0.2,0,0.3,0,0.4-0.1
		c0,0,0.2-0.1,0.4-0.1c0.2-0.2,0.5-0.4,1-0.5c0.5-0.1,0.8-0.2,1-0.2c0.2-0.1,0.4-0.2,0.5-0.2c0.2,0,0.3-0.1,0.4-0.2l0.2-0.2
		c0.8-0.2,1.5-0.3,2.1-0.3c0.1-0.1,0.4-0.2,1-0.4c0.6-0.2,0.9-0.2,1.1-0.2l0.2-0.2c0.1,0,0.4-0.1,1-0.2c0.6-0.2,1.2-0.3,1.9-0.5
		c0.7-0.2,1.6-0.4,2.7-0.7h0.3l0.3-0.2c0.8-0.2,1.7-0.4,2.6-0.6c0.9-0.2,1.8-0.2,2.7-0.2c1-0.5,2.4-0.8,4.1-0.8
		C325.6,1.2,327.1,1.2,328.2,1.2z"/>
	<g>
		<path class="st1" d="M118.6,98.5c-1.3,1.3-3,2.8-5.1,4.6c-2.1,1.7-4.3,3.3-6.5,4.6c-2.3,1.4-4.5,2.4-6.8,3.1
			c-2.2,0.7-4.2,0.8-5.8,0.1c-1-0.4-1.7-1.1-2.1-2c-0.4-0.9-0.5-2-0.3-3.1c0.1-1.2,0.6-2.5,1.2-3.9c0.7-1.4,1.4-2.8,2.2-4.1
			c0.8-1.3,1.6-2.6,2.5-3.7c0.8-1.2,1.6-2.1,2.1-2.8c0.8-0.9,1.4-1.6,1.8-2.3c0.4-0.7,0.9-1.2,1.5-1.6c0.6-0.4,1.4-0.6,2.4-0.7
			c1-0.1,1.8-0.1,2.3,0.2c0.5,0.4,0.6,0.7,0.3,1c-0.3,0.3-0.5,0.6-0.7,0.7c-0.6,0.7-1.4,1.5-2.6,2.6c-1.1,1.1-2.3,2.4-3.6,3.8
			c-1.2,1.4-2.4,3-3.4,4.8c-1,1.8-1.7,3.6-2,5.6c0,0.8,0.5,1.3,1.5,1.5c1,0.2,2.4,0.1,4.1-0.3c0.4-0.1,1.4-0.4,2.8-1
			c1.4-0.6,3.1-1.4,5-2.5c1.9-1.1,3.9-2.3,6.1-3.9c2.2-1.5,4.1-3.2,5.9-5.2c0.6-0.8,1-1,1.1-0.5c0.1,0.4-0.1,1.1-0.8,1.9
			c-0.4,0.5-1,1-1.5,1.5C119.8,97.3,119.2,97.9,118.6,98.5z M108.2,84.6c-0.6-1.4-0.5-2.4,0.2-3.1c0.7-0.7,1.6-1.1,2.5-1.1
			c1,0,1.8,0.2,2.4,0.7c0.7,0.5,0.6,1.3-0.2,2.4c-0.1,0.2-0.5,0.4-1,0.6c-0.5,0.2-1.1,0.3-1.6,0.4c-0.6,0.1-1.1,0.2-1.5,0.2
			C108.4,84.8,108.2,84.8,108.2,84.6z"/>
		<path class="st1" d="M150.3,111.3c-1.2-0.2-1.9-0.8-2.3-1.7c-0.3-0.9-0.4-2-0.3-3.2c0.1-1.2,0.4-2.5,0.8-3.9
			c0.4-1.4,0.8-2.6,1.2-3.8c0.4-1.2,0.6-2.2,0.7-3c0.1-0.8-0.2-1.3-0.8-1.5c-0.7-0.1-1.5,0.1-2.4,0.8c-0.9,0.7-1.8,1.5-2.8,2.5
			c-1,1-2,2.1-3,3.3c-1,1.2-2,2.2-3,3c-1,0.8-1.9,1.4-2.9,1.7c-0.9,0.3-1.7,0-2.5-0.8c-0.5-1-0.7-2.1-0.4-3.4
			c0.2-1.3,0.5-2.5,0.9-3.6c0.4-1.1,0.8-2.1,1.2-3c0.4-0.8,0.6-1.3,0.5-1.3c-0.9,0.1-1.9,0.7-3,1.7c-1.1,1-2.2,2.2-3.4,3.6
			c-1.2,1.4-2.3,2.8-3.5,4.3c-1.1,1.5-2.1,2.7-3,3.7c-0.2,0.2-0.7,0.7-1.3,1.5c-0.7,0.8-1.4,1.5-2.1,2.2s-1.5,1-2.3,1.1
			c-0.7,0.1-1.3-0.5-1.8-1.8c-0.4-1.5-0.3-3.4,0.4-5.6c0.7-2.2,1.6-4.3,2.6-6.3c1-2,2-3.8,3-5.2c1-1.5,1.6-2.3,1.7-2.4
			c0.4-0.7,1-1.1,1.8-1.3c0.8-0.2,1.5-0.1,2,0.2c0.5,0.3,0.6,0.9,0.5,1.6c-0.1,0.8-1,1.8-2.6,3c-0.7,0.8-1.4,1.8-2.1,3
			c-0.7,1.2-1.2,2.4-1.6,3.6c-0.4,1.2-0.7,2.2-0.9,3c-0.1,0.8-0.1,1.3,0.2,1.3c0.5,0,1.2-0.5,2.1-1.5c0.9-1,2-2.2,3.2-3.6
			c1.2-1.4,2.6-2.9,4-4.5c1.4-1.6,2.9-3,4.3-4.2c1.5-1.2,2.6-1.9,3.5-2.2c0.9-0.3,1.7-0.4,2.6-0.2c0.8,0.1,1.2,0.7,0.9,1.8
			c-0.1,0.4-0.1,0.7-0.2,0.9c-0.1,0.2-0.2,0.5-0.4,0.8c-0.2,0.3-0.5,0.8-0.9,1.4c-0.4,0.6-0.9,1.5-1.7,2.6c-0.4,0.6-0.7,1.4-0.9,2.4
			c-0.3,1-0.3,1.9-0.3,2.6c0.1,0.9,0.5,1.1,1,0.6c0.6-0.5,1-1,1.5-1.5c1-1,2.1-2.1,3.4-3.4c1.3-1.3,2.6-2.5,4-3.7
			c1.3-1.2,2.6-2.1,3.7-2.9c1.2-0.8,2.1-1.2,2.6-1.2c1.3,0,2.1,0.5,2.3,1.6c0.2,1.1,0.2,2.3-0.2,3.9c-0.3,1.5-0.8,3.1-1.4,4.8
			c-0.6,1.7-1.2,3.2-1.6,4.5c-0.1,0.9,0.4,1.2,1.5,1c1.1-0.2,2.3-0.7,3.9-1.5c1.5-0.8,3-1.8,4.6-2.9c1.6-1.1,2.9-2.1,3.9-2.9
			c0.1-0.1,0.1-0.1,0.2-0.2c0.1,0,0.1-0.1,0.2-0.2c0.8-0.7,1.5-1.3,2.2-1.8c0.7-0.5,1.2-1,1.5-1.5c0.3-0.5,0.6-0.8,0.9-0.8
			c0.2,0,0.3,0.2,0.3,0.6c0,0.4-0.3,0.9-0.8,1.5c-0.6,0.7-1.2,1.3-2,2c-1.2,1.2-2.6,2.7-4.3,4.3c-1.7,1.6-3.5,3.2-5.2,4.7
			c-1.8,1.5-3.4,2.7-4.8,3.7C152.2,111,151.1,111.4,150.3,111.3z"/>
		<path class="st1" d="M158.2,107.3c-0.2-1.6,0.2-3.2,1.2-4.8c1-1.6,2.4-3.2,4-4.7c1.7-1.5,3.5-2.9,5.4-4.1s3.8-2.2,5.5-2.9
			c3.2-1.3,5.9-2.2,8.3-2.7c2.4-0.5,4.3-0.7,5.7-0.7c1.8,0,2.9,0.3,3.4,0.9c0.5,0.6,0,1.8-1.5,3.6c-1.3,1.5-3.2,2.8-5.7,4
			c-2.5,1.2-5,2.1-7.5,2.8c-2.5,0.7-4.8,1.1-6.9,1.2c-2.1,0.1-3.3-0.2-3.9-0.8c2.6,0,5.1-0.3,7.3-0.8c2.2-0.5,4.1-1.2,5.8-1.9
			c1.7-0.8,3.1-1.6,4.2-2.4c1.1-0.8,2-1.5,2.6-2.1c0.6-0.6,0.8-1,0.5-1.1c-0.2-0.1-0.7-0.2-1.4-0.2c-0.6,0-1.4,0.1-2.4,0.2
			c-1,0.1-2.1,0.4-3.4,0.7c-1.2,0.3-2.5,0.7-3.9,1.2c-1.4,0.5-2.6,1-3.8,1.7c-1.5,0.9-2.9,1.9-4.1,3c-1.2,1.1-2.2,2.3-2.9,3.4
			c-0.7,1.1-1.1,2.1-1.2,3c-0.1,0.9,0.3,1.6,1.1,2.1c1.9,0.8,4.1,1.1,6.7,0.8c2.5-0.3,5.2-0.8,7.9-1.7c0.7-0.2,1.2-0.4,1.5-0.5
			c0.4-0.1,1.1-0.4,2.2-0.8c1.2-0.5,2.5-1.1,4.1-1.8c1.5-0.7,3.1-1.4,4.6-2.3c1.5-0.8,2.9-1.7,4.2-2.6c1.3-1,2.4-1.9,3.2-3
			c0.6-0.8,1-1,1.2-0.5c0.2,0.4-0.1,1.1-0.8,1.9c-0.5,0.6-1.1,1.2-1.9,1.9c-0.7,0.7-1.4,1.3-2,1.8c-0.2,0.2-0.9,0.7-1.9,1.4
			c-1.1,0.7-2.4,1.6-3.9,2.5c-1.5,0.9-3.2,1.8-5.1,2.8c-1.8,0.9-3.6,1.7-5.4,2.3c-2.3,1-4.7,1.8-6.9,2.5c-2.3,0.7-4.4,1.1-6.3,1.2
			c-1.9,0.1-3.6-0.2-5-0.8C159.7,110.1,158.8,109,158.2,107.3z"/>
	</g>
	<g>
		<path class="st1" d="M314.1,87.9c0.3,0.4,0.2,0.8-0.2,1.4c-0.4,0.6-1.1,1.6-2.1,3.2c0.1-0.1,0.2-0.3,0.4-0.5
			c2.3-2.3,4.5-4.2,6.6-5.5c2.1-1.3,3.8-1.4,5.2-0.3c0.5,0.4,0.8,1,0.9,1.6c0.1,0.6,0.1,1.2-0.1,1.7c-0.2,0.5-0.5,0.9-0.8,1.2
			c-0.4,0.3-0.8,0.4-1.2,0.2c-0.4-0.1-0.6-0.4-0.6-0.7c0.1-0.3,0-0.6-0.3-0.8c-0.7-0.6-1.7-0.5-3.2,0.2c-1.5,0.7-3.1,2-4.8,3.9
			c-1.2,1.3-2.4,2.7-3.5,4.1c-1.1,1.4-2,2.8-2.9,4.1c-0.9,1.3-1.7,2.6-2.4,3.7c-0.7,1.2-1.4,2.1-1.9,2.9c-0.7,1-1.5,1.8-2.3,2.2
			c-0.8,0.4-1.4,0.6-1.8,0.6c-0.4,0-0.7-0.3-0.7-0.9c0-0.6,0.3-1.4,1-2.5c0.2-0.4,0.5-0.8,0.8-1.3c0.3-0.5,0.7-1.1,1-1.8
			c1.9-3,3.5-5.9,4.8-8.6c1.3-2.7,2-4.8,2.1-6.2c0-1,0.3-1.6,0.8-2c0.5-0.4,1.2-0.6,1.8-0.7c0.7,0,1.3,0,1.9,0.2
			C313.4,87.5,313.9,87.7,314.1,87.9z"/>
		<path class="st1" d="M350.2,87.7c-0.1-0.6-0.6-0.9-1.7-1c-1.1-0.1-2.5,0.1-4.2,0.4c-1.8,0.4-3.8,1.2-5.9,2.2
			c-2.1,1-4.1,2.2-6.1,3.6c-2,1.3-3.4,2.5-4.4,3.7c-1,1.1-1.9,2.5-3,4c-0.8,1.2-1.3,2.4-1.4,3.6c-0.1,1.1,0.3,2.1,1.2,2.9
			c0.8,0.7,2.3,0.4,4.5-0.9c2.2-1.2,4.8-2.8,7.9-4.7c1.3-0.8,2.6-1.7,4-2.6c1.3-0.9,2.6-1.7,3.8-2.4c1.2-0.7,2.3-1.2,3.2-1.6
			c1-0.4,1.7-0.5,2.1-0.3c1,0.4,1.4,1.2,1.2,2.1c-0.3,1-0.7,2-1.4,3.1c-0.7,1.1-1.4,2-2,2.9c-0.7,0.8-0.9,1.3-0.8,1.4
			c1.2,0.4,2.8,0.3,4.7-0.4c2-0.7,4-1.6,6-2.8c2-1.2,3.9-2.4,5.6-3.7c1.7-1.3,2.9-2.4,3.5-3.2c0.6-0.8,1-1,1.1-0.5
			c0.1,0.4-0.1,1.1-0.9,1.9c-0.2,0.3-0.4,0.6-0.7,0.8c-0.2,0.3-0.4,0.5-0.7,0.7c-0.7,0.8-1.8,1.8-3.2,3.1c-1.4,1.2-2.9,2.5-4.6,3.7
			c-1.7,1.2-3.4,2.3-5.2,3.4c-1.8,1.1-3.4,1.8-4.9,2.2c-1.5,0.4-2.6,0.4-3.5,0.1c-0.9-0.4-1.3-1.4-1.2-3c0.1-1,0.7-2.2,1.5-3.6
			c0.4-0.7,0.7-1.2,1-1.6s0.6-0.8,0.7-1.1c0.2-0.3,0.4-0.6,0.6-0.9c-0.3-0.1-1.3,0.3-3,1.3c-1.7,1-3.6,2.2-5.8,3.6
			c-1.8,1.1-3.5,2.2-5.3,3.3c-1.8,1.1-3.5,2-5.1,2.8c-1.6,0.7-3.1,1.2-4.3,1.5c-1.3,0.3-2.3,0.1-3-0.6c-1.5-1.2-2.1-2.8-2-4.5
			c0.1-1.8,0.8-3.6,2-5.5c1.1-1.7,2.6-3.4,4.5-5.2c1.9-1.8,3.9-3.4,6.1-4.9c2.2-1.5,4.5-2.8,6.8-3.9c2.3-1.1,4.5-1.9,6.5-2.4
			c2.5-0.6,4.6-0.6,6.4-0.2c1.8,0.5,2.9,1.7,3.5,3.7c0.1,1.3-0.1,2.2-0.6,2.7c-0.6,0.5-1.6,0.4-3.2-0.2c-0.4-0.2-0.5-0.6-0.3-1.2
			C350.2,88.7,350.2,88.1,350.2,87.7z"/>
		<path class="st1" d="M362.2,87.1c1.5-0.7,2.7-1.1,3.7-1.2c1-0.1,1.9-0.1,2.5,0.1c0.7,0.2,1.1,0.6,1.4,1c0.3,0.5,0.5,1,0.6,1.7
			c0.1,1-0.1,2-0.5,3.1c-0.4,1.1-0.9,2.3-1.4,3.5c-0.5,1.2-1.1,2.4-1.7,3.6c-0.6,1.2-1.1,2.2-1.4,3.1c-0.4,0.9-0.5,1.7-0.5,2.3
			c0,0.6,0.4,0.9,1,0.9s1.7-0.6,3.1-1.6c1.4-1.1,3.1-2.4,5-4c1.9-1.6,3.9-3.3,6-5.1c2.2-1.8,4.3-3.4,6.4-4.9
			c2.1-1.5,4.1-2.6,6.1-3.5c2-0.8,3.7-1.1,5.2-0.8c0.1,0.1,0.2,0.2,0.1,0.4c-0.1,0.2-0.2,0.5-0.5,0.8c-0.3,0.3-0.5,0.6-0.8,0.8
			c-0.3,0.2-0.6,0.4-0.9,0.4c-0.7-0.1-1.8,0.3-3.1,1c-1.4,0.7-2.9,1.7-4.5,3c-1.6,1.3-3.4,2.7-5.2,4.3c-1.8,1.6-3.6,3.2-5.3,4.7
			c-1.7,1.5-3.3,2.9-4.8,4.2c-1.5,1.3-2.7,2.3-3.6,3c-2.1,1.6-3.7,2.6-4.7,2.9c-1,0.3-2,0.4-2.9,0.4c-0.6,0-1-0.3-1.3-0.9
			c-0.3-0.6-0.4-1.4-0.4-2.4c0-1,0.1-2,0.4-3.2c0.3-1.2,0.7-2.3,1.3-3.4c0.5-1.1,1.1-2.2,1.7-3.3c0.6-1.1,1.2-2.1,1.6-3.1
			c0.5-1,0.9-1.9,1.2-2.8c0.3-0.8,0.4-1.6,0.4-2.1c-0.1-1.2-0.8-1.5-2-1.1c-0.2,0.1-0.5,0-0.9-0.2c-0.4-0.2-0.7-0.4-0.9-0.6
			c-0.3-0.2-0.5-0.4-0.6-0.7C361.9,87.4,361.9,87.2,362.2,87.1z"/>
		<path class="st1" d="M385.6,107.3c-0.2-1.6,0.2-3.2,1.2-4.8c1-1.6,2.4-3.2,4-4.7c1.7-1.5,3.5-2.9,5.4-4.1c2-1.2,3.8-2.2,5.5-2.9
			c3.2-1.3,5.9-2.2,8.3-2.7c2.4-0.5,4.3-0.7,5.7-0.7c1.8,0,2.9,0.3,3.4,0.9c0.5,0.6,0,1.8-1.5,3.6c-1.3,1.5-3.2,2.8-5.7,4
			c-2.5,1.2-5,2.1-7.5,2.8c-2.5,0.7-4.8,1.1-6.9,1.2c-2.1,0.1-3.3-0.2-3.8-0.8c2.6,0,5.1-0.3,7.3-0.8c2.2-0.5,4.1-1.2,5.8-1.9
			c1.7-0.8,3.1-1.6,4.2-2.4c1.1-0.8,2-1.5,2.6-2.1c0.6-0.6,0.8-1,0.6-1.1c-0.2-0.1-0.7-0.2-1.4-0.2c-0.6,0-1.4,0.1-2.4,0.2
			c-1,0.1-2.1,0.4-3.4,0.7c-1.2,0.3-2.5,0.7-3.9,1.2c-1.4,0.5-2.6,1-3.8,1.7c-1.5,0.9-2.9,1.9-4.1,3c-1.2,1.1-2.2,2.3-2.9,3.4
			c-0.7,1.1-1.1,2.1-1.2,3c-0.1,0.9,0.3,1.6,1.1,2.1c1.9,0.8,4.1,1.1,6.7,0.8c2.5-0.3,5.2-0.8,7.9-1.7c0.7-0.2,1.2-0.4,1.5-0.5
			c0.4-0.1,1.1-0.4,2.2-0.8c1.2-0.5,2.5-1.1,4.1-1.8c1.5-0.7,3.1-1.4,4.6-2.3c1.5-0.8,2.9-1.7,4.2-2.6c1.3-1,2.4-1.9,3.2-3
			c0.6-0.8,1-1,1.2-0.5c0.2,0.4-0.1,1.1-0.8,1.9c-0.5,0.6-1.1,1.2-1.9,1.9c-0.7,0.7-1.4,1.3-2,1.8c-0.2,0.2-0.9,0.7-1.9,1.4
			c-1.1,0.7-2.4,1.6-3.9,2.5c-1.5,0.9-3.2,1.8-5.1,2.8c-1.8,0.9-3.6,1.7-5.4,2.3c-2.3,1-4.7,1.8-6.9,2.5c-2.3,0.7-4.4,1.1-6.3,1.2
			c-1.9,0.1-3.6-0.2-5-0.8C387.1,110.1,386.1,109,385.6,107.3z"/>
		<path class="st1" d="M454.1,57.1c-1.5,1.8-3.1,3.6-4.8,5.4c-1.8,1.8-3.7,4-5.8,6.5s-4.3,5.6-6.7,9.2c-2.3,3.6-4.8,8-7.5,13.3
			c-1.8,3.6-2.9,6.5-3.5,8.7c-0.6,2.2-0.4,3.7,0.4,4.5c0.8,0.5,1.7,0.8,2.8,0.9c1,0.1,2.2,0,3.4-0.2c1.2-0.3,2.7-0.9,4.6-1.8
			c1.9-0.9,3.8-1.9,5.7-3c1.9-1.1,3.6-2.1,5.2-3.1c1.5-1,2.5-1.7,3-2.1l1.4-1.4c0.6-0.8,1-1,1.1-0.5c0.1,0.4-0.1,1.1-0.9,1.9
			c-0.8,0.9-1.8,1.9-2.9,2.9c-1.1,1.1-2.4,2.1-3.8,3.1c-1.7,1.4-3.5,2.8-5.5,4.1c-2,1.4-4,2.5-5.9,3.5c-2,1-3.9,1.7-5.7,2.2
			c-1.8,0.5-3.4,0.5-4.8,0.2c-1.7-0.5-2.7-1.5-3.1-3.1c-0.4-1.5-0.3-3.4,0.3-5.7c0.5-2.1,1.4-4.5,2.6-7c1.2-2.6,2.7-5.2,4.3-8
			c2.8-5.2,5.4-9.5,7.8-12.8s4.5-6,6.3-8.1c1.8-2.1,3.2-3.9,4.2-5.2c1-1.4,1.6-2.7,1.6-4.1c0.1-0.6,0.7-1.2,1.9-1.8
			c1.2-0.6,2.3-1,3.4-1.3c1.1-0.2,1.8-0.1,2.3,0.3C455.8,54.8,455.4,55.7,454.1,57.1z"/>
	</g>
</g>
</svg>
