<?xml version="1.0" encoding="utf-8"?>
<!-- Generator: Adobe Illustrator 25.4.1, SVG Export Plug-In . SVG Version: 6.00 Build 0)  -->
<svg version="1.1" id="Layer_1" xmlns="http://www.w3.org/2000/svg" xmlns:xlink="http://www.w3.org/1999/xlink" x="0px" y="0px"
	 viewBox="0 0 455.5 126.9" style="enable-background:new 0 0 455.5 126.9;" xml:space="preserve">
<style type="text/css">
	.st0{fill:url(#SVGID_1_);}
	.st1{fill:url(#SVGID_00000056409918415007524500000007237808217329296315_);}
</style>
<g>
	
		<linearGradient id="SVGID_1_" gradientUnits="userSpaceOnUse" x1="0" y1="67.55" x2="218.1255" y2="67.55" gradientTransform="matrix(1 0 0 -1 0 128)">
		<stop  offset="0" style="stop-color:#29B8A5"/>
		<stop  offset="0.6291" style="stop-color:#59D8A1"/>
		<stop  offset="1" style="stop-color:#49A57D"/>
	</linearGradient>
	<path class="st0" d="M117.1,0c0.3,0,0.6,0,0.9,0s0.6,0.1,0.8,0.2C120,0,121.2,0,122.5,0c1.3,0.1,2.4,0.2,3.5,0.2c0.4,0,1,0,1.9-0.1
		c0.9,0,1.7-0.1,2.6-0.1s1.7,0,2.5,0s1.3,0,1.6,0c0.4,0.1,0.8,0.2,1.1,0.2c0.3,0.1,0.6,0.1,0.9,0.1s0.6,0,0.9-0.1
		c0.3,0,0.6-0.1,0.8-0.1c0.1,0.1,0.2,0.2,0.3,0.2h0.3c0.4,0.1,0.8,0.1,1.1,0.1s0.7-0.1,1.2-0.1c1.1,0,2.2,0.1,3.4,0.2
		c1.2,0.2,2.3,0.2,3.4,0.2c0.4,0,1,0,1.9,0.1s1.8,0.1,2.7,0.2c1,0.1,1.9,0.1,2.7,0.2c0.9,0.1,1.5,0.1,1.9,0.1l0.2,0.2
		c0.2,0,0.5,0,0.8-0.1c0.4,0,0.6,0,0.8,0.1c0.2,0,0.8,0.1,1.7,0.2s1.9,0.2,2.9,0.2c1.1,0.1,2.5,0.2,4.3,0.4h1.8
		c0.3,0,0.6,0.1,0.9,0.2c0.3,0.1,0.6,0.2,0.9,0.2c0.7,0,1.4,0,2.1,0c0.7,0,1.4,0.1,2,0.2c0.9,0.2,1.8,0.3,2.7,0.3s1.8,0,2.6,0
		c0.5,0,0.9,0.1,1.3,0.2c0.4,0.1,0.8,0.2,1.3,0.2h0.2c0.8,0,1.7,0,2.8,0s2,0.1,2.8,0.2l0.3,0.2c0.8,0,1.6,0,2.3,0.1s1.5,0.1,2.3,0.1
		c1.9,0,3.8,0,5.7,0.1s3.8,0.1,5.7,0.1c2,0,4,0,6-0.1c2,0,3.9-0.1,6-0.1h0.6c0,0.2,0,0.5,0.2,0.8c0.1,0.3,0.2,0.6,0.2,0.8
		c0,0.2,0,0.4-0.1,0.6C218,6,218,6.2,218,6.4c-0.1,0.1-0.2,0.2-0.2,0.4s-0.1,0.3-0.2,0.4c-0.3,0.5-0.8,1-1.4,1.5
		c-0.7,0.5-1.3,0.9-1.9,1.1c-0.2,0.2-0.6,0.4-1.1,0.7s-0.9,0.4-1.2,0.5l-0.2,0.2c-0.5,0.1-1.2,0.4-2.1,0.8c-0.9,0.5-1.6,0.7-2,0.7
		c-0.5,0-0.9,0.1-1.1,0.3h-0.5l-0.2,0.2c-0.2,0-0.5,0.1-1,0.2c-0.5,0.2-0.8,0.2-1,0.1c-0.2,0.2-0.4,0.3-0.5,0.2
		c-0.1,0-0.3,0-0.5,0.1l-0.5,0.3c-0.3,0-0.6,0-1,0.1s-0.6,0.1-0.8,0.1l-0.2,0.2l-0.5,0.2h-0.2c-0.2,0.1-0.8,0.2-1.7,0.4
		s-1.9,0.3-2.9,0.5c-1.1,0.2-2,0.4-2.9,0.5s-1.3,0.2-1.4,0.2c-0.1,0.1-0.4,0.2-0.9,0.2c-0.1,0-0.2,0-0.3,0.1s-0.2,0.1-0.3,0.1H189
		l-0.3,0.2c-0.5-0.1-1,0-1.6,0.2s-1.1,0.3-1.6,0.2l-0.5,0.3c-0.2,0-0.6,0-1.1,0c-0.6,0-0.9,0.1-1.1,0.2L182,18
		c-0.2,0.2-0.4,0.3-0.6,0.2c-0.2-0.1-0.4-0.2-0.6-0.2c-1.1,0-2.3,0.2-3.7,0.5s-2.7,0.4-4,0.3c-0.2,0.1-0.6,0.2-1.1,0.2
		c-0.6,0.1-1.2,0.1-2,0.1s-1.5,0-2.2,0s-1.2,0-1.5,0c-0.5,0-1.3,0.1-2.3,0.2s-1.7,0.1-2-0.2h-1.4l-0.2-0.2c-0.1,0-0.4,0-0.8-0.1
		c-0.4,0-0.8-0.1-1.3-0.2c-0.5,0-1.1-0.1-1.9-0.2c-0.3,0-0.8-0.2-1.4-0.5c-0.9,0.2-1.7,0.1-2.4-0.5c-0.4,0-0.9,0-1.5-0.1
		c-0.6,0-1.2-0.1-1.9-0.2s-1.3-0.2-1.8-0.4c-0.6-0.2-1-0.3-1.3-0.4c-0.6-0.2-1.3-0.2-2.1-0.2c-0.8,0.1-1.6,0.1-2.3,0
		c-0.1,0-0.2,0-0.2-0.1c-0.1,0-0.2-0.1-0.4-0.1c-0.2,0.1-0.4,0.2-0.7,0.2s-0.5,0.1-0.7,0.3l-0.6,0.2c-0.2,0.2-0.5,0.4-1,0.5
		c-0.5,0.2-0.9,0.3-1.3,0.5c-1.2,0.7-2.3,1.5-3.4,2.3c-1.1,0.8-2.1,1.6-3.2,2.4c0,0.2-0.4,0.6-1.1,1.1c-0.7,0.5-1.2,0.9-1.4,1.1
		c-1.8,1.7-3.6,3.5-5.4,5.3s-3.4,3.7-4.7,5.7c-0.2,0.3-0.5,0.5-0.8,0.6s-0.6,0.5-0.8,1.2c-0.2,0.1-0.8,0.9-1.9,2.3
		c-1.1,1.4-2.2,3-3.4,4.7c-1.2,1.7-2.3,3.3-3.3,4.8s-1.6,2.3-1.7,2.5c0,0.3-0.2,0.6-0.5,0.9L105,53l-0.3,0.3c0,0.3-0.1,0.5-0.2,0.5
		l-0.2,0.3c-0.4,0.4-0.9,1.1-1.5,2.1s-1,1.8-1.2,2.3c-0.2,0.1-0.4,0.3-0.6,0.6s-0.3,0.6-0.3,0.8l-0.2,0.2v0.2
		c-0.2,0.2-0.5,0.7-1,1.4s-0.7,1.2-0.8,1.4c0,0.1-0.1,0.2-0.2,0.3s-0.2,0.3-0.3,0.5c-0.2,0.2-0.4,0.4-0.5,0.6v0.2L97.5,65
		c-0.6,0.5-1,1.1-1.2,1.8c-0.2,0.7-0.6,1.3-1.2,1.8c-0.2,0.5-0.4,0.9-0.5,1.1c-0.1,0.3-0.4,0.5-0.8,0.8c-0.3,0.4-0.7,1-1.2,1.9
		s-1,1.8-1.6,2.7c-0.6,1-1.1,1.9-1.6,2.7c-0.5,0.9-0.9,1.4-1.2,1.7c-0.1,0.2-0.4,0.7-0.8,1.4c-0.4,0.7-0.7,1.1-0.9,1.2
		c-0.1,0.5-0.4,1-0.9,1.5s-0.9,1-1.1,1.5c-0.7,0.9-1.5,2.1-2.3,3.5c-0.9,1.5-1.7,2.4-2.5,2.9c-0.1,0.2-0.3,0.4-0.5,0.6l-4.4,5.4
		c-0.2,0.2-0.3,0.4-0.3,0.5s-0.1,0.3-0.2,0.5c-0.1,0.1-0.5,0.5-1.3,1.2s-1.6,1.5-2.4,2.3c-0.9,0.9-1.6,1.7-2.3,2.4
		c-0.7,0.8-1.1,1.2-1.1,1.3c-0.4,0.2-1.2,0.8-2.3,1.7c-1.1,0.9-1.9,1.6-2.4,2c-0.5,0.5-1.2,1.1-2.2,1.7c-1,0.7-2,1.3-3.1,2
		s-2.2,1.4-3.2,2c-1.1,0.6-1.9,1-2.5,1.2h-0.2c-0.2,0.1-0.4,0.2-0.5,0.3c-0.1,0.1-0.3,0.2-0.5,0.2l-2.1,1.1
		c-0.2,0.1-0.6,0.2-1.1,0.2s-0.9,0.1-1.1,0.2c-0.1,0.2-0.3,0.4-0.7,0.5s-0.6,0.2-0.8,0.3c-0.4,0-0.8,0.1-1.2,0.3
		c-0.1,0.1-0.2,0.2-0.4,0.2s-0.3,0.1-0.4,0.2c-0.2-0.1-0.5-0.1-0.8,0s-0.6,0.2-0.8,0.2c-0.2,0.1-0.5,0.2-0.8,0.2s-0.6,0.1-0.8,0.2
		c-0.3-0.1-0.9-0.1-1.7,0.1s-1.3,0.3-1.5,0.5c-0.8-0.1-1.5-0.1-2.2,0.1s-1.4,0.2-2.2,0.2h-0.2c-0.6,0.1-1.2,0.2-1.8,0.2
		s-1.2,0-1.8,0c-0.8,0-1.6,0-2.4-0.1s-1.6-0.1-2.4-0.1c-0.4,0-0.8-0.1-1.1-0.2s-0.7-0.2-1.2-0.1c-0.2-0.2-0.4-0.3-0.7-0.3
		c-0.3,0-0.5-0.1-0.7-0.2c-1.1-0.2-2.2-0.5-3.2-0.8s-2-0.7-3-1.1c-1.2-0.4-2.5-1.1-4-2c-1.5-1-2.9-2.1-4.2-3.3
		c-1.4-1.3-2.5-2.6-3.5-4s-1.7-2.8-2.1-4.1c0-0.1-0.1-0.5-0.4-1.3c-0.2-0.8-0.4-1.2-0.5-1.3c-0.2-0.8-0.3-1.5-0.4-2
		c0-0.5-0.1-1-0.2-1.4c0-0.5-0.1-0.8-0.1-1c-0.1-0.8-0.2-1.5-0.2-2.1C0.1,94.9,0,94.4,0,94c0-0.5,0-0.7,0-0.8l0.2-1.1
		c0.2-0.5,0.3-0.9,0.2-1.2c0-0.3-0.1-0.7-0.1-1.2l0.3-0.3c0-0.6,0.2-1.3,0.5-2.1v-0.5l0.3-0.6V86c0.3-0.5,0.6-1,0.9-1.6
		s0.6-1.2,0.8-1.7c0-0.2,0.2-0.5,0.5-0.8c0.4-0.4,0.9-1,1.4-1.8c0.4-0.5,0.9-1,1.5-1.4s1.1-1,1.5-1.6c1-0.4,1.7-0.8,2.1-1.2
		c0.2-0.2,0.6-0.4,1.3-0.7c0.7-0.2,1-0.5,1.1-0.7c0.3-0.2,0.6-0.3,0.9-0.3s0.7,0,1.1-0.2c0.2-0.4,0.9-0.7,2.1-0.8
		c1.2-0.2,2-0.3,2.3-0.5h0.8c0.2-0.2,1-0.3,2.3-0.3s2.2,0,2.7,0c1.4,0,2.8,0,4.2,0.1s2.8,0.2,4.2,0.5c0.6,0.2,1.1,0.3,1.4,0.3
		c1.2,0.7,2.5,1.3,3.8,1.7c1.3,0.4,2.2,1.5,2.7,3.2c0.1,0.5,0.2,0.9,0.3,1.1s0.2,0.6,0.2,1.1c0,0.2-0.1,0.4-0.2,0.7
		c-0.1,0.3-0.2,0.5-0.3,0.7V82v0.2v0.3c-0.2,0.2-0.3,0.4-0.4,0.7c-0.1,0.3-0.2,0.5-0.4,0.7c-0.2,0-0.3,0.1-0.3,0.3
		c-0.2,0.3-0.3,0.6-0.4,1c-0.1,0.4-0.2,0.7-0.4,1v1.1c0,0.2,0,0.5,0,0.8c0,0.4,0.1,0.6,0.3,0.8v0.2c0.2,0.3,0.5,0.8,0.9,1.4
		c0.4,0.7,1,1,1.7,1h0.3c0.4,0.2,1,0.4,1.7,0.5c0.8,0.1,1.3,0.2,1.7,0.2c0.5,0,1.1,0,1.7,0c0.6,0,1.2,0,1.8-0.2
		c0.2-0.1,0.4-0.2,0.7-0.3c0.2-0.1,0.5-0.2,0.7-0.2H51c0.2,0,0.5,0,0.8-0.2c0.3-0.1,0.5-0.2,0.6-0.2c0.2-0.1,0.4-0.2,0.5-0.2
		s0.2-0.1,0.5-0.3c0.5-0.2,1.2-0.4,2.2-0.7c1-0.2,1.6-0.6,1.9-1.1H58c0.2-0.2,0.7-0.5,1.4-0.8c0.8-0.3,1.3-0.7,1.7-1.2
		c0.2-0.1,0.6-0.4,1.2-0.8c0.6-0.4,1.2-0.9,1.8-1.4c0.6-0.5,1.2-1,1.7-1.4c0.6-0.5,0.9-0.8,1.1-1c0.1-0.1,0.4-0.4,1-0.9
		s1.2-1.1,1.8-1.7c0.7-0.6,1.3-1.2,1.9-1.8s1.1-1,1.4-1.2c0.1-0.1,0.2-0.2,0.2-0.3c0-0.1,0-0.2,0.2-0.5c0.3-0.3,0.6-0.6,0.9-1
		s0.7-0.6,1.1-0.8l0.2-0.5l1.5-1.8c0.4-0.1,1.4-1.1,2.9-3.1s3.1-4.1,4.9-6.5s3.4-4.6,4.9-6.6c1.5-2.1,2.4-3.3,2.7-3.8
		c1.2-1.7,2.2-3.1,2.9-4.1c0.8-1.1,1.4-2,2-2.9s1-1.3,1.1-1.3c0.2-0.5,0.9-1.4,2-2.8c1.1-1.4,2.3-2.8,3.7-4.2
		c1.4-1.5,2.7-2.8,3.9-4.1c1.3-1.3,2.1-2.1,2.6-2.5c0.2-0.3,0.8-0.9,1.7-1.7c0.9-0.9,1.9-1.8,2.9-2.8c1.1-1,2.1-1.9,3.1-2.8
		s1.8-1.5,2.3-1.9c0.4-0.3,0.8-0.6,1.3-0.8c0.5-0.2,0.8-0.6,1.1-1.1h0.2l0.5-0.3c0.1-0.2,0.2-0.4,0.4-0.5s0.3-0.3,0.5-0.5l0.6-0.3
		c0.5-0.5,1-1.1,1.6-1.7c0.6-0.6,1.1-1.2,1.7-1.8c0-0.3,0-0.5,0.2-0.6c-0.1-0.1-0.5-0.2-1.1-0.4c-0.7-0.2-1.1-0.2-1.3-0.2
		c-0.1-0.1-0.4-0.2-0.9-0.2s-1.1-0.1-1.7-0.1s-1.2,0-1.7,0c-0.6,0-1,0-1.3,0c-0.5,0-1.2,0.1-2,0.2c-0.9,0.1-1.5,0.1-1.9,0
		c-0.3,0-0.6,0-0.9-0.1c-0.3,0-0.6-0.1-0.9-0.1c-0.3,0.2-0.7,0.3-1.1,0.2c-0.4,0-0.9-0.1-1.4-0.1c-1.1,0-2.2,0.1-3.3,0.3
		c-1.1,0.2-2.2,0.3-3.3,0.3c-0.2,0-0.4,0-0.5,0.1S105.2,13,105,13h-0.3c-0.7,0-1.7,0.1-2.9,0.2c-1.3,0.2-2.3,0.3-3.1,0.4
		c-0.4,0.2-0.8,0.3-1.3,0.4c-0.5,0.1-0.9,0.1-1.4,0.1l-0.2,0.2l-0.6,0.2c-0.2,0.1-0.6,0.2-1.2,0.2c-0.6,0.1-1,0.1-1.1,0.1
		c-0.4,0.2-0.7,0.3-0.9,0.3c-0.3,0.2-1.1,0.4-2.3,0.5c-1.2,0.1-2.1,0.3-2.6,0.6h-0.6c-0.1,0.2-0.3,0.3-0.6,0.2c-0.3,0-0.6,0-0.8,0.2
		c-0.2,0-0.5,0.1-1,0.2s-0.8,0.3-1,0.5c-0.2-0.1-0.5-0.1-1,0.1s-0.8,0.3-1,0.5h-0.8c-0.2,0.2-0.5,0.3-0.8,0.3s-0.6,0.1-0.8,0.3h-0.3
		c-0.7,0.3-1.5,0.6-2.3,0.8c0,0.2-0.3,0.4-0.8,0.6c-0.6,0.2-1,0.3-1.2,0.3c-0.4,0.2-0.8,0.4-1.3,0.7c-0.5,0.3-0.9,0.4-1.4,0.5
		c-0.2,0.2-0.5,0.4-0.9,0.6s-0.8,0.4-1.1,0.6c-0.9,0.3-1.9,1-2.9,2c-1.1,1-2,1.9-2.8,2.6c-0.6,0.7-1.1,1.4-1.5,2.1s-0.9,1.5-1.4,2.3
		v0.3c-0.3,0.4-0.5,1-0.5,1.7c-0.1,0.7-0.1,1.3-0.1,1.8v1.7c0.4,0.4,0.5,0.8,0.3,1.1c0.2,0.6,0.8,1.3,1.9,2c1.1,0.8,1.8,1,2.3,0.8
		l0.3,0.2c0.5,0.1,1,0.2,1.6,0.2s1,0,1.4,0l0.2-0.2c0.5,0.1,1.4,0,2.6-0.5c1.3-0.4,2-0.6,2.2-0.6c0.1-0.1,0.4-0.2,1-0.4
		s1.2-0.3,1.8-0.5c0.7-0.2,1.3-0.3,1.8-0.5c0.6-0.2,0.8-0.3,0.8-0.4c0.2-0.1,0.6-0.2,1.1-0.3c0.6-0.1,0.9-0.2,1.1-0.3
		c0.4,0,0.8,0,1.1-0.1c0.4,0,0.8-0.1,1.3-0.1c0.2,0,0.6,0,1.2,0s1,0.1,1.1,0.2c0.1,0.1,0.2,0.4,0.5,0.8V40c0,0.4-0.2,1.2-0.5,2.3
		s-0.6,1.8-0.9,2l-0.2,0.5c-0.1,0-0.4,0.4-0.9,1.3c-0.5,0.9-0.9,1.4-1.1,1.6c-0.5,0.5-1.1,1.1-1.9,1.8s-1.6,1.4-2.5,2.2
		s-1.8,1.5-2.7,2.1c-0.9,0.7-1.7,1.1-2.3,1.3c-0.2,0.2-0.4,0.4-0.5,0.6c-0.2,0-0.4,0-0.5,0.1c-0.2,0.1-0.3,0.1-0.4,0.1
		c-0.2,0.1-0.9,0.5-2,1.1s-1.7,1-1.8,1.2c-0.7,0.1-1.4,0.4-2.2,0.8c-0.8,0.5-1.5,0.8-2.2,1c-0.2,0.2-0.4,0.3-0.6,0.3
		c-0.2,0-0.4,0.1-0.6,0.3h-0.6c-0.7,0.2-1.3,0.4-1.7,0.6c-0.4,0.2-0.9,0.4-1.5,0.5c-0.9,0.3-1.6,0.5-2.1,0.7s-1,0.3-1.4,0.4
		C54.2,62.9,54,63,53.9,63c-0.2,0.1-0.4,0.1-0.5,0c-0.2-0.1-0.3-0.1-0.5,0s-0.5,0.2-0.9,0.2h-0.2H51h-2.9c-0.3-0.2-1-0.5-2-0.8
		c-1-0.4-1.7-0.6-2.1-0.7c-0.1,0-0.2,0-0.3-0.2c-0.1-0.1-0.3-0.2-0.5-0.3c-1.7-1.1-3.1-2.6-4.3-4.5s-1.7-3.9-1.7-5.9
		c0-0.4,0-1,0-1.7c0-0.8,0-1.5,0.2-2.3c0.1-0.8,0.2-1.5,0.3-2.1c0.1-0.7,0.3-1.1,0.6-1.4c0-0.2,0-0.4,0.1-0.7c0-0.2,0.1-0.5,0.1-0.7
		v-0.2c0-0.1,0-0.2,0.1-0.2c0,0,0.1,0,0.1-0.2l0.2-0.2c0.1-0.5,0.2-1,0.5-1.4c0.2-0.4,0.4-0.9,0.6-1.4c0.4-0.5,0.8-1.2,1.2-2.2
		s0.9-1.7,1.4-2.2c0.7-0.8,1.4-1.7,2.1-2.6c0.7-0.9,1.4-1.8,2.1-2.6c0.2-0.3,0.7-0.8,1.4-1.4s1.5-1.3,2.3-2s1.6-1.3,2.3-1.9
		s1.2-0.8,1.5-0.8c0.1-0.2,0.4-0.5,0.8-0.8c0.5-0.3,0.9-0.6,1.4-1s1-0.7,1.4-1c0.5-0.3,0.8-0.6,1-0.9h0.2c1.1-0.6,2.3-1.2,3.5-1.9
		c1.3-0.7,2.4-1.3,3.5-2c0.4-0.1,1.2-0.5,2.3-1.1c1.1-0.7,1.9-1.1,2.4-1.3c0.3,0,0.6,0,0.8-0.2c0.2-0.2,0.7-0.5,1.4-0.8
		c0.8-0.4,1.2-0.6,1.4-0.8H75l0.5-0.3c0.2,0,0.6-0.1,1.2-0.4c0.6-0.2,1-0.5,1.2-0.7c0.1,0,0.2,0,0.2-0.1c0,0,0.1-0.1,0.2-0.1L78.9,9
		c0.1,0,0.2-0.1,0.2-0.1s0.1,0,0.2-0.2c0.2,0,0.6-0.1,1.1-0.2c0.5-0.2,0.9-0.3,1.1-0.5h0.2c0.3-0.2,0.6-0.3,0.9-0.3s0.6-0.1,0.8-0.3
		h0.5c0.2-0.1,0.5-0.2,0.8-0.4c0.4-0.2,0.5-0.3,0.5-0.4c0.2-0.1,0.4-0.2,0.6-0.2c0.1-0.1,0.2-0.2,0.5-0.2c0.2,0,0.4,0,0.5,0
		C87,6.1,87.2,6,87.4,5.7c0.2,0,0.5,0,1-0.1c0.5,0,0.8-0.2,1-0.4c0.2,0,0.3,0,0.4-0.1c0,0,0.2-0.1,0.4-0.1c0.2-0.2,0.5-0.4,1-0.5
		s0.8-0.2,1-0.2c0.2-0.1,0.4-0.2,0.5-0.2c0.2,0,0.3-0.1,0.4-0.2l0.2-0.2c0.8-0.2,1.5-0.3,2.1-0.3c0.1-0.1,0.4-0.2,1-0.4
		s0.9-0.2,1.1-0.2l0.2-0.2c0.1,0,0.4-0.1,1-0.2c0.6-0.2,1.2-0.3,1.9-0.5c0.7-0.2,1.6-0.4,2.7-0.7h0.3l0.3-0.2
		c0.8-0.2,1.7-0.4,2.6-0.6s1.8-0.2,2.7-0.2c1-0.5,2.4-0.8,4.1-0.8C114.5,0,116,0,117.1,0z M10.1,91.2l0.2,0.2h0.2l0.2-0.2V91h-0.2
		h-0.2C10.2,91,10.1,91.1,10.1,91.2z M10.1,93.4v0.3l0.2,0.2h0.2h0.2v-0.5h-0.2h-0.2H10.1z M10.1,96.1v0.2l0.2,0.2
		c0.2,0,0.3,0,0.3-0.2V96h-0.3L10.1,96.1z M10.1,98.7v0.2l0.2,0.2h0.2v-0.2v-0.2v-0.2h-0.2L10.1,98.7z M11.3,89.8V90l0.2,0.2
		l0.2,0.2h0.2l0.2-0.3v-0.2l-0.2-0.2h-0.3L11.3,89.8z M11.3,92.5v0.2l0.2,0.2h0.3l0.3-0.3v-0.2l-0.3-0.3h-0.3l-0.2,0.3V92.5z
		 M11.3,94.9v0.2c0,0.1,0,0.2,0.2,0.3h0.3c0.2,0,0.3-0.1,0.3-0.3v-0.2c0-0.1,0-0.2-0.1-0.2s-0.1,0-0.1-0.2h-0.3
		C11.4,94.6,11.3,94.7,11.3,94.9z M11.3,97.5v0.2v0.2l0.2,0.2h0.3l0.3-0.3v-0.2l-0.3-0.3h-0.3L11.3,97.5z M11.3,100.1v0.2
		c0.1,0.1,0.2,0.2,0.3,0.2h0.2l0.2-0.2v-0.2c0-0.1-0.1-0.2-0.2-0.2h-0.3L11.3,100.1z M11.5,87.2v0.2l0.2,0.2h0.2v-0.2v-0.2L11.7,87
		L11.5,87.2z M11.5,102.6v0.2h0.2h0.2v-0.2v-0.2h-0.2L11.5,102.6z M12.4,91.2l0.2,0.2l0.2,0.2H13l0.3-0.2V91
		c-0.1-0.1-0.2-0.2-0.3-0.2h-0.2C12.5,90.9,12.4,91,12.4,91.2z M12.4,93.6v0.3c0.1,0.1,0.2,0.2,0.3,0.2h0.5l0.2-0.2v-0.3v-0.2H13
		h-0.3C12.5,93.4,12.4,93.5,12.4,93.6z M12.4,96.4l0.3,0.2H13c0.1,0,0.2,0,0.3-0.2v-0.3V96l-0.2-0.2h-0.5L12.4,96V96.4z M12.5,98.4
		l-0.2,0.3v0.2c0,0.2,0.2,0.3,0.5,0.3H13l0.3-0.2v-0.5c-0.1-0.1-0.2-0.2-0.3-0.2h-0.3L12.5,98.4L12.5,98.4z M12.5,88.6v0.2
		c0.1,0.1,0.2,0.2,0.3,0.2h0.3l0.2-0.2v-0.2L13,88.3h-0.3L12.5,88.6z M12.5,101.3v0.3l0.2,0.2H13l0.2-0.2l0.2-0.3L13,101h-0.3
		c0,0.1,0,0.2-0.1,0.2C12.5,101.1,12.5,101.2,12.5,101.3z M12.7,86.2l0.2,0.2H13l0.2-0.2L13,85.9h-0.2L12.7,86V86.2z M12.7,103.8
		v0.2l0.2,0.2H13l0.2-0.2v-0.2l-0.2-0.2h-0.2L12.7,103.8z M13.7,90.1l0.2,0.2l0.3,0.2c0.1,0,0.2,0,0.2-0.1c0,0,0-0.1,0.2-0.1
		l0.2-0.2v-0.3v-0.2c-0.1-0.1-0.2-0.2-0.3-0.2H14l-0.3,0.2V90.1z M13.9,92.1l-0.2,0.2v0.5L14,93h0.3l0.3-0.3v-0.5l-0.3-0.3h-0.2
		c-0.1,0-0.2,0-0.2,0.1C14,92,14,92.1,13.9,92.1z M13.7,94.8v0.5l0.3,0.3h0.3l0.3-0.3v-0.5l-0.3-0.3H14L13.7,94.8z M13.7,97.3v0.5
		l0.2,0.2l0.3,0.2c0.1,0,0.2,0,0.2-0.1c0,0,0-0.1,0.2-0.1c0.1-0.1,0.2-0.2,0.2-0.3v-0.3L14.3,97H14L13.7,97.3z M13.7,99.9v0.5
		c0.1,0.1,0.2,0.2,0.3,0.2h0.3h0.2l0.2-0.3v-0.2v-0.2l-0.2-0.2l-0.3-0.2C13.9,99.9,13.7,100,13.7,99.9z M13.9,87.2v0.3
		c0,0.1,0.1,0.2,0.3,0.2h0.3c0-0.1,0-0.2,0.1-0.2c0,0,0.1,0,0.1-0.2v-0.2c0-0.2-0.1-0.3-0.3-0.3H14C13.9,87,13.9,87.1,13.9,87.2z
		 M13.9,102.8c0,0.1,0,0.2,0.2,0.2h0.3c0.2,0,0.3-0.1,0.3-0.2v-0.2c0-0.1,0-0.2-0.1-0.2s-0.1-0.1-0.1-0.2h-0.3l-0.3,0.2
		C13.9,102.4,13.9,102.8,13.9,102.8z M14,84.7v0.2l0.2,0.2h0.2v-0.3l-0.2-0.2L14,84.7z M14.2,105.3h0.2l0.2-0.2l-0.2-0.2h-0.2
		l-0.2,0.2L14.2,105.3z M14.9,88.7l0.2,0.2l0.3,0.2c0.1,0,0.2,0,0.2-0.1c0,0,0-0.1,0.2-0.1l0.2-0.2v-0.2v-0.2
		c-0.1-0.1-0.2-0.2-0.3-0.2h-0.3l-0.3,0.2v0.4H14.9z M14.9,91v0.2c0,0.3,0.1,0.5,0.3,0.5h0.3l0.3-0.3V91l-0.3-0.3h-0.3L14.9,91z
		 M14.9,93.7c0,0.1,0.1,0.3,0.3,0.5h0.3l0.3-0.3v-0.5l-0.3-0.2h-0.3l-0.3,0.3V93.7z M14.9,96.3c0,0.1,0.1,0.3,0.3,0.5h0.3l0.3-0.3
		V96l-0.3-0.2h-0.3c-0.2,0-0.3,0.1-0.3,0.3V96.3z M14.9,98.6v0.3V99l0.2,0.2c0.1,0,0.2,0,0.2,0.1c0,0,0,0.1,0.2,0.1h0.2l0.3-0.3
		v-0.5l-0.3-0.3h-0.3L14.9,98.6z M15.1,101l-0.2,0.2v0.5c0.1,0.1,0.2,0.2,0.3,0.2h0.3c0.1,0,0.2-0.1,0.3-0.2v-0.3v-0.2l-0.2-0.2
		l-0.3-0.2C15.2,100.8,15.1,100.8,15.1,101C15.2,100.9,15.2,101,15.1,101z M15.1,86v0.3h0.3h0.3c0.1,0,0.2-0.1,0.2-0.3l-0.3-0.3
		h-0.3L15.1,86z M15.1,104.1l0.2,0.2c0,0.1,0,0.1,0.2,0l0.3-0.2l0.2-0.2v-0.2c0-0.1,0-0.2-0.1-0.2s-0.1-0.1-0.1-0.2h-0.3l-0.3,0.2
		L15.1,104.1L15.1,104.1z M15.2,106.5l0.2,0.2h0.2l0.2-0.2v-0.2l-0.2-0.2h-0.2l-0.2,0.2V106.5z M15.4,83.6h0.2l-0.2-0.2V83.6z
		 M16.3,87.5l0.2,0.2l0.3,0.2c0.1,0,0.2,0,0.2-0.1c0,0,0-0.1,0.2-0.1l0.2-0.2v-0.3V87c-0.1-0.1-0.2-0.2-0.3-0.2h-0.3L16.5,87v0.5
		H16.3z M16.3,89.8V90c0,0.1,0.1,0.3,0.3,0.5h0.3l0.3-0.3v-0.5l-0.3-0.3h-0.3C16.4,89.6,16.3,89.7,16.3,89.8z M16.3,92.4v0.2
		c0,0.1,0.1,0.3,0.3,0.5h0.3l0.3-0.3v-0.5L16.9,92h-0.3C16.4,92.1,16.3,92.3,16.3,92.4z M16.3,94.9v0.2c0,0.1,0.1,0.3,0.3,0.5h0.3
		l0.3-0.3v-0.5l-0.3-0.3h-0.3C16.4,94.7,16.3,94.8,16.3,94.9z M16.3,97.5v0.2c0,0.1,0.1,0.3,0.3,0.5h0.3l0.3-0.3v-0.5L16.9,97h-0.3
		C16.4,97.2,16.3,97.4,16.3,97.5z M16.3,100.1v0.2c0,0.2,0.1,0.3,0.3,0.3h0.3l0.3-0.2v-0.5l-0.3-0.3h-0.3
		C16.4,99.8,16.3,100,16.3,100.1z M16.4,102.3l-0.2,0.2v0.5h0.3H17h0.2v-0.3v-0.2l-0.2-0.2l-0.3-0.2c-0.1,0-0.2,0-0.2,0.1
		C16.6,102.3,16.5,102.3,16.4,102.3z M16.4,84.5v0.3V85l0.2,0.2h0.3L17,85v-0.3l-0.2-0.2h-0.3H16.4z M16.4,105.2l0.2,0.3h0.3
		c0.2,0,0.3-0.1,0.3-0.3c0-0.1,0-0.2-0.1-0.2s-0.1-0.1-0.1-0.2h-0.3l-0.3,0.2V105.2z M16.6,107.6v0.2h0.2H17v-0.2h-0.2H16.6z
		 M17.5,86v0.3h0.3h0.5h0.2v-0.5c-0.1-0.1-0.2-0.2-0.3-0.2h-0.3L17.5,86z M17.5,88.4v0.2v0.2l0.2,0.2c0,0.1,0,0.2,0.2,0.2h0.3
		l0.3-0.3v-0.3l-0.3-0.3h-0.3L17.5,88.4z M17.5,91v0.2c0,0.1,0.1,0.3,0.3,0.5h0.3l0.3-0.3V91l-0.3-0.3h-0.3L17.5,91z M17.5,93.7
		c0,0.1,0.1,0.3,0.3,0.5h0.3l0.3-0.3v-0.5l-0.3-0.2h-0.3l-0.3,0.3V93.7z M17.5,96.1v0.2c0,0.1,0.1,0.3,0.3,0.5h0.3l0.3-0.3V96
		l-0.3-0.2h-0.3C17.6,95.8,17.5,95.9,17.5,96.1z M17.5,98.7v0.2c0,0.1,0.1,0.2,0.3,0.5h0.3l0.3-0.3v-0.5l-0.3-0.3h-0.3
		C17.6,98.5,17.5,98.6,17.5,98.7z M17.5,101.3v0.2c0,0.1,0.1,0.2,0.3,0.5h0.3l0.3-0.3v-0.5l-0.3-0.3h-0.3
		C17.6,101,17.5,101.2,17.5,101.3z M17.6,103.5l-0.2,0.2v0.5c0.1,0.1,0.2,0.2,0.3,0.2H18c0.1,0,0.2-0.1,0.3-0.2v-0.3v-0.2l-0.2-0.2
		l-0.3-0.2C17.7,103.3,17.6,103.3,17.6,103.5C17.8,103.5,17.7,103.5,17.6,103.5z M17.8,83.3l-0.2,0.3l0.2,0.2h0.3h0.2v-0.3
		c0-0.1-0.1-0.2-0.3-0.2H17.8z M17.6,106.5l0.2,0.3h0.3l0.2-0.2l0.2-0.3l-0.2-0.3H18l-0.3,0.2v0.3H17.6z M18,109.1l0.2-0.2H18V109.1
		z M18.9,84.8L19,85l0.2,0.2h0.3c0.1-0.1,0.2-0.2,0.2-0.3v-0.2l-0.2-0.3h-0.3C19,84.6,18.9,84.7,18.9,84.8z M19,86.9l-0.2,0.2v0.3
		v0.2l0.3,0.3h0.3l0.2-0.3v-0.5l-0.2-0.2l-0.2-0.2C19.1,86.7,19,86.7,19,86.9C19.2,86.9,19.1,86.9,19,86.9z M18.9,89.8V90
		c0,0.1,0.1,0.3,0.3,0.5h0.3l0.2-0.3v-0.5l-0.2-0.3h-0.3C19,89.6,18.9,89.7,18.9,89.8z M18.9,92.4v0.2c0,0.1,0.1,0.3,0.3,0.5h0.3
		l0.2-0.3v-0.5L19.5,92h-0.3C19,92.1,18.9,92.3,18.9,92.4z M18.9,94.9v0.2c0,0.1,0.1,0.3,0.3,0.5h0.3l0.2-0.3v-0.5l-0.2-0.3h-0.3
		C19,94.7,18.9,94.8,18.9,94.9z M18.9,97.5v0.2c0,0.1,0.1,0.3,0.3,0.5h0.3l0.2-0.3v-0.5L19.5,97h-0.3C19,97.2,18.9,97.4,18.9,97.5z
		 M18.9,100.1v0.2c0,0.2,0.1,0.3,0.3,0.3h0.3l0.2-0.2v-0.5l-0.2-0.3h-0.3C19,99.8,18.9,100,18.9,100.1z M18.9,102.6v0.2l0.2,0.2
		c0.1,0,0.2,0,0.2,0.1c0,0,0,0.1,0.2,0.1h0.2l0.2-0.2v-0.5l-0.2-0.3h-0.3C19,102.4,18.9,102.5,18.9,102.6z M19,104.9l-0.2,0.2v0.3
		c0.1,0.1,0.2,0.2,0.3,0.2h0.3l0.2-0.2V105l-0.2-0.2l-0.2-0.2L19,104.9z M19,107.6v0.2l0.2,0.2h0.3v-0.2v-0.2v-0.2h-0.3L19,107.6z
		 M19.2,82.3h0.2h0.2v-0.2h-0.2L19.2,82.3z M20.2,85.7L20,85.9v0.5h0.2l0.3,0.2h0.2c0-0.1,0-0.2,0.2-0.2c0.1,0,0.2,0,0.2-0.2V86
		v-0.2l-0.2-0.2l-0.3-0.2L20.2,85.7z M20.1,88.6v0.2l0.3,0.3h0.3l0.3-0.3v-0.3l-0.3-0.3h-0.3C20.2,88.3,20.1,88.5,20.1,88.6z
		 M20.1,91v0.2c0,0.1,0.1,0.3,0.3,0.5h0.3l0.3-0.3V91l-0.3-0.3h-0.3L20.1,91z M20.1,93.7c0,0.1,0.1,0.3,0.3,0.5h0.3l0.3-0.3v-0.5
		l-0.3-0.2h-0.3l-0.3,0.3V93.7z M20.1,96.1v0.2c0,0.1,0.1,0.3,0.3,0.5h0.3l0.3-0.3V96l-0.3-0.2h-0.3C20.2,95.8,20.1,95.9,20.1,96.1z
		 M20.1,98.7v0.2c0,0.1,0.1,0.2,0.3,0.5h0.3L21,99v-0.5l-0.3-0.3h-0.3C20.2,98.5,20.1,98.6,20.1,98.7z M20.1,101.3v0.2
		c0,0.1,0.1,0.2,0.3,0.5h0.3l0.3-0.3v-0.5l-0.3-0.3h-0.3C20.2,101,20.1,101.2,20.1,101.3z M20.1,103.7v0.3v0.2l0.2,0.2
		c0.1,0,0.2,0,0.2,0.1c0,0,0,0.1,0.2,0.1h0.2l0.3-0.3v-0.5l-0.3-0.3h-0.3L20.1,103.7z M20.1,106.5l0.3,0.3h0.3c0.1,0,0.2,0,0.2-0.1
		s0-0.1,0.2-0.1v-0.5c-0.1-0.1-0.2-0.2-0.3-0.2h-0.3l-0.3,0.2v0.4H20.1z M20.2,83.3v0.5l0.2,0.2h0.3c0.1-0.1,0.2-0.2,0.2-0.3v-0.2
		l-0.2-0.2h-0.3H20.2z M20.4,108.8v0.3v0.2h0.3l0.2-0.2V109l-0.2-0.2H20.4L20.4,108.8z M21.6,84.4c0,0.1,0,0.2-0.1,0.2
		s-0.1,0.1-0.1,0.2V85c0.1,0.1,0.2,0.2,0.3,0.2h0.2l0.3-0.2v-0.5l-0.3-0.2L21.6,84.4L21.6,84.4z M21.4,87.2v0.2
		c0,0.1,0.1,0.3,0.3,0.5h0.2l0.3-0.3v-0.5l-0.3-0.3h-0.2C21.5,87,21.4,87.1,21.4,87.2z M21.4,89.8V90c0,0.1,0.1,0.3,0.3,0.5h0.2
		l0.3-0.3v-0.5l-0.3-0.3h-0.2C21.5,89.6,21.4,89.7,21.4,89.8z M21.4,92.4v0.2c0,0.1,0.1,0.3,0.3,0.5h0.2l0.3-0.3v-0.5L21.9,92h-0.2
		C21.5,92.1,21.4,92.3,21.4,92.4z M21.4,94.9v0.2c0,0.1,0.1,0.3,0.3,0.5h0.2l0.3-0.3v-0.5l-0.3-0.3h-0.2
		C21.5,94.7,21.4,94.8,21.4,94.9z M21.4,97.5v0.2c0,0.1,0.1,0.3,0.3,0.5h0.2l0.3-0.3v-0.5L21.9,97h-0.2
		C21.5,97.2,21.4,97.4,21.4,97.5z M21.4,100.1v0.2c0,0.2,0.1,0.3,0.3,0.3h0.2l0.3-0.2v-0.5l-0.3-0.3h-0.2
		C21.5,99.8,21.4,100,21.4,100.1z M21.4,102.6v0.2l0.3,0.3h0.2l0.3-0.2v-0.5l-0.3-0.3h-0.2C21.5,102.4,21.4,102.5,21.4,102.6z
		 M21.4,105v0.3l0.2,0.2l0.3,0.2c0-0.1,0-0.2,0.2-0.2c0.1-0.1,0.2-0.2,0.2-0.3c0-0.1-0.1-0.3-0.3-0.5h-0.2L21.4,105z M21.6,107.6
		v0.3l0.2,0.2H22l0.3-0.3v-0.2l-0.3-0.2h-0.2L21.6,107.6z M21.7,82.3l0.2,0.2v-0.2v-0.2V82l-0.2,0.2V82.3z M21.7,110.2l0.2,0.2v-0.2
		V110L21.7,110.2z M22.8,85.7l-0.2,0.2V86v0.2c0,0.2,0.1,0.3,0.3,0.3h0.3l0.3-0.2V86l-0.2-0.3L23,85.5
		C22.9,85.5,22.8,85.5,22.8,85.7C22.9,85.7,22.9,85.7,22.8,85.7z M22.6,88.6v0.2l0.3,0.3h0.3l0.3-0.3v-0.3l-0.3-0.3h-0.3
		C22.7,88.3,22.6,88.5,22.6,88.6z M22.6,91v0.2c0,0.1,0.1,0.3,0.3,0.5h0.3l0.3-0.3V91l-0.3-0.3h-0.3L22.6,91z M22.6,93.7
		c0,0.1,0.1,0.3,0.3,0.5h0.3l0.3-0.3v-0.5l-0.3-0.2h-0.3l-0.3,0.3V93.7z M22.6,96.1v0.2c0,0.1,0.1,0.3,0.3,0.5h0.3l0.3-0.3V96
		l-0.3-0.2h-0.3C22.7,95.8,22.6,95.9,22.6,96.1z M22.6,98.7v0.2c0,0.1,0.1,0.2,0.3,0.5h0.3l0.3-0.3v-0.5l-0.3-0.3h-0.3
		C22.7,98.5,22.6,98.6,22.6,98.7z M22.6,101.3v0.2c0,0.1,0.1,0.2,0.3,0.5h0.3l0.3-0.3v-0.5l-0.3-0.3h-0.3
		C22.7,101,22.6,101.2,22.6,101.3z M22.6,103.8v0.2c0,0.1,0.1,0.2,0.3,0.5h0.3l0.3-0.3v-0.5l-0.3-0.3h-0.3
		C22.7,103.6,22.6,103.7,22.6,103.8z M22.8,106.1l-0.2,0.2v0.5c0.1,0.1,0.2,0.2,0.3,0.2h0.5l0.2-0.2v-0.3v-0.2l-0.2-0.2l-0.3-0.2
		C23,105.9,22.9,105.9,22.8,106.1C22.9,106.1,22.9,106.1,22.8,106.1z M22.9,83.3l-0.2,0.2v0.2c0,0.1,0,0.2,0.2,0.3h0.2l0.3-0.2v-0.3
		c0-0.2-0.1-0.3-0.3-0.3L22.9,83.3z M22.8,108.8v0.3l0.2,0.2h0.3l0.2-0.2V109c0-0.2-0.1-0.3-0.2-0.3H23L22.8,108.8z M24,84.7V85
		l0.2,0.2l0.2,0.2l0.3-0.2l0.2-0.2v-0.5c-0.1,0-0.2,0-0.2-0.1c0,0-0.1-0.1-0.2-0.1h-0.2L24,84.7z M24,87.2v0.2
		c0,0.1,0.1,0.3,0.3,0.5h0.2l0.3-0.3v-0.5l-0.3-0.3h-0.2C24.1,87,24,87.1,24,87.2z M24,89.8V90c0,0.1,0.1,0.3,0.3,0.5h0.2l0.3-0.3
		v-0.5l-0.3-0.3h-0.2C24.1,89.6,24,89.7,24,89.8z M24,92.4v0.2c0,0.1,0.1,0.3,0.3,0.5h0.2l0.3-0.3v-0.5L24.5,92h-0.2
		C24.1,92.1,24,92.3,24,92.4z M24,94.9v0.2c0,0.1,0.1,0.3,0.3,0.5h0.2l0.3-0.3v-0.5l-0.3-0.3h-0.2C24.1,94.7,24,94.8,24,94.9z
		 M24,97.5v0.2c0,0.1,0.1,0.3,0.3,0.5h0.2l0.3-0.3v-0.5L24.4,97h-0.2C24.1,97.2,24,97.4,24,97.5z M24,100.1v0.2
		c0,0.2,0.1,0.3,0.3,0.3h0.2l0.3-0.2v-0.5l-0.3-0.3h-0.2C24.1,99.8,24,100,24,100.1z M24,102.6v0.2l0.3,0.3h0.2l0.3-0.2v-0.5
		l-0.3-0.3h-0.2C24.1,102.4,24,102.5,24,102.6z M24,105.2c0,0.1,0.1,0.2,0.3,0.5h0.2l0.3-0.3V105l-0.3-0.3h-0.2
		C24.1,104.9,24,105.1,24,105.2z M24,107.9c0.1,0,0.2,0,0.2,0.1c0,0,0,0.1,0.2,0.1h0.2c0.1,0,0.2,0,0.2-0.1s0-0.1,0.2-0.1v-0.3
		c-0.1-0.1-0.2-0.2-0.3-0.2h-0.2l-0.3,0.2v0.3H24z M24.3,82.1v0.3h0.2l0.2-0.2L24.4,82h-0.2v0.1H24.3z M24.3,110.2v0.2v0.2h0.2
		l0.2-0.3l-0.2-0.2h-0.2V110.2z M25.3,85.7c-0.1,0.1-0.2,0.2-0.2,0.3v0.2l0.3,0.3h0.3l0.3-0.2V86l-0.2-0.3l-0.3-0.2
		C25.4,85.5,25.3,85.5,25.3,85.7C25.5,85.7,25.4,85.7,25.3,85.7z M25.2,88.6v0.2l0.3,0.3h0.3l0.3-0.3v-0.3l-0.3-0.3h-0.3
		C25.3,88.3,25.2,88.5,25.2,88.6z M25.2,91v0.2c0,0.1,0.1,0.3,0.3,0.5h0.3l0.3-0.3V91l-0.3-0.3h-0.3L25.2,91z M25.2,93.7
		c0,0.1,0.1,0.3,0.3,0.5h0.3l0.3-0.3v-0.5l-0.3-0.2h-0.3l-0.3,0.3V93.7z M25.2,96.1v0.2c0,0.1,0.1,0.3,0.3,0.5h0.3l0.3-0.3V96
		l-0.3-0.2h-0.3C25.3,95.8,25.2,95.9,25.2,96.1z M25.2,98.7v0.2c0,0.1,0.1,0.2,0.3,0.5h0.3l0.3-0.3v-0.5l-0.3-0.3h-0.3
		C25.3,98.5,25.2,98.6,25.2,98.7z M25.2,101.3v0.2c0,0.1,0.1,0.2,0.3,0.5h0.3l0.3-0.3v-0.5l-0.3-0.3h-0.3
		C25.3,101,25.2,101.2,25.2,101.3z M25.2,103.8v0.2c0,0.1,0.1,0.2,0.3,0.5h0.3l0.3-0.3v-0.5l-0.3-0.3h-0.3
		C25.3,103.6,25.2,103.7,25.2,103.8z M25.2,106.2v0.3l0.2,0.3l0.3,0.2c0.1,0,0.2,0,0.2-0.1s0-0.1,0.2-0.1c0.1-0.1,0.2-0.2,0.2-0.3
		v-0.3l-0.3-0.3h-0.3L25.2,106.2z M25.3,83.5v0.3c0.1,0.1,0.2,0.2,0.3,0.2l0.3-0.2v-0.3c0-0.2-0.1-0.3-0.3-0.3h-0.2L25.3,83.5z
		 M25.3,109.1l0.2,0.3h0.3l0.2-0.2l0.2-0.3l-0.2-0.2v-0.2h-0.3l-0.3,0.2v0.4H25.3z M26.5,84.4v0.3V85c0,0.1,0,0.2,0.2,0.2H27
		c0.2,0,0.3-0.1,0.3-0.3v-0.2l-0.2-0.2v-0.2h-0.3L26.5,84.4L26.5,84.4z M26.5,86.9v0.2v0.3v0.2l0.3,0.3c0.1,0,0.2,0,0.2-0.1
		c0,0,0-0.1,0.2-0.1l0.2-0.2V87l-0.2-0.2l-0.3-0.2c-0.1,0-0.2,0-0.2,0.1C26.7,86.9,26.6,86.9,26.5,86.9z M26.5,89.5v0.3V90v0.3
		l0.3,0.2c0.1,0,0.2,0,0.2-0.1c0,0,0-0.1,0.2-0.1l0.2-0.2v-0.3v-0.2l-0.2-0.2l-0.3-0.2c-0.1,0-0.2,0-0.2,0.1
		C26.7,89.5,26.6,89.5,26.5,89.5z M26.5,92.4v0.2v0.3l0.3,0.2c0.1,0,0.2,0,0.2-0.1c0,0,0-0.1,0.2-0.1l0.2-0.2v-0.3v-0.2L27.2,92
		c-0.1,0-0.2,0-0.2-0.1c0,0-0.1-0.1-0.2-0.1h-0.2C26.6,91.9,26.5,92.1,26.5,92.4z M26.5,94.9v0.2c0,0.2,0,0.4,0.2,0.5H27
		c0.2-0.2,0.3-0.4,0.3-0.5v-0.2c0-0.1-0.1-0.2-0.3-0.5h-0.3C26.6,94.6,26.5,94.7,26.5,94.9z M26.5,97.5v0.2c0,0.2,0,0.4,0.2,0.5H27
		l0.3-0.3v-0.5L27,97h-0.3C26.6,97.1,26.5,97.3,26.5,97.5z M26.5,100.1v0.2c0,0.2,0,0.3,0.2,0.3H27l0.3-0.2v-0.5L27,99.6h-0.3
		C26.6,99.7,26.5,99.9,26.5,100.1z M26.5,102.6v0.2c0,0.1,0,0.2,0.2,0.3H27l0.3-0.2v-0.5l-0.3-0.3h-0.3
		C26.6,102.3,26.5,102.4,26.5,102.6z M26.5,105.2c0,0.2,0,0.4,0.2,0.5H27l0.3-0.3V105l-0.3-0.3h-0.3C26.6,104.8,26.5,105,26.5,105.2
		z M26.5,107.5v0.2v0.3c0,0.1,0,0.2,0.2,0.2H27h0.2l0.2-0.3v-0.2l-0.2-0.2l-0.3-0.2c-0.1,0-0.2,0-0.2,0.1
		C26.7,107.4,26.6,107.5,26.5,107.5z M26.5,110.2v0.2l0.2,0.2h0.2l0.3-0.2V110H27h-0.3L26.5,110.2z M26.7,82.1v0.2v0.2h0.2l0.2-0.2
		v-0.2L26.9,82L26.7,82.1z M27.9,85.7c0,0.1,0,0.2-0.1,0.2s-0.1,0.1-0.1,0.2v0.3H28h0.2c0.3,0,0.5-0.1,0.5-0.3
		c0-0.2-0.2-0.3-0.5-0.3L27.9,85.7L27.9,85.7z M27.8,88.7c0.1,0.1,0.2,0.2,0.3,0.2h0.3c0.1,0,0.2,0,0.2-0.1c0,0,0-0.1,0.2-0.1v-0.2
		l-0.3-0.3h-0.3l-0.3,0.2v0.3H27.8z M27.8,91.3c0.1,0.1,0.2,0.2,0.3,0.2h0.3c0.2,0,0.3-0.1,0.3-0.3V91c-0.1-0.1-0.2-0.2-0.3-0.2
		h-0.3L27.8,91V91.3z M27.8,93.4v0.5C27.9,94,28,94,28.1,94h0.3l0.3-0.2v-0.5h-0.3h-0.3L27.8,93.4L27.8,93.4z M27.9,95.8L27.8,96
		v0.5l0.2,0.2l0.3,0.2c0.1,0,0.2,0,0.2-0.1c0,0,0-0.1,0.2-0.1l0.2-0.2v-0.3V96l-0.2-0.2h-0.3H27.9z M27.8,98.7v0.2
		c0,0.1,0.1,0.2,0.3,0.5h0.3c0.2-0.2,0.3-0.4,0.3-0.5v-0.2c0-0.1-0.1-0.3-0.3-0.5h-0.3C27.9,98.5,27.8,98.6,27.8,98.7z M27.8,101.3
		v0.2c0,0.1,0.1,0.2,0.3,0.5h0.3l0.3-0.3v-0.5l-0.3-0.3h-0.3C27.9,101,27.8,101.2,27.8,101.3z M27.8,103.8v0.2
		c0,0.1,0.1,0.2,0.3,0.5h0.3l0.3-0.3v-0.5l-0.3-0.3h-0.3C27.9,103.6,27.8,103.7,27.8,103.8z M27.8,106.4v0.2c0,0.1,0.1,0.2,0.3,0.5
		h0.3l0.3-0.3v-0.5l-0.3-0.3h-0.3C27.9,106.1,27.8,106.3,27.8,106.4z M27.9,108.7l-0.2,0.3l0.2,0.3l0.2,0.2h0.3l0.3-0.3V109
		l-0.2-0.2c-0.1,0-0.2-0.1-0.2-0.2L27.9,108.7L27.9,108.7L27.9,108.7z M27.9,83.5v0.3h0.2h0.3h0.2v-0.3c-0.1-0.1-0.2-0.2-0.3-0.2
		C28,83.3,27.9,83.4,27.9,83.5z M28.2,111.7l0.2-0.2h-0.2V111.7z M29,92.5c0,0.2,0.2,0.3,0.5,0.3l0.3-0.2l0.2-0.3
		c-0.2-0.2-0.4-0.3-0.5-0.3C29.1,92.1,29,92.2,29,92.5z M29,95.2c0.1,0.1,0.2,0.2,0.3,0.2h0.3c0.2,0,0.3-0.1,0.3-0.3v-0.2l-0.3-0.3
		h-0.3L29,94.8V95.2z M29,97.3v0.5l0.2,0.2l0.3,0.2c0.1,0,0.2,0,0.2-0.1c0,0,0-0.1,0.2-0.1l0.2-0.2v-0.5c-0.1-0.1-0.2-0.2-0.3-0.2
		h-0.5L29,97.3z M29,100.1v0.2c0,0.2,0.1,0.3,0.3,0.3h0.3c0.2,0,0.3-0.1,0.3-0.3v-0.2v-0.2l-0.3-0.3h-0.3C29.1,99.8,29,100,29,100.1
		z M29,102.6v0.2l0.3,0.3h0.3l0.3-0.2v-0.5l-0.3-0.3h-0.3C29.1,102.4,29,102.5,29,102.6z M29,105.2c0,0.1,0.1,0.2,0.3,0.5h0.3
		l0.3-0.3V105l-0.3-0.3h-0.3C29.1,104.9,29,105.1,29,105.2z M29,107.6v0.3c0.1,0.1,0.2,0.2,0.3,0.2h0.3h0.2l0.2-0.3v-0.2l-0.3-0.3
		h-0.3L29,107.6z M29.1,84.7V85h0.2h0.3l0.2-0.2v-0.2c-0.1-0.1-0.2-0.2-0.3-0.2C29.2,84.5,29.1,84.6,29.1,84.7z M29.1,87.2v0.2
		l0.2,0.3h0.3l0.2-0.2V87c-0.1-0.1-0.2-0.2-0.3-0.2h-0.2L29.1,87.2z M29.1,89.7v0.5l0.2,0.2h0.3c0.1-0.1,0.2-0.2,0.2-0.3v-0.2
		c-0.1-0.1-0.2-0.2-0.2-0.3h-0.3L29.1,89.7z M29.3,110h-0.2v0.3c0,0.1,0.1,0.2,0.3,0.2c0.2,0,0.3-0.1,0.3-0.2V110H29.3L29.3,110z
		 M30.5,95.8c0,0.1,0,0.2-0.1,0.2s-0.1,0.1-0.1,0.2v0.3c0.1,0,0.2,0,0.2,0.1s0,0.1,0.2,0.1H31c0.1,0,0.2,0,0.2-0.2
		c0.1,0,0.2-0.1,0.2-0.3L31.1,96v-0.2h-0.3H30.5z M30.3,99l0.2,0.2l0.3,0.2l0.3-0.2l0.2-0.2v-0.5c-0.1-0.1-0.2-0.2-0.3-0.2h-0.3
		l-0.3,0.2V99H30.3z M30.3,101.3v0.2c0,0.1,0.1,0.2,0.3,0.5h0.3c0.2-0.2,0.3-0.4,0.3-0.5v-0.2c0-0.1-0.1-0.3-0.3-0.5h-0.3
		C30.4,101,30.3,101.2,30.3,101.3z M30.3,103.8v0.2c0,0.1,0.1,0.2,0.3,0.5h0.3l0.3-0.3v-0.5l-0.3-0.3h-0.3
		C30.4,103.6,30.3,103.7,30.3,103.8z M30.3,106.4v0.2c0,0.1,0.1,0.2,0.3,0.5h0.3l0.3-0.3v-0.5l-0.3-0.3h-0.3
		C30.4,106.1,30.3,106.3,30.3,106.4z M30.5,108.8c-0.1,0-0.2,0.1-0.2,0.3l0.3,0.3h0.3l0.3-0.3V109c0-0.2-0.1-0.3-0.3-0.3h-0.3
		L30.5,108.8z M30.5,91v0.3h0.2H31l0.2-0.2V91h-0.3H30.5z M30.5,93.6v0.3l0.2,0.2H31l0.2-0.3v-0.2c-0.1-0.1-0.2-0.2-0.3-0.2h-0.2
		L30.5,93.6z M30.6,86v0.2h0.2H31V86H30.6z M30.6,88.6v0.2h0.3v-0.2v-0.2h-0.3V88.6z M30.8,111.7l0.2-0.2h-0.2V111.7z M31.5,97.6
		l0.2,0.2V98H32h0.3v-0.2c0.1,0,0.2-0.1,0.2-0.3c0-0.2-0.2-0.3-0.5-0.3S31.5,97.3,31.5,97.6z M31.5,100.4l0.2,0.2H32h0.3l0.2-0.2
		v-0.5c-0.1-0.1-0.2-0.2-0.3-0.2h-0.3l-0.3,0.2v0.5H31.5z M31.5,102.6v0.2l0.3,0.3h0.3l0.3-0.2v-0.3c0-0.1-0.1-0.3-0.3-0.5h-0.3
		C31.6,102.4,31.5,102.5,31.5,102.6z M31.5,105.2c0,0.1,0.1,0.2,0.3,0.5h0.3l0.3-0.3V105l-0.3-0.3h-0.3
		C31.6,104.9,31.5,105.1,31.5,105.2z M31.5,107.6v0.3c0.1,0.1,0.2,0.2,0.3,0.2h0.3h0.2l0.2-0.3v-0.2l-0.3-0.3h-0.3L31.5,107.6z
		 M31.7,94.8v0.5h0.2l0.2,0.2c0.1,0,0.2,0,0.2-0.1c0,0,0-0.1,0.2-0.1v-0.5h-0.2H32H31.7z M31.8,110h-0.2v0.3c0,0.1,0.1,0.2,0.3,0.2
		c0.2,0,0.3-0.1,0.3-0.2V110H32H31.8z M31.8,92.4v0.2l0.2,0.2h0.2v-0.2v-0.2L32,92.2L31.8,92.4z M32.9,98.9L32.9,98.9l0.1,0.3h0.3
		h0.3V99v-0.3c0-0.2-0.1-0.3-0.3-0.3C33,98.4,32.9,98.6,32.9,98.9z M32.9,101.1v0.5l0.2,0.2l0.3,0.2c0.1,0,0.2,0,0.2-0.1
		s0-0.1,0.2-0.1v-0.2v-0.2v-0.3c0-0.1-0.1-0.2-0.2-0.2H33L32.9,101.1z M32.9,103.8v0.2c0,0.1,0.1,0.2,0.3,0.5h0.3l0.2-0.3v-0.5
		l-0.2-0.3h-0.3C33,103.6,32.9,103.7,32.9,103.8z M32.9,106.4v0.2c0,0.1,0.1,0.2,0.3,0.5h0.3l0.2-0.3v-0.5l-0.2-0.3h-0.3
		C33,106.1,32.9,106.3,32.9,106.4z M33,108.7l-0.2,0.3v0.2l0.3,0.3h0.3l0.2-0.3V109v-0.3h-0.3H33L33,108.7z M33,96.1v0.3h0.2h0.3
		h0.2v-0.3L33.5,96h-0.3L33,96.1z M33.2,93.7h0.2v-0.2h-0.2V93.7z M34.1,100.1v0.2c0,0.2,0.1,0.3,0.3,0.3h0.3c0-0.1,0-0.2,0.2-0.2
		c0.1,0,0.2-0.1,0.2-0.2V100l-0.2-0.2v-0.2h-0.3c-0.1,0-0.2,0-0.2,0.1c0,0-0.1,0.1-0.2,0.1L34.1,100.1z M34.2,102.3l-0.2,0.2v0.5
		h0.2c0.1,0,0.2,0,0.2,0.1c0,0,0,0.1,0.2,0.1h0.2c0.1-0.1,0.2-0.2,0.3-0.2v-0.3v-0.2l-0.2-0.2l-0.3-0.2c-0.1,0-0.2,0-0.2,0.1
		S34.3,102.3,34.2,102.3z M34.1,105.2c0,0.1,0.1,0.2,0.3,0.5h0.3l0.3-0.3V105l-0.3-0.3h-0.3C34.2,104.9,34.1,105.1,34.1,105.2z
		 M34.2,107.5l-0.2,0.2v0.3c0.1,0.1,0.2,0.2,0.3,0.2h0.3l0.3-0.2v-0.3l-0.2-0.2l-0.3-0.2C34.3,107.3,34.2,107.3,34.2,107.5
		C34.4,107.4,34.3,107.5,34.2,107.5z M34.2,97.5v0.3h0.2h0.3h0.2v-0.3l-0.2-0.2h-0.3L34.2,97.5z M34.2,110.2v0.2l0.2,0.2h0.2
		l0.3-0.2V110h-0.2h-0.3L34.2,110.2z M35.4,101.3v0.3c0.1,0.1,0.2,0.2,0.3,0.2H36l0.2-0.2v-0.3L36,101h-0.3L35.4,101.3z M35.4,103.8
		v0.2c0,0.1,0.1,0.2,0.3,0.5H36l0.2-0.3v-0.3c0-0.1,0-0.2-0.1-0.2c-0.1-0.1-0.1-0.1-0.1-0.2h-0.3C35.5,103.6,35.4,103.7,35.4,103.8z
		 M35.4,106.4v0.2l0.2,0.3l0.3,0.2l0.2-0.2c0.1-0.1,0.2-0.2,0.2-0.3v-0.3l-0.2-0.3h-0.3C35.5,106.1,35.4,106.3,35.4,106.4z
		 M35.6,98.6v0.3c0,0.1,0,0.2,0.1,0.2c0,0,0.1,0,0.1,0.2H36l0.2-0.2v-0.5h-0.3H35.6z M35.6,109.3l0.2,0.2h0.3v-0.2l0.2-0.3l-0.2-0.2
		v-0.2h-0.2l-0.3,0.2V109.3z M36.7,102.9h0.2l0.3,0.2c0.1,0,0.2,0,0.2-0.1s0-0.1,0.2-0.1h0.2v-0.5c-0.1-0.1-0.2-0.2-0.3-0.2H37
		l-0.3,0.2V102.9z M36.7,105.2c0,0.1,0.1,0.2,0.3,0.5h0.3l0.3-0.3V105l-0.3-0.3H37C36.8,104.9,36.7,105.1,36.7,105.2z M36.8,107.5
		l-0.2,0.2v0.3l0.3,0.2h0.3c0.1,0,0.2,0,0.2-0.1s0-0.1,0.2-0.1v-0.3c-0.1-0.1-0.2-0.2-0.2-0.2c-0.1,0-0.1-0.1-0.2-0.2
		c-0.1,0-0.2,0-0.2,0.1C37,107.4,36.9,107.5,36.8,107.5z M36.8,100.1v0.3l0.2,0.2h0.3c0.1-0.1,0.2-0.2,0.2-0.3v-0.2
		c0-0.2-0.1-0.3-0.3-0.3H37L36.8,100.1z M37,110v0.3l0.2,0.2h0.2v-0.2V110h-0.2H37z M38,101.4l0.2,0.3h0.3l0.2-0.2
		c0.1,0,0.2-0.1,0.2-0.3l-0.3-0.3h-0.2C38.1,101.2,38,101.3,38,101.4z M38.2,103.5c-0.1,0-0.2,0.1-0.2,0.3v0.2v0.2l0.3,0.3h0.2
		c0.2-0.2,0.3-0.4,0.3-0.5v-0.2v-0.2l-0.2-0.2l-0.2-0.2c-0.1,0-0.2,0-0.2,0.1C38.3,103.5,38.3,103.5,38.2,103.5z M38,106.2v0.3
		l0.2,0.3l0.3,0.2c0-0.1,0-0.2,0.2-0.2l0.2-0.2v-0.3v-0.2l-0.3-0.3h-0.2L38,106.2z M38.2,109.1l0.2,0.2l0.2,0.2
		c0.1-0.1,0.2-0.2,0.2-0.3v-0.3l-0.2-0.2l-0.3,0.2v0.2H38.2z M38.3,98.7v0.2l0.2,0.2v-0.2v-0.2H38.3z M39.2,102.6v0.3h0.3h0.3h0.3
		v-0.3c0-0.1,0-0.2-0.1-0.2s-0.1-0.1-0.1-0.2h-0.3h-0.2L39.2,102.6z M39.2,105.2c0,0.1,0.1,0.2,0.3,0.5h0.3l0.3-0.3V105l-0.3-0.3
		h-0.3C39.3,104.9,39.2,105.1,39.2,105.2z M39.4,107.5l-0.2,0.2v0.2c0.2,0.3,0.4,0.4,0.5,0.3L40,108l0.2-0.2v-0.2
		c-0.1-0.1-0.2-0.2-0.3-0.2h-0.3L39.4,107.5L39.4,107.5z M39.4,100.2l0.2,0.2h0.3l0.2-0.2V100c-0.1-0.1-0.2-0.2-0.3-0.2l-0.3,0.2
		v0.2H39.4z M39.5,110.2v0.2h0.3v-0.2V110h-0.2L39.5,110.2z M40.6,103.7v0.5l0.2,0.2l0.2,0.2c0.1,0,0.2,0,0.2-0.1s0-0.1,0.2-0.1
		l0.2-0.2v-0.3v-0.2c-0.1-0.1-0.2-0.2-0.3-0.2H41L40.6,103.7z M40.6,106.2v0.5l0.2,0.2H41l0.3-0.2v-0.5l-0.2-0.2l-0.3-0.2l-0.2,0.2
		V106.2z M40.7,101.1v0.2v0.2v0.3H41c0.1,0,0.2-0.1,0.2-0.3v-0.2l-0.3-0.3L40.7,101.1z M40.7,108.8v0.3c0,0.1,0,0.2,0.2,0.2
		s0.3-0.1,0.3-0.2v-0.3c-0.1-0.1-0.2-0.2-0.3-0.2h-0.2V108.8z M41.8,102.6v0.2c0,0.1,0.1,0.2,0.3,0.2h0.3c0.2,0,0.3-0.1,0.3-0.2
		v-0.2c0-0.2-0.2-0.3-0.5-0.3c-0.1,0-0.2,0-0.2,0.1c0,0-0.1,0.1-0.2,0.1L41.8,102.6z M41.9,104.9l-0.2,0.2v0.2l0.2,0.3l0.3,0.2
		c0.1,0,0.2,0,0.2-0.1s0-0.1,0.2-0.1l0.2-0.2v-0.2V105l-0.2-0.2l-0.3-0.2c-0.1,0-0.2,0-0.2,0.1C42.1,104.9,42,104.9,41.9,104.9z
		 M41.8,107.6l0.2,0.3l0.2,0.2h0.3l0.2-0.2l0.2-0.3l-0.2-0.2h-0.3c-0.1,0-0.2,0-0.2,0.1c0,0-0.1,0.1-0.2,0.1H41.8z M42.1,100.2
		l0.2,0.2h0.2v-0.2V100h-0.3v0.2H42.1z M43.1,101.3v0.3l0.2,0.2h0.3l0.2-0.2v-0.3l-0.2-0.2h-0.3L43.1,101.3z M43.1,104.1v0.2
		l0.3,0.2c0.1,0,0.2,0,0.2-0.1s0-0.1,0.2-0.1l0.2-0.2v-0.5c-0.1-0.1-0.2-0.2-0.3-0.2h-0.3l-0.2,0.2v0.5H43.1z M43.1,106.7v0.2h0.3
		h0.3c0-0.1,0-0.2,0.1-0.2c0,0,0.1-0.1,0.1-0.2v-0.3c-0.1-0.1-0.2-0.2-0.3-0.2h-0.3l-0.2,0.2C43.1,106.2,43.1,106.7,43.1,106.7z
		 M43.3,108.8v0.3l0.2,0.2h0.2v-0.2V109l-0.2-0.2H43.3z M44.3,102.8l0.2,0.2h0.2h0.2h0.3c0.1,0,0.2-0.1,0.2-0.3l-0.3-0.3h-0.3
		C44.4,102.5,44.3,102.7,44.3,102.8z M44.5,104.9l-0.2,0.2v0.3c0.1,0.1,0.2,0.2,0.3,0.2H45l0.3-0.2V105c-0.1-0.1-0.2-0.2-0.2-0.2
		c-0.1,0-0.1-0.1-0.2-0.2c-0.1,0-0.2,0-0.2,0.1C44.7,104.9,44.6,104.9,44.5,104.9z M44.5,107.6v0.3h0.2H45h0.2v-0.3
		c-0.1,0-0.2-0.1-0.2-0.2h-0.3L44.5,107.6z M45.6,104.1c0.1,0.1,0.2,0.2,0.3,0.2h0.3l0.3-0.2v-0.5l-0.3-0.2h-0.3l-0.3,0.2V104.1z
		 M45.6,106.4l0.2,0.3l0.2,0.2h0.3l0.2-0.2l0.2-0.3l-0.2-0.3H46C45.7,106.1,45.6,106.2,45.6,106.4z M45.7,101.4l0.2,0.2l0.2,0.2
		c0.1,0,0.2,0,0.2-0.1s0-0.1,0.2-0.1v-0.3c0-0.1-0.1-0.2-0.3-0.2l-0.3,0.2v0.1H45.7z M46,109.1l0.2-0.2H46V109.1z M46.9,105.2
		c0,0.1,0,0.2,0.2,0.3c0.1,0.1,0.2,0.1,0.3,0l0.3-0.2l0.2-0.2c0-0.2-0.1-0.3-0.3-0.3h-0.3C47,104.9,46.9,105,46.9,105.2z
		 M47.1,102.5v0.5c0.1,0.1,0.2,0.1,0.3,0h0.3c0.1,0,0.2-0.1,0.2-0.3l-0.3-0.3h-0.3L47.1,102.5z M47.2,46.5l0.2,0.2h0.2l0.2-0.2v-0.2
		l-0.2-0.2h-0.2l-0.2,0.2V46.5z M47.2,48.9v0.2l0.2,0.2h0.2v-0.2v-0.2v-0.2h-0.2L47.2,48.9z M47.2,107.6v0.2l0.2,0.2l0.2-0.2v-0.2
		h-0.2H47.2z M48.3,103.5c0,0.1,0,0.2-0.1,0.2s-0.1,0-0.1,0.2v0.2c0,0.1,0,0.2,0.1,0.2c0,0,0.1,0,0.1,0.2h0.3h0.3
		c0-0.1,0-0.2,0.1-0.2c0,0,0.1-0.1,0.1-0.2v-0.2c0-0.1,0-0.2-0.1-0.2s-0.1-0.1-0.1-0.2h-0.3H48.3z M48.3,45.2v0.2l0.2,0.2h0.3
		l0.2-0.2v-0.2c0-0.1-0.1-0.2-0.2-0.2h-0.3L48.3,45.2z M48.3,47.6V48c0.1,0.1,0.2,0.2,0.3,0.2h0.2L49,48l0.2-0.3l-0.3-0.3h-0.3
		L48.3,47.6z M48.3,101.4l0.2,0.2h0.3H49v-0.3c-0.1-0.1-0.2-0.2-0.3-0.2l-0.3,0.2v0.1H48.3z M48.4,106.2h-0.2v0.3
		c0,0.1,0.1,0.2,0.3,0.2s0.3-0.1,0.3-0.2v-0.3c-0.1,0-0.2,0-0.2-0.1s-0.1-0.1-0.2-0.1L48.4,106.2z M48.4,42.6v0.2l0.2,0.2h0.2
		l0.2-0.2v-0.2l-0.2-0.2h-0.2L48.4,42.6z M48.4,50.1v0.5h0.2h0.2l0.2-0.2v-0.3h-0.2h-0.2H48.4z M49.6,46.2l-0.2,0.3
		c0,0.2,0.2,0.3,0.5,0.3h0.2l0.2-0.2v-0.3v-0.2H50h-0.4V46.2z M49.5,48.9l0.2,0.3c0,0.1,0.1,0.2,0.3,0.2h0.3v-0.3v-0.3l-0.2-0.2
		h-0.2C49.6,48.6,49.5,48.7,49.5,48.9z M49.6,43.9l0.2,0.3h0.3l0.2-0.2v-0.3l-0.2-0.2h-0.3l-0.2,0.2V43.9z M49.6,102.6v0.3h0.3h0.3
		v-0.3c0-0.1-0.1-0.2-0.2-0.3h-0.3C49.7,102.4,49.6,102.5,49.6,102.6z M49.6,105.2l0.2,0.3H50c0.1,0,0.2-0.1,0.2-0.2l0.2-0.2
		l-0.2-0.3h-0.3C49.7,105,49.6,105.1,49.6,105.2z M49.8,41.4v0.2H50l0.3-0.2c-0.1-0.1-0.2-0.2-0.3-0.2
		C49.8,41.2,49.8,41.3,49.8,41.4z M49.8,51.3v0.3l0.2,0.2l0.3-0.2v-0.3h-0.2H49.8z M49.9,100.2h0.2V100h-0.2V100.2z M50.7,45.3
		l0.2,0.2l0.2,0.2h0.3l0.3-0.3v-0.2c0-0.1,0-0.2-0.1-0.2s-0.1,0-0.1-0.2h-0.3C50.8,44.9,50.7,45,50.7,45.3z M50.7,48
		c0.1,0.1,0.2,0.2,0.3,0.2h0.3l0.3-0.2v-0.5c-0.1-0.1-0.2-0.2-0.3-0.2H51l-0.3,0.2V48z M50.8,50l-0.2,0.3l0.2,0.3l0.2,0.2h0.3
		l0.3-0.3v-0.2L51.3,50H51H50.8z M51,42.4l-0.2,0.2v0.2L51,43h0.3c0.1-0.1,0.2-0.2,0.2-0.3v-0.2l-0.3-0.3L51,42.4z M50.8,101.3v0.3
		H51l0.2,0.2c0.1,0,0.2,0,0.2-0.1s0-0.1,0.2-0.1v-0.5h-0.2h-0.2C50.9,101.1,50.8,101.2,50.8,101.3z M50.8,103.7v0.5l0.2,0.2h0.3
		c0.1-0.1,0.2-0.2,0.2-0.3v-0.3l-0.2-0.2H51L50.8,103.7z M51,40v0.2l0.2,0.2h0.2v-0.2V40l-0.2-0.2L51,40z M51,52.8l0.2,0.2h0.2v-0.2
		l-0.2-0.2L51,52.8z M51,106.4v0.2h0.2h0.2v-0.2l-0.2-0.2L51,106.4z M52,46.4v0.3c0.1,0.1,0.2,0.2,0.3,0.2h0.3
		c0.1-0.1,0.2-0.2,0.2-0.3v-0.2l-0.2-0.2h-0.3C52.2,46.2,52.1,46.3,52,46.4z M52,49.2c0.1,0.1,0.2,0.2,0.3,0.2h0.3l0.2-0.2v-0.5
		l-0.2-0.2h-0.3L52,48.8V49.2z M52.2,43.8v0.3l0.2,0.2h0.3V44v-0.2v-0.2h-0.3L52.2,43.8z M52.2,51.3v0.5h0.2h0.3v-0.3v-0.3h-0.3
		L52.2,51.3z M52.2,102.6v0.2l0.2,0.2h0.3v-0.2v-0.2v-0.3h-0.3L52.2,102.6z M52.3,41.5h0.2h0.2v-0.2v-0.2h-0.3v0.4H52.3z
		 M52.3,100.2l0.2,0.2h0.2v-0.2V100h-0.3v0.2H52.3z M52.3,105v0.2v0.2h0.3v-0.2L52.3,105L52.3,105z M53.2,47.7V48
		c0.1,0.1,0.2,0.2,0.3,0.2h0.3l0.3-0.3v-0.2c0-0.1,0-0.2-0.1-0.2s-0.1,0-0.1-0.2h-0.3h-0.2L53.2,47.7z M53.4,50l-0.2,0.3v0.2
		l0.3,0.3h0.3c0.2-0.2,0.3-0.4,0.3-0.5L54,50.1V50h-0.3H53.4z M53.4,45.2v0.3l0.2,0.2h0.3c0.1-0.1,0.2-0.2,0.2-0.3v-0.2
		c-0.1-0.1-0.2-0.2-0.2-0.3h-0.3L53.4,45.2z M53.4,101.3v0.2l0.2,0.2h0.3H54v-0.5h-0.2h-0.3L53.4,101.3z M53.4,103.8v0.2l0.2,0.2
		h0.2L54,104v-0.2l-0.2-0.2h-0.3L53.4,103.8z M53.6,42.6v0.3h0.2l0.2-0.2v-0.2v-0.2h-0.3v0.3H53.6z M53.6,52.8V53h0.2H54v-0.2
		l-0.2-0.2L53.6,52.8z M54.8,48.6l-0.2,0.3v0.2c0,0.1,0,0.2,0.2,0.3c0.1,0.1,0.2,0.1,0.2,0l0.3-0.2c0.1,0,0.2-0.1,0.2-0.3l-0.2-0.2
		v-0.2H55h-0.2V48.6z M54.8,46.4v0.2l0.2,0.3h0.2c0.1-0.1,0.2-0.2,0.2-0.3v-0.2c-0.1-0.1-0.2-0.2-0.3-0.2L54.8,46.4z M54.8,51.5v0.2
		l0.2,0.2l0.3-0.2v-0.3h-0.2L54.8,51.5L54.8,51.5z M54.8,102.6v0.2L55,103l0.3-0.2v-0.2l-0.2-0.2h-0.2L54.8,102.6z M54.9,43.8V44
		v0.2h0.2V44v-0.2H54.9z M54.9,100.1v0.2v0.2h0.2v-0.3V100h-0.2V100.1z M56,47.7v0.2l0.2,0.3h0.3c0.1-0.1,0.2-0.2,0.2-0.3v-0.2
		c-0.1,0-0.2,0-0.2-0.2l-0.2-0.2h-0.2L56,47.7z M56,50.3v0.2l0.2,0.2l0.2,0.2l0.3-0.3v-0.2c-0.1-0.1-0.2-0.2-0.2-0.3h-0.3L56,50.3z
		 M56.1,101.1l-0.2,0.3l0.2,0.2h0.2l0.3-0.2v-0.2c-0.1-0.1-0.2-0.2-0.3-0.2L56.1,101.1L56.1,101.1z M56.1,45.2v0.2l0.2,0.2h0.2v-0.2
		v-0.2L56.3,45L56.1,45.2z M57.3,46.4v0.2v0.2h0.3v-0.2v-0.2l-0.2-0.2L57.3,46.4z M57.3,48.8v0.5l0.2,0.2c0.1,0,0.2,0,0.2-0.1
		c0,0,0-0.1,0.2-0.1V49l-0.3-0.3L57.3,48.8z M57.3,51.5v0.2h0.3v-0.2v-0.2h-0.2L57.3,51.5z M57.3,100.1v0.2l0.2,0.2h0.2v-0.2v-0.2
		v-0.2h-0.2L57.3,100.1z M58.7,47.7v0.2V48H59v-0.2v-0.2l-0.2-0.2L58.7,47.7z M58.7,50.1v0.3v0.2H59v-0.2v-0.2L58.8,50h-0.1V50.1z
		 M58.7,98.7v0.2h0.2H59v-0.2H58.7L58.7,98.7z M59.9,49.1l0.2,0.2l0.2-0.2v-0.2L60,48.8L59.8,49v0.1H59.9z"/>
	
		<linearGradient id="SVGID_00000083771463348819764390000001241054396276223887_" gradientUnits="userSpaceOnUse" x1="210.9" y1="66.65" x2="429.0266" y2="66.65" gradientTransform="matrix(1 0 0 -1 0 128)">
		<stop  offset="0" style="stop-color:#63D2FF"/>
		<stop  offset="0.6682" style="stop-color:#63A7FF"/>
	</linearGradient>
	<path style="fill:url(#SVGID_00000083771463348819764390000001241054396276223887_);" d="M328.2,1.2c0.3,0,0.6,0,0.9,0
		s0.6,0.1,0.8,0.2c1.2-0.2,2.4-0.2,3.7-0.2c1.3,0.1,2.4,0.2,3.5,0.2c0.4,0,1,0,1.9-0.1c0.9,0,1.7-0.1,2.6-0.1s1.7,0,2.5,0
		s1.3,0,1.6,0c0.4,0.1,0.8,0.2,1.1,0.2c0.3,0.1,0.6,0.1,0.9,0.1s0.6,0,0.9-0.1c0.3,0,0.6-0.1,0.8-0.1c0.1,0.1,0.2,0.2,0.3,0.2h0.3
		c0.4,0.1,0.8,0.1,1.1,0.1c0.3,0,0.7-0.1,1.2-0.1c1.1,0,2.2,0.1,3.4,0.2c1.2,0.2,2.3,0.2,3.4,0.2c0.4,0,1,0,1.9,0.1
		c0.9,0.1,1.8,0.1,2.7,0.2c1,0.1,1.9,0.1,2.7,0.2c0.9,0.1,1.5,0.1,1.9,0.1l0.2,0.2c0.2,0,0.5,0,0.8-0.1c0.4,0,0.6,0,0.8,0.1
		c0.2,0,0.8,0.1,1.7,0.2c0.9,0.1,1.9,0.2,2.9,0.2c1.1,0.1,2.5,0.2,4.3,0.4h1.8c0.3,0,0.6,0.1,0.9,0.2c0.3,0.1,0.6,0.2,0.9,0.2
		c0.7,0,1.4,0,2.1,0s1.4,0.1,2,0.2c0.9,0.2,1.8,0.3,2.7,0.3c0.9,0,1.8,0,2.6,0c0.5,0,0.9,0.1,1.3,0.2s0.8,0.2,1.3,0.2h0.2
		c0.8,0,1.7,0,2.8,0c1.1,0,2,0.1,2.8,0.2l0.3,0.2c0.8,0,1.6,0,2.3,0.1c0.7,0.1,1.5,0.1,2.3,0.1c1.9,0,3.8,0,5.7,0.1
		c1.9,0.1,3.8,0.1,5.7,0.1c2,0,4,0,6-0.1c2,0,3.9-0.1,6-0.1h0.6c0,0.2,0,0.5,0.2,0.8c0.1,0.3,0.2,0.6,0.2,0.8c0,0.2,0,0.4-0.1,0.6
		s-0.1,0.4-0.1,0.6c-0.1,0.1-0.2,0.2-0.2,0.4s-0.1,0.3-0.2,0.4c-0.3,0.5-0.8,1-1.4,1.5c-0.7,0.5-1.3,0.9-1.9,1.1
		c-0.2,0.2-0.6,0.4-1.1,0.7s-0.9,0.4-1.2,0.5l-0.2,0.2c-0.5,0.1-1.2,0.4-2.1,0.8c-0.9,0.5-1.6,0.7-2,0.7c-0.5,0-0.9,0.1-1.1,0.3
		h-0.5l-0.2,0.2c-0.2,0-0.5,0.1-1,0.2s-0.8,0.2-1,0.1c-0.2,0.2-0.4,0.3-0.5,0.2c-0.1,0-0.3,0-0.5,0.1L414,15c-0.3,0-0.6,0-1,0.1
		s-0.6,0.1-0.8,0.1l-0.2,0.2l-0.5,0.2h-0.2c-0.2,0.1-0.8,0.2-1.7,0.4c-0.9,0.2-1.9,0.3-2.9,0.5c-1.1,0.2-2,0.4-2.9,0.5
		s-1.3,0.2-1.4,0.2c-0.1,0.1-0.4,0.2-0.9,0.2c-0.1,0-0.2,0-0.3,0.1c-0.1,0.1-0.2,0.1-0.3,0.1h-0.3l-0.3,0.2c-0.5-0.1-1,0-1.6,0.2
		s-1.1,0.3-1.6,0.2l-0.5,0.3c-0.2,0-0.6,0-1.1,0c-0.6,0-0.9,0.1-1.1,0.2l-0.8,0.2c-0.2,0.2-0.4,0.3-0.6,0.2
		c-0.2-0.1-0.4-0.2-0.6-0.2c-1.1,0-2.3,0.2-3.7,0.5c-1.4,0.3-2.7,0.4-4,0.3c-0.2,0.1-0.6,0.2-1.1,0.2c-0.6,0.1-1.2,0.1-2,0.1
		s-1.5,0-2.2,0s-1.2,0-1.5,0c-0.5,0-1.3,0.1-2.3,0.2s-1.7,0.1-2-0.2h-1.4l-0.2-0.2c-0.1,0-0.4,0-0.8-0.1c-0.4,0-0.8-0.1-1.3-0.2
		c-0.5,0-1.1-0.1-1.9-0.2c-0.3,0-0.8-0.2-1.4-0.5c-0.9,0.2-1.7,0.1-2.4-0.5c-0.4,0-0.9,0-1.5-0.1c-0.6,0-1.2-0.1-1.9-0.2
		c-0.7-0.1-1.3-0.2-1.8-0.4c-0.6-0.2-1-0.3-1.3-0.4c-0.6-0.2-1.3-0.2-2.1-0.2c-0.8,0.1-1.6,0.1-2.3,0c-0.1,0-0.2,0-0.2-0.1
		c-0.1,0-0.2-0.1-0.4-0.1c-0.2,0.1-0.4,0.2-0.7,0.2c-0.3,0-0.5,0.1-0.7,0.3l-0.6,0.2c-0.2,0.2-0.5,0.4-1,0.5
		c-0.5,0.2-0.9,0.3-1.3,0.5c-1.2,0.7-2.3,1.5-3.4,2.3s-2.1,1.6-3.2,2.4c0,0.2-0.4,0.6-1.1,1.1s-1.2,0.9-1.4,1.1
		c-1.8,1.7-3.6,3.5-5.4,5.3s-3.4,3.7-4.7,5.7c-0.2,0.3-0.5,0.5-0.8,0.6s-0.6,0.5-0.8,1.2c-0.2,0.1-0.8,0.9-1.9,2.3
		c-1.1,1.4-2.2,3-3.4,4.7c-1.2,1.7-2.3,3.3-3.3,4.8s-1.6,2.3-1.7,2.5c0,0.3-0.2,0.6-0.5,0.9l-0.2,0.5l-0.3,0.3
		c0,0.3-0.1,0.5-0.2,0.5l-0.2,0.3c-0.4,0.4-0.9,1.1-1.5,2.1s-1,1.8-1.2,2.3c-0.2,0.1-0.4,0.3-0.6,0.6s-0.3,0.6-0.3,0.8l-0.2,0.2v0.2
		c-0.2,0.2-0.5,0.7-1,1.4s-0.7,1.2-0.8,1.4c0,0.1-0.1,0.2-0.2,0.3c-0.1,0.1-0.2,0.3-0.3,0.5c-0.2,0.2-0.4,0.4-0.5,0.6v0.2l-0.2,0.3
		c-0.6,0.5-1,1.1-1.2,1.8c-0.2,0.7-0.6,1.3-1.2,1.8c-0.2,0.5-0.4,0.9-0.5,1.1c-0.1,0.3-0.4,0.5-0.8,0.8c-0.3,0.4-0.7,1-1.2,1.9
		s-1,1.8-1.6,2.7c-0.6,1-1.1,1.9-1.6,2.7c-0.5,0.9-0.9,1.4-1.2,1.7c-0.1,0.2-0.4,0.7-0.8,1.4c-0.4,0.7-0.7,1.1-0.9,1.2
		c-0.1,0.5-0.4,1-0.9,1.5s-0.9,1-1.1,1.5c-0.7,0.9-1.5,2.1-2.3,3.5c-0.9,1.5-1.7,2.4-2.5,2.9c-0.1,0.2-0.3,0.4-0.5,0.6l-4.4,5.4
		c-0.2,0.2-0.3,0.4-0.3,0.5s-0.1,0.3-0.2,0.5c-0.1,0.1-0.5,0.5-1.3,1.2s-1.6,1.5-2.4,2.3c-0.9,0.9-1.6,1.7-2.3,2.4
		c-0.7,0.8-1.1,1.2-1.1,1.3c-0.4,0.2-1.2,0.8-2.3,1.7c-1.1,0.9-1.9,1.6-2.4,2c-0.5,0.5-1.2,1.1-2.2,1.7c-1,0.7-2,1.3-3.1,2
		s-2.2,1.4-3.2,2c-1.1,0.6-1.9,1-2.5,1.2h-0.2c-0.2,0.1-0.4,0.2-0.5,0.3c-0.1,0.1-0.3,0.2-0.5,0.2l-2.1,1.1
		c-0.2,0.1-0.6,0.2-1.1,0.2s-0.9,0.1-1.1,0.2c-0.1,0.2-0.3,0.4-0.7,0.5c-0.4,0.1-0.6,0.2-0.8,0.3c-0.4,0-0.8,0.1-1.2,0.3
		c-0.1,0.1-0.2,0.2-0.4,0.2s-0.3,0.1-0.4,0.2c-0.2-0.1-0.5-0.1-0.8,0s-0.6,0.2-0.8,0.2c-0.2,0.1-0.5,0.2-0.8,0.2s-0.6,0.1-0.8,0.2
		c-0.3-0.1-0.9-0.1-1.7,0.1s-1.3,0.3-1.5,0.5c-0.8-0.1-1.5-0.1-2.2,0.1s-1.4,0.2-2.2,0.2h1.7c-0.6,0.1-1.2,0.2-1.8,0.2s-1.2,0-1.8,0
		c-0.8,0-1.6,0-2.4-0.1c-0.8-0.1-1.6-0.1-2.4-0.1c-0.4,0-0.8-0.1-1.1-0.2s-0.7-0.2-1.2-0.1c-0.2-0.2-0.4-0.3-0.7-0.3
		s-0.5-0.1-0.7-0.2c-1.1-0.2-2.2-0.5-3.2-0.8s-2-0.7-3-1.1c-1.2-0.4-2.5-1.1-4-2c-1.5-1-2.9-2.1-4.2-3.3c-1.4-1.3-2.5-2.6-3.5-4
		s-1.7-2.8-2.1-4.1c0-0.1-0.1-0.5-0.4-1.3c-0.2-0.8-0.4-1.2-0.5-1.3c-0.2-0.8-0.3-1.5-0.4-2c0-0.5-0.1-1-0.2-1.4
		c0-0.5-0.1-0.8-0.1-1c-0.1-0.8-0.2-1.5-0.2-2.1c-0.1-0.5-0.2-1-0.2-1.4c0-0.5,0-0.7,0-0.8l0.2-1.1c0.2-0.5,0.3-0.9,0.2-1.2
		c0-0.3-0.1-0.7-0.1-1.2l0.3-0.3c0-0.6,0.2-1.3,0.5-2.1v-0.5l0.3-0.6v-0.2c0.3-0.5,0.6-1.1,0.9-1.7c0.3-0.6,0.6-1.2,0.8-1.7
		c0-0.2,0.2-0.5,0.5-0.8c0.4-0.4,0.9-1,1.4-1.8c0.4-0.5,0.9-1,1.5-1.4s1.1-1,1.5-1.6c1-0.4,1.7-0.8,2.1-1.2c0.2-0.2,0.6-0.4,1.3-0.7
		c0.7-0.2,1-0.5,1.1-0.7c0.3-0.2,0.6-0.3,0.9-0.3s0.7,0,1.1-0.2c0.2-0.4,0.9-0.7,2.1-0.8c1.2-0.2,2-0.3,2.3-0.5h0.8
		c0.2-0.2,1-0.3,2.3-0.3s2.2,0,2.7,0c1.4,0,2.8,0,4.2,0.1s2.8,0.2,4.2,0.5c0.6,0.2,1.1,0.3,1.4,0.3c1.2,0.7,2.5,1.3,3.8,1.7
		c1.3,0.4,2.2,1.5,2.7,3.2c0.1,0.5,0.2,0.9,0.3,1.1s0.2,0.6,0.2,1.1c0,0.2-0.1,0.4-0.2,0.7c-0.1,0.3-0.2,0.5-0.3,0.7v0.3v0.2v0.3
		c-0.2,0.2-0.3,0.4-0.4,0.7c-0.1,0.3-0.2,0.5-0.4,0.7c-0.2,0-0.3,0.1-0.3,0.3c-0.2,0.3-0.3,0.6-0.4,1c-0.1,0.4-0.2,0.7-0.4,1v1.1
		c0,0.2,0,0.5,0,0.8c0,0.4,0.1,0.6,0.3,0.8V90c0.2,0.3,0.5,0.8,0.9,1.4c0.4,0.7,1,1,1.7,1h0.3c0.4,0.2,1,0.4,1.7,0.5
		c0.8,0.1,1.3,0.2,1.7,0.2c0.5,0,1.1,0,1.7,0s1.2,0,1.8-0.2c0.2-0.1,0.4-0.2,0.7-0.3c0.2-0.1,0.5-0.2,0.7-0.2h0.6
		c0.2,0,0.5,0,0.8-0.2c0.3-0.1,0.5-0.2,0.6-0.2c0.2-0.1,0.4-0.2,0.5-0.2s0.2-0.1,0.5-0.3c0.5-0.2,1.2-0.4,2.2-0.7
		c1-0.2,1.6-0.6,1.9-1.1h0.5c0.2-0.2,0.7-0.5,1.4-0.8c0.8-0.3,1.3-0.7,1.7-1.2c0.2-0.1,0.6-0.4,1.2-0.8s1.2-0.9,1.8-1.4
		c0.6-0.5,1.2-1,1.7-1.4c0.6-0.5,0.9-0.8,1.1-1c0.1-0.1,0.4-0.4,1-0.9s1.2-1.1,1.8-1.7c0.7-0.6,1.3-1.2,1.9-1.8s1.1-1,1.4-1.2
		c0.1-0.1,0.2-0.2,0.2-0.3c0-0.1,0-0.2,0.2-0.5c0.3-0.3,0.6-0.6,0.9-1s0.7-0.6,1.1-0.8l0.2-0.5l1.5-1.8c0.4-0.1,1.4-1.1,2.9-3.1
		s3.1-4.1,4.9-6.5s3.4-4.6,4.9-6.6c1.5-2.1,2.4-3.3,2.7-3.8c1.2-1.7,2.2-3.1,2.9-4.1c0.8-1.1,1.4-2,2-2.9s1-1.3,1.1-1.3
		c0.2-0.5,0.9-1.4,2-2.8c1.1-1.4,2.3-2.8,3.7-4.2c1.4-1.5,2.7-2.8,3.9-4.1c1.3-1.3,2.1-2.1,2.6-2.5c0.2-0.3,0.8-0.9,1.7-1.7
		c0.9-0.9,1.9-1.8,2.9-2.8c1.1-1,2.1-1.9,3.1-2.8s1.8-1.5,2.3-1.9c0.4-0.3,0.8-0.6,1.3-0.8c0.5-0.2,0.8-0.6,1.1-1.1h0.2l0.5-0.3
		c0.1-0.2,0.2-0.4,0.4-0.5s0.3-0.3,0.5-0.5l0.6-0.3c0.5-0.5,1-1.1,1.6-1.7s1.1-1.2,1.7-1.8c0-0.3,0.1-0.5,0.2-0.6
		c-0.1-0.1-0.5-0.2-1.1-0.4c-0.7-0.2-1.1-0.2-1.3-0.2c-0.1-0.1-0.4-0.2-0.9-0.2s-1.1-0.1-1.7-0.1s-1.2,0-1.7,0c-0.6,0-1,0-1.3,0
		c-0.5,0-1.2,0.1-2,0.2c-0.9,0.1-1.5,0.1-1.9,0c-0.3,0-0.6,0-0.9-0.1c-0.3,0-0.6-0.1-0.9-0.1c-0.3,0.2-0.7,0.3-1.1,0.2
		c-0.4,0-0.9-0.1-1.4-0.1c-1.1,0-2.2,0.1-3.3,0.3c-1.1,0.2-2.2,0.3-3.3,0.3c-0.2,0-0.4,0-0.5,0.1s-0.3,0.1-0.5,0.1h-0.3
		c-0.7,0-1.7,0.1-2.9,0.2c-1.3,0.2-2.3,0.3-3.1,0.4c-0.4,0.2-0.8,0.3-1.3,0.4c-0.5,0.1-0.9,0.1-1.4,0.1l-0.2,0.2l-0.6,0.2
		c-0.2,0.1-0.6,0.2-1.2,0.2c-0.6,0.1-1,0.1-1.1,0.1c-0.4,0.2-0.7,0.3-0.9,0.3c-0.3,0.2-1.1,0.4-2.3,0.5c-1.2,0.1-2.1,0.3-2.6,0.6
		h-0.6c-0.1,0.2-0.3,0.3-0.6,0.2c-0.3,0-0.6,0-0.8,0.2c-0.2,0-0.5,0.1-1,0.2s-0.8,0.3-1,0.5c-0.2-0.1-0.5-0.1-1,0.1s-0.8,0.3-1,0.5
		h-0.8c-0.2,0.2-0.5,0.3-0.8,0.3s-0.6,0.1-0.8,0.3h-0.3c-0.7,0.3-1.5,0.6-2.3,0.8c0,0.2-0.3,0.4-0.8,0.6c-0.6,0.2-1,0.3-1.2,0.3
		c-0.4,0.2-0.8,0.4-1.3,0.7c-0.5,0.3-0.9,0.4-1.4,0.5c-0.2,0.2-0.5,0.4-0.9,0.6s-0.8,0.4-1.1,0.6c-0.9,0.3-1.9,1-2.9,2
		c-1.1,1-2,1.9-2.8,2.6c-0.6,0.7-1.1,1.4-1.5,2.1s-0.9,1.5-1.4,2.3v0.3c-0.3,0.4-0.5,1-0.5,1.7c-0.1,0.7-0.1,1.3-0.1,1.8V38
		c0.4,0.4,0.5,0.8,0.3,1.1c0.2,0.6,0.8,1.3,1.9,2c1.1,0.8,1.8,1,2.3,0.8l0.3,0.2c0.5,0.1,1,0.2,1.6,0.2s1,0,1.4,0l0.2-0.2
		c0.5,0.1,1.4,0,2.6-0.5c1.3-0.4,2-0.6,2.2-0.6c0.1-0.1,0.4-0.2,1-0.4s1.2-0.3,1.8-0.5c0.7-0.2,1.3-0.3,1.8-0.5s0.8-0.3,0.8-0.4
		c0.2-0.1,0.6-0.2,1.1-0.3c0.6-0.1,0.9-0.2,1.1-0.3c0.4,0,0.8,0,1.1-0.1c0.4,0,0.8-0.1,1.3-0.1c0.2,0,0.6,0,1.2,0s1,0.1,1.1,0.2
		c0.1,0.1,0.2,0.4,0.5,0.8V41c0,0.4-0.2,1.2-0.5,2.3s-0.6,1.8-0.9,2l-0.2,0.5c-0.1,0-0.4,0.4-0.9,1.3c-0.5,0.9-0.9,1.4-1.1,1.6
		c-0.5,0.5-1.1,1.1-1.9,1.8s-1.6,1.4-2.5,2.2s-1.8,1.5-2.7,2.1c-0.9,0.7-1.7,1.1-2.3,1.3c-0.2,0.2-0.4,0.4-0.5,0.6
		c-0.2,0-0.4,0-0.5,0.1c-0.2,0.1-0.3,0.1-0.4,0.1c-0.2,0.1-0.9,0.5-2,1.1s-1.7,1-1.8,1.2c-0.7,0.1-1.4,0.4-2.2,0.8
		c-0.8,0.5-1.5,0.8-2.2,1c-0.2,0.2-0.4,0.3-0.6,0.3s-0.4,0.1-0.6,0.3H273c-0.7,0.2-1.3,0.4-1.7,0.6c-0.4,0.2-0.9,0.4-1.5,0.5
		c-0.9,0.3-1.6,0.5-2.1,0.7s-1,0.3-1.4,0.4c-0.5,0.1-0.7,0.2-0.8,0.2c-0.2,0.1-0.4,0.1-0.5,0c-0.2-0.1-0.3-0.1-0.5,0
		c-0.2,0.1-0.5,0.2-0.9,0.2h-0.2h-1.2h-2.9c-0.3-0.2-1-0.5-2-0.8c-1-0.4-1.7-0.6-2.1-0.7c-0.1,0-0.2,0-0.3-0.2
		c-0.1-0.1-0.3-0.2-0.5-0.3c-1.7-1.1-3.1-2.6-4.3-4.5s-1.7-3.9-1.7-5.9c0-0.4,0-1,0-1.7c0-0.8,0-1.5,0.2-2.3
		c0.1-0.8,0.2-1.5,0.3-2.1c0.1-0.7,0.3-1.1,0.6-1.4c0-0.2,0-0.4,0.1-0.7c0-0.2,0.1-0.5,0.1-0.7v-0.2c0-0.1,0-0.2,0.1-0.2
		c0,0,0.1,0,0.1-0.2l0.2-0.2c0.1-0.5,0.2-1,0.5-1.4c0.2-0.4,0.4-0.9,0.6-1.4c0.4-0.5,0.8-1.2,1.2-2.2s0.9-1.7,1.4-2.2
		c0.7-0.8,1.4-1.7,2.1-2.6c0.7-0.9,1.4-1.8,2.1-2.6c0.2-0.3,0.7-0.8,1.4-1.4c0.7-0.6,1.5-1.3,2.3-2s1.6-1.3,2.3-1.9
		c0.7-0.6,1.2-0.8,1.5-0.8c0.1-0.2,0.4-0.5,0.8-0.8c0.5-0.3,0.9-0.6,1.4-1s1-0.7,1.4-1c0.5-0.3,0.8-0.6,1-0.9h0.2
		c1.1-0.6,2.3-1.2,3.5-1.9c1.3-0.7,2.4-1.3,3.5-2c0.4-0.1,1.2-0.5,2.3-1.1c1.1-0.7,1.9-1.1,2.4-1.3c0.3,0,0.6,0,0.8-0.2
		c0.2-0.2,0.7-0.5,1.4-0.8c0.8-0.4,1.2-0.6,1.4-0.8h0.8l0.5-0.3c0.2,0,0.6-0.1,1.2-0.4c0.6-0.2,1-0.5,1.2-0.7c0.1,0,0.2,0,0.2-0.1
		c0,0,0.1-0.1,0.2-0.1l0.6-0.2c0.1-0.1,0.2-0.2,0.2-0.2s0.1,0,0.2-0.2c0.2,0,0.6-0.1,1.1-0.2c0.5-0.2,0.9-0.3,1.1-0.5h0.2
		c0.3-0.2,0.6-0.3,0.9-0.3s0.6-0.1,0.8-0.3h0.5c0.2-0.1,0.5-0.2,0.8-0.4c0.4-0.2,0.5-0.3,0.5-0.4c0.2-0.1,0.4-0.2,0.6-0.2
		c0.1-0.1,0.2-0.2,0.5-0.2c0.2,0,0.4,0,0.5,0c0.2-0.1,0.4-0.2,0.6-0.5c0.2,0,0.5,0,1-0.1c0.5,0,0.8-0.2,1-0.4c0.2,0,0.3,0,0.4-0.1
		c0,0,0.2-0.1,0.4-0.1c0.2-0.2,0.5-0.4,1-0.5s0.8-0.2,1-0.2c0.2-0.1,0.4-0.2,0.5-0.2c0.2,0,0.3-0.1,0.4-0.2l0.2-0.2
		c0.8-0.2,1.5-0.3,2.1-0.3c0.1-0.1,0.4-0.2,1-0.4c0.6-0.2,0.9-0.2,1.1-0.2l0.2-0.2c0.1,0,0.4-0.1,1-0.2c0.6-0.2,1.2-0.3,1.9-0.5
		c0.7-0.2,1.6-0.4,2.7-0.7h0.3l0.3-0.2c0.8-0.2,1.7-0.4,2.6-0.6s1.8-0.2,2.7-0.2c1-0.5,2.4-0.8,4.1-0.8
		C325.6,1.2,327.1,1.2,328.2,1.2z M221.2,92.3l0.2,0.2h0.2l0.2-0.2v-0.2h-0.2h-0.2C221.3,92.1,221.2,92.2,221.2,92.3z M221.2,94.5
		v0.3l0.2,0.2h0.2h0.2v-0.5h-0.2h-0.2H221.2z M221.2,97.3v0.2l0.2,0.2c0.2,0,0.3,0,0.3-0.2v-0.3h-0.3L221.2,97.3z M221.2,99.8v0.2
		l0.2,0.2h0.2V100v-0.2v-0.2h-0.2L221.2,99.8z M222.4,90.9v0.2l0.2,0.2l0.2,0.2h0.2l0.2-0.3V91l-0.2-0.2h-0.3L222.4,90.9z
		 M222.4,93.6v0.2l0.2,0.2h0.3l0.3-0.3v-0.2l-0.3-0.3h-0.3l-0.2,0.3V93.6z M222.4,96v0.2c0,0.1,0,0.2,0.2,0.3h0.3
		c0.2,0,0.3-0.1,0.3-0.3V96c0-0.1,0-0.2-0.1-0.2s-0.1,0-0.1-0.2h-0.3C222.5,95.7,222.4,95.8,222.4,96z M222.4,98.6v0.2V99l0.2,0.2
		h0.3l0.3-0.3v-0.2l-0.3-0.3h-0.3L222.4,98.6z M222.4,101.2v0.2c0.1,0.1,0.2,0.2,0.3,0.2h0.2l0.2-0.2v-0.2c0-0.1-0.1-0.2-0.2-0.2
		h-0.3L222.4,101.2z M222.6,88.4v0.2l0.2,0.2h0.2v-0.2v-0.2l-0.2-0.2L222.6,88.4z M222.6,103.7v0.2h0.2h0.2v-0.2v-0.2h-0.2
		L222.6,103.7z M223.5,92.3l0.2,0.2l0.2,0.2h0.3l0.3-0.2v-0.3c-0.1-0.1-0.2-0.2-0.3-0.2H224C223.6,92,223.5,92.1,223.5,92.3z
		 M223.5,94.7V95c0.1,0.1,0.2,0.2,0.3,0.2h0.5l0.2-0.2v-0.3v-0.2h-0.3h-0.3C223.6,94.5,223.5,94.6,223.5,94.7z M223.5,97.6l0.3,0.2
		h0.3c0.1,0,0.2,0,0.3-0.2v-0.3v-0.2l-0.2-0.2h-0.5l-0.3,0.2L223.5,97.6L223.5,97.6z M223.6,99.5l-0.2,0.3v0.2
		c0,0.2,0.2,0.3,0.5,0.3h0.2l0.3-0.2v-0.5c-0.1-0.1-0.2-0.2-0.3-0.2h-0.3L223.6,99.5L223.6,99.5z M223.6,89.7v0.2
		c0.1,0.1,0.2,0.2,0.3,0.2h0.3l0.2-0.2v-0.2l-0.3-0.3h-0.3L223.6,89.7z M223.6,102.4v0.3l0.2,0.2h0.3l0.2-0.2l0.2-0.3l-0.3-0.3h-0.3
		c0,0.1,0,0.2-0.1,0.2C223.7,102.2,223.6,102.3,223.6,102.4z M223.8,87.3l0.2,0.2h0.2l0.2-0.2l-0.2-0.3H224l-0.2,0.2V87.3z
		 M223.8,104.9v0.2l0.2,0.2h0.2l0.2-0.2v-0.2l-0.2-0.2H224L223.8,104.9z M224.8,91.2l0.2,0.2l0.3,0.2c0.1,0,0.2,0,0.2-0.1
		c0,0,0-0.1,0.2-0.1l0.2-0.2v-0.3v-0.2c-0.1-0.1-0.2-0.2-0.3-0.2h-0.3l-0.3,0.2v0.5H224.8z M225,93.2l-0.2,0.2v0.5l0.3,0.3h0.3
		l0.3-0.3v-0.5l-0.3-0.3h-0.2C225.1,93.1,225,93.1,225,93.2C225.1,93.2,225.1,93.2,225,93.2z M224.8,95.9v0.5l0.3,0.3h0.3l0.3-0.3
		v-0.5l-0.3-0.3h-0.3L224.8,95.9z M224.8,98.5V99l0.2,0.2l0.3,0.2c0.1,0,0.2,0,0.2-0.1c0,0,0-0.1,0.2-0.1c0.1-0.1,0.2-0.2,0.2-0.3
		v-0.3l-0.3-0.3h-0.3L224.8,98.5z M224.8,101v0.5c0.1,0.1,0.2,0.2,0.3,0.2h0.3h0.2l0.2-0.3v-0.2V101l-0.2-0.2l-0.3-0.2
		C225,101,224.8,101.1,224.8,101z M225,88.4v0.3c0,0.1,0.1,0.2,0.3,0.2h0.3c0-0.1,0-0.2,0.1-0.2c0,0,0.1,0,0.1-0.2v-0.2
		c0-0.2-0.1-0.3-0.3-0.3h-0.3C225,88.2,225,88.3,225,88.4z M225,103.9c0,0.1,0,0.2,0.2,0.2h0.3c0.2,0,0.3-0.1,0.3-0.2v-0.2
		c0-0.1,0-0.2-0.1-0.2s-0.1-0.1-0.1-0.2h-0.3l-0.3,0.2L225,103.9L225,103.9z M225.1,85.8V86l0.2,0.2h0.2v-0.3l-0.2-0.2L225.1,85.8z
		 M225.3,106.5h0.2l0.2-0.2l-0.2-0.2h-0.2l-0.2,0.2L225.3,106.5z M226,89.9l0.2,0.2l0.3,0.2c0.1,0,0.2,0,0.2-0.1c0,0,0-0.1,0.2-0.1
		l0.2-0.2v-0.2v-0.2c-0.1-0.1-0.2-0.2-0.3-0.2h-0.3l-0.3,0.2v0.4H226z M226,92.1v0.2c0,0.3,0.1,0.5,0.3,0.5h0.3l0.3-0.3v-0.3
		l-0.3-0.3h-0.3L226,92.1z M226,94.8c0,0.1,0.1,0.3,0.3,0.5h0.3l0.3-0.3v-0.5l-0.3-0.2h-0.3l-0.3,0.3V94.8z M226,97.4
		c0,0.1,0.1,0.3,0.3,0.5h0.3l0.3-0.3v-0.5l-0.3-0.2h-0.3c-0.2,0-0.3,0.1-0.3,0.3V97.4z M226,99.7v0.3v0.2l0.2,0.2
		c0.1,0,0.2,0,0.2,0.1c0,0,0,0.1,0.2,0.1h0.2l0.3-0.3v-0.5l-0.3-0.3h-0.3L226,99.7z M226.2,102.1l-0.2,0.2v0.5
		c0.1,0.1,0.2,0.2,0.3,0.2h0.3c0.1,0,0.2-0.1,0.3-0.2v-0.3v-0.2l-0.2-0.2l-0.3-0.2C226.3,101.9,226.2,101.9,226.2,102.1
		C226.3,102.1,226.3,102.1,226.2,102.1z M226.2,87.1v0.3h0.3h0.3c0.1,0,0.2-0.1,0.2-0.3l-0.3-0.3h-0.3L226.2,87.1z M226.2,105.2
		l0.2,0.2c0,0.1,0,0.1,0.2,0l0.3-0.2l0.2-0.2v-0.2c0-0.1,0-0.2-0.1-0.2s-0.1-0.1-0.1-0.2h-0.3l-0.3,0.2L226.2,105.2L226.2,105.2z
		 M226.3,107.7l0.2,0.2h0.2l0.2-0.2v-0.2l-0.2-0.2h-0.2l-0.2,0.2V107.7z M226.5,84.7h0.2l-0.2-0.2V84.7z M227.4,88.7l0.2,0.2
		l0.3,0.2c0.1,0,0.2,0,0.2-0.1c0,0,0-0.1,0.2-0.1l0.2-0.2v-0.3v-0.2c-0.1-0.1-0.2-0.2-0.3-0.2h-0.3l-0.3,0.2v0.5H227.4z M227.4,90.9
		v0.2c0,0.1,0.1,0.3,0.3,0.5h0.3l0.3-0.3v-0.5l-0.3-0.3h-0.3C227.5,90.7,227.4,90.8,227.4,90.9z M227.4,93.5v0.2
		c0,0.1,0.1,0.3,0.3,0.5h0.3l0.3-0.3v-0.5L228,93h-0.3C227.5,93.2,227.4,93.4,227.4,93.5z M227.4,96v0.2c0,0.1,0.1,0.3,0.3,0.5h0.3
		l0.3-0.3v-0.5l-0.3-0.3h-0.3C227.5,95.8,227.4,95.9,227.4,96z M227.4,98.6v0.2c0,0.1,0.1,0.3,0.3,0.5h0.3l0.3-0.3v-0.5l-0.3-0.3
		h-0.3C227.5,98.4,227.4,98.5,227.4,98.6z M227.4,101.2v0.2c0,0.2,0.1,0.3,0.3,0.3h0.3l0.3-0.2V101l-0.3-0.3h-0.3
		C227.5,100.9,227.4,101.1,227.4,101.2z M227.5,103.4l-0.2,0.2v0.5h0.3h0.5h0.2v-0.3v-0.2l-0.2-0.2l-0.3-0.2c-0.1,0-0.2,0-0.2,0.1
		C227.7,103.4,227.6,103.4,227.5,103.4z M227.5,85.6v0.3v0.2l0.2,0.2h0.3l0.2-0.2v-0.3l-0.2-0.2h-0.3H227.5z M227.5,106.3l0.2,0.3
		h0.3c0.2,0,0.3-0.1,0.3-0.3c0-0.1,0-0.2-0.1-0.2s-0.1-0.1-0.1-0.2h-0.3l-0.3,0.2L227.5,106.3L227.5,106.3z M227.7,108.7v0.2h0.2
		h0.2v-0.2h-0.2H227.7z M228.6,87.1v0.3h0.3h0.5h0.2V87c-0.1-0.1-0.2-0.2-0.3-0.2H229L228.6,87.1z M228.6,89.6v0.2V90l0.2,0.2
		c0,0.1,0,0.2,0.2,0.2h0.3l0.3-0.3v-0.3l-0.3-0.3H229L228.6,89.6z M228.6,92.1v0.2c0,0.1,0.1,0.3,0.3,0.5h0.3l0.3-0.3v-0.3l-0.3-0.3
		h-0.3L228.6,92.1z M228.6,94.8c0,0.1,0.1,0.3,0.3,0.5h0.3l0.3-0.3v-0.5l-0.3-0.2h-0.3l-0.3,0.3V94.8z M228.6,97.3v0.2
		c0,0.1,0.1,0.3,0.3,0.5h0.3l0.3-0.3v-0.5l-0.3-0.2h-0.3C228.7,96.9,228.6,97.1,228.6,97.3z M228.6,99.8v0.2c0,0.1,0.1,0.2,0.3,0.5
		h0.3l0.3-0.3v-0.5l-0.3-0.3h-0.3C228.7,99.6,228.6,99.7,228.6,99.8z M228.6,102.4v0.2c0,0.1,0.1,0.2,0.3,0.5h0.3l0.3-0.3v-0.5
		l-0.3-0.3h-0.3C228.7,102.1,228.6,102.3,228.6,102.4z M228.8,104.6l-0.2,0.2v0.5c0.1,0.1,0.2,0.2,0.3,0.2h0.3
		c0.1,0,0.2-0.1,0.3-0.2V105v-0.2l-0.2-0.2l-0.3-0.2C228.9,104.4,228.8,104.4,228.8,104.6C228.9,104.6,228.9,104.6,228.8,104.6z
		 M228.9,84.4l-0.2,0.3l0.2,0.2h0.3h0.2v-0.3c0-0.1-0.1-0.2-0.3-0.2H228.9z M228.8,107.7l0.2,0.3h0.3l0.2-0.2l0.2-0.3l-0.2-0.3h-0.3
		l-0.3,0.2L228.8,107.7L228.8,107.7z M229.1,110.2l0.2-0.2h-0.2V110.2z M230,85.9l0.2,0.2l0.2,0.2h0.3c0.1-0.1,0.2-0.2,0.2-0.3v-0.2
		l-0.2-0.3h-0.3C230.1,85.7,230,85.8,230,85.9z M230.1,88l-0.2,0.2v0.3v0.2l0.3,0.3h0.3l0.2-0.3v-0.5l-0.2-0.2l-0.2-0.2
		C230.2,87.8,230.1,87.8,230.1,88C230.3,88,230.2,88,230.1,88z M230,90.9v0.2c0,0.1,0.1,0.3,0.3,0.5h0.3l0.2-0.3v-0.5l-0.2-0.3h-0.3
		C230.1,90.7,230,90.8,230,90.9z M230,93.5v0.2c0,0.1,0.1,0.3,0.3,0.5h0.3l0.2-0.3v-0.5l-0.2-0.3h-0.3C230.1,93.2,230,93.4,230,93.5
		z M230,96v0.2c0,0.1,0.1,0.3,0.3,0.5h0.3l0.2-0.3v-0.5l-0.2-0.3h-0.3C230.1,95.8,230,95.9,230,96z M230,98.6v0.2
		c0,0.1,0.1,0.3,0.3,0.5h0.3l0.2-0.3v-0.5l-0.2-0.3h-0.3C230.1,98.4,230,98.5,230,98.6z M230,101.2v0.2c0,0.2,0.1,0.3,0.3,0.3h0.3
		l0.2-0.2V101l-0.2-0.3h-0.3C230.1,100.9,230,101.1,230,101.2z M230,103.7v0.2l0.2,0.2c0.1,0,0.2,0,0.2,0.1c0,0,0,0.1,0.2,0.1h0.2
		l0.2-0.2v-0.5l-0.2-0.3h-0.3C230.1,103.5,230,103.6,230,103.7z M230.1,106l-0.2,0.2v0.3c0.1,0.1,0.2,0.2,0.3,0.2h0.3l0.2-0.2v-0.3
		l-0.2-0.2l-0.2-0.2L230.1,106z M230.1,108.7v0.2l0.2,0.2h0.3v-0.2v-0.2v-0.2h-0.3L230.1,108.7z M230.3,83.4h0.2h0.2v-0.2h-0.2
		L230.3,83.4z M231.3,86.8l-0.2,0.2v0.5h0.2l0.3,0.2h0.2c0-0.1,0-0.2,0.2-0.2c0.1,0,0.2,0,0.2-0.2v-0.2V87l-0.2-0.2l-0.3-0.2
		L231.3,86.8z M231.2,89.7v0.2l0.3,0.3h0.3l0.3-0.3v-0.3l-0.3-0.3h-0.3C231.3,89.5,231.2,89.6,231.2,89.7z M231.2,92.1v0.2
		c0,0.1,0.1,0.3,0.3,0.5h0.3l0.3-0.3v-0.3l-0.3-0.3h-0.3L231.2,92.1z M231.2,94.8c0,0.1,0.1,0.3,0.3,0.5h0.3l0.3-0.3v-0.5l-0.3-0.2
		h-0.3l-0.3,0.3V94.8z M231.2,97.3v0.2c0,0.1,0.1,0.3,0.3,0.5h0.3l0.3-0.3v-0.5l-0.3-0.2h-0.3C231.3,96.9,231.2,97.1,231.2,97.3z
		 M231.2,99.8v0.2c0,0.1,0.1,0.2,0.3,0.5h0.3l0.3-0.3v-0.5l-0.3-0.3h-0.3C231.3,99.6,231.2,99.7,231.2,99.8z M231.2,102.4v0.2
		c0,0.1,0.1,0.2,0.3,0.5h0.3l0.3-0.3v-0.5l-0.3-0.3h-0.3C231.3,102.1,231.2,102.3,231.2,102.4z M231.2,104.8v0.3v0.2l0.2,0.2
		c0.1,0,0.2,0,0.2,0.1c0,0,0,0.1,0.2,0.1h0.2l0.3-0.3v-0.5l-0.3-0.3h-0.3L231.2,104.8z M231.2,107.7l0.3,0.3h0.3
		c0.1,0,0.2,0,0.2-0.1s0-0.1,0.2-0.1v-0.5c-0.1-0.1-0.2-0.2-0.3-0.2h-0.3l-0.3,0.2L231.2,107.7L231.2,107.7z M231.3,84.4v0.5
		l0.2,0.2h0.3c0.1-0.1,0.2-0.2,0.2-0.3v-0.2l-0.2-0.2h-0.3H231.3z M231.5,109.9v0.3v0.2h0.3l0.2-0.2V110l-0.2-0.2h-0.2L231.5,109.9
		L231.5,109.9z M232.7,85.5c0,0.1,0,0.2-0.1,0.2s-0.1,0.1-0.1,0.2v0.3c0.1,0.1,0.2,0.2,0.3,0.2h0.2l0.3-0.2v-0.5l-0.3-0.2H232.7z
		 M232.5,88.4v0.2c0,0.1,0.1,0.3,0.3,0.5h0.2l0.3-0.3v-0.5L233,88h-0.2C232.6,88.1,232.5,88.3,232.5,88.4z M232.5,90.9v0.2
		c0,0.1,0.1,0.3,0.3,0.5h0.2l0.3-0.3v-0.5l-0.3-0.3h-0.2C232.6,90.7,232.5,90.8,232.5,90.9z M232.5,93.5v0.2c0,0.1,0.1,0.3,0.3,0.5
		h0.2l0.3-0.3v-0.5L233,93h-0.2C232.6,93.2,232.5,93.4,232.5,93.5z M232.5,96v0.2c0,0.1,0.1,0.3,0.3,0.5h0.2l0.3-0.3v-0.5l-0.3-0.3
		h-0.2C232.6,95.8,232.5,95.9,232.5,96z M232.5,98.6v0.2c0,0.1,0.1,0.3,0.3,0.5h0.2l0.3-0.3v-0.5l-0.3-0.3h-0.2
		C232.6,98.4,232.5,98.5,232.5,98.6z M232.5,101.2v0.2c0,0.2,0.1,0.3,0.3,0.3h0.2l0.3-0.2V101l-0.3-0.3h-0.2
		C232.6,100.9,232.5,101.1,232.5,101.2z M232.5,103.7v0.2l0.3,0.3h0.2l0.3-0.2v-0.5l-0.3-0.3h-0.2
		C232.6,103.5,232.5,103.6,232.5,103.7z M232.5,106.2v0.3l0.2,0.2l0.3,0.2c0-0.1,0-0.2,0.2-0.2c0.1-0.1,0.2-0.2,0.2-0.3
		c0-0.1-0.1-0.3-0.3-0.5h-0.2L232.5,106.2z M232.7,108.7v0.3l0.2,0.2h0.2l0.3-0.3v-0.2l-0.3-0.2h-0.2L232.7,108.7z M232.8,83.4
		l0.2,0.2v-0.2v-0.2V83l-0.2,0.2V83.4z M232.8,111.3l0.2,0.2v-0.2v-0.2L232.8,111.3z M233.9,86.8l-0.2,0.2v0.2v0.2
		c0,0.2,0.1,0.3,0.3,0.3h0.3l0.3-0.2v-0.3l-0.2-0.3l-0.3-0.2C234,86.7,233.9,86.7,233.9,86.8C234,86.8,234,86.8,233.9,86.8z
		 M233.7,89.7v0.2l0.3,0.3h0.3l0.3-0.3v-0.3l-0.3-0.3H234C233.8,89.5,233.7,89.6,233.7,89.7z M233.7,92.1v0.2c0,0.1,0.1,0.3,0.3,0.5
		h0.3l0.3-0.3v-0.3l-0.3-0.3H234L233.7,92.1z M233.7,94.8c0,0.1,0.1,0.3,0.3,0.5h0.3l0.3-0.3v-0.5l-0.3-0.2H234l-0.3,0.3V94.8z
		 M233.7,97.3v0.2c0,0.1,0.1,0.3,0.3,0.5h0.3l0.3-0.3v-0.5l-0.3-0.2H234C233.8,96.9,233.7,97.1,233.7,97.3z M233.7,99.8v0.2
		c0,0.1,0.1,0.2,0.3,0.5h0.3l0.3-0.3v-0.5l-0.3-0.3H234C233.8,99.6,233.7,99.7,233.7,99.8z M233.7,102.4v0.2c0,0.1,0.1,0.2,0.3,0.5
		h0.3l0.3-0.3v-0.5l-0.3-0.3H234C233.8,102.1,233.7,102.3,233.7,102.4z M233.7,104.9v0.2c0,0.1,0.1,0.2,0.3,0.5h0.3l0.3-0.3v-0.5
		l-0.3-0.3H234C233.8,104.7,233.7,104.8,233.7,104.9z M233.9,107.2l-0.2,0.2v0.5c0.1,0.1,0.2,0.2,0.3,0.2h0.5l0.2-0.2v-0.3v-0.2
		l-0.2-0.2l-0.3-0.2c-0.1,0-0.2,0-0.2,0.1S234,107.2,233.9,107.2z M234,84.4l-0.2,0.2v0.2c0,0.1,0,0.2,0.2,0.3h0.2l0.3-0.2v-0.3
		c0-0.2-0.1-0.3-0.3-0.3L234,84.4z M233.9,109.9v0.3l0.2,0.2h0.3l0.2-0.2V110c0-0.2-0.1-0.3-0.2-0.3H234L233.9,109.9z M235.1,85.8
		v0.3l0.2,0.2l0.2,0.2l0.3-0.2l0.2-0.2v-0.5c-0.1,0-0.2,0-0.2-0.1c0,0-0.1-0.1-0.2-0.1h-0.2L235.1,85.8z M235.1,88.4v0.2
		c0,0.1,0.1,0.3,0.3,0.5h0.2l0.3-0.3v-0.5l-0.3-0.3h-0.2C235.2,88.1,235.1,88.3,235.1,88.4z M235.1,90.9v0.2c0,0.1,0.1,0.3,0.3,0.5
		h0.2l0.3-0.3v-0.5l-0.3-0.3h-0.2C235.2,90.7,235.1,90.8,235.1,90.9z M235.1,93.5v0.2c0,0.1,0.1,0.3,0.3,0.5h0.2l0.3-0.3v-0.5
		l-0.3-0.3h-0.2C235.2,93.2,235.1,93.4,235.1,93.5z M235.1,96v0.2c0,0.1,0.1,0.3,0.3,0.5h0.2l0.3-0.3v-0.5l-0.3-0.3h-0.2
		C235.2,95.8,235.1,95.9,235.1,96z M235.1,98.6v0.2c0,0.1,0.1,0.3,0.3,0.5h0.2l0.3-0.3v-0.5l-0.3-0.3h-0.2
		C235.2,98.4,235.1,98.5,235.1,98.6z M235.1,101.2v0.2c0,0.2,0.1,0.3,0.3,0.3h0.2l0.3-0.2V101l-0.3-0.3h-0.2
		C235.2,100.9,235.1,101.1,235.1,101.2z M235.1,103.7v0.2l0.3,0.3h0.2l0.3-0.2v-0.5l-0.3-0.3h-0.2
		C235.2,103.5,235.1,103.6,235.1,103.7z M235.1,106.3c0,0.1,0.1,0.2,0.3,0.5h0.2l0.3-0.3v-0.3l-0.3-0.3h-0.2
		C235.2,106,235.1,106.2,235.1,106.3z M235.1,109c0.1,0,0.2,0,0.2,0.1c0,0,0,0.1,0.2,0.1h0.2c0.1,0,0.2,0,0.2-0.1s0-0.1,0.2-0.1
		v-0.3c-0.1-0.1-0.2-0.2-0.3-0.2h-0.2l-0.3,0.2v0.3H235.1z M235.4,83.2v0.3h0.2l0.2-0.2l-0.2-0.3h-0.2V83.2z M235.4,111.3v0.2v0.2
		h0.2l0.2-0.3l-0.2-0.2h-0.2V111.3z M236.4,86.8c-0.1,0.1-0.2,0.2-0.2,0.3v0.2l0.3,0.3h0.3l0.3-0.2v-0.3l-0.2-0.3l-0.3-0.2
		C236.5,86.6,236.4,86.6,236.4,86.8C236.6,86.8,236.5,86.8,236.4,86.8z M236.3,89.7v0.2l0.3,0.3h0.3l0.3-0.3v-0.3l-0.3-0.3h-0.3
		C236.4,89.5,236.3,89.6,236.3,89.7z M236.3,92.1v0.2c0,0.1,0.1,0.3,0.3,0.5h0.3l0.3-0.3v-0.3l-0.3-0.3h-0.3L236.3,92.1z
		 M236.3,94.8c0,0.1,0.1,0.3,0.3,0.5h0.3l0.3-0.3v-0.5l-0.3-0.2h-0.3l-0.3,0.3V94.8z M236.3,97.3v0.2c0,0.1,0.1,0.3,0.3,0.5h0.3
		l0.3-0.3v-0.5l-0.3-0.2h-0.3C236.4,96.9,236.3,97.1,236.3,97.3z M236.3,99.8v0.2c0,0.1,0.1,0.2,0.3,0.5h0.3l0.3-0.3v-0.5l-0.3-0.3
		h-0.3C236.4,99.6,236.3,99.7,236.3,99.8z M236.3,102.4v0.2c0,0.1,0.1,0.2,0.3,0.5h0.3l0.3-0.3v-0.5l-0.3-0.3h-0.3
		C236.4,102.1,236.3,102.3,236.3,102.4z M236.3,104.9v0.2c0,0.1,0.1,0.2,0.3,0.5h0.3l0.3-0.3v-0.5l-0.3-0.3h-0.3
		C236.4,104.7,236.3,104.8,236.3,104.9z M236.3,107.4v0.3l0.2,0.3l0.3,0.2c0.1,0,0.2,0,0.2-0.1s0-0.1,0.2-0.1
		c0.1-0.1,0.2-0.2,0.2-0.3v-0.3l-0.3-0.3h-0.3L236.3,107.4z M236.4,84.6v0.3c0.1,0.1,0.2,0.2,0.3,0.2l0.3-0.2v-0.3
		c0-0.2-0.1-0.3-0.3-0.3h-0.2L236.4,84.6z M236.4,110.2l0.2,0.3h0.3l0.2-0.2l0.2-0.3l-0.2-0.2v-0.2h-0.3l-0.3,0.2L236.4,110.2
		L236.4,110.2z M237.7,85.5v0.3v0.3c0,0.1,0,0.2,0.2,0.2h0.3c0.2,0,0.3-0.1,0.3-0.3v-0.2l-0.2-0.2v-0.2H238L237.7,85.5L237.7,85.5z
		 M237.7,88v0.2v0.3v0.2L238,89c0.1,0,0.2,0,0.2-0.1c0,0,0-0.1,0.2-0.1l0.2-0.2v-0.5l-0.2-0.2l-0.3-0.2c-0.1,0-0.2,0-0.2,0.1
		C237.8,88,237.8,88,237.7,88z M237.7,90.6v0.3v0.2v0.3l0.3,0.2c0.1,0,0.2,0,0.2-0.1c0,0,0-0.1,0.2-0.1l0.2-0.2v-0.3v-0.2l-0.2-0.2
		l-0.3-0.2c-0.1,0-0.2,0-0.2,0.1C237.8,90.6,237.8,90.6,237.7,90.6z M237.7,93.5v0.2V94l0.3,0.2c0.1,0,0.2,0,0.2-0.1
		c0,0,0-0.1,0.2-0.1l0.2-0.2v-0.3v-0.2l-0.2-0.2c-0.1,0-0.2,0-0.2-0.1c0,0-0.1-0.1-0.2-0.1h-0.2C237.7,93,237.7,93.2,237.7,93.5z
		 M237.7,96v0.2c0,0.2,0,0.4,0.2,0.5h0.3c0.2-0.2,0.3-0.4,0.3-0.5V96c0-0.1-0.1-0.2-0.3-0.5h-0.3C237.7,95.7,237.7,95.8,237.7,96z
		 M237.7,98.6v0.2c0,0.2,0,0.4,0.2,0.5h0.3l0.3-0.3v-0.5l-0.3-0.3h-0.3C237.7,98.3,237.7,98.4,237.7,98.6z M237.7,101.2v0.2
		c0,0.2,0,0.3,0.2,0.3h0.3l0.3-0.2V101l-0.3-0.3h-0.3C237.7,100.8,237.7,101,237.7,101.2z M237.7,103.7v0.2c0,0.1,0,0.2,0.2,0.3h0.3
		l0.3-0.2v-0.5l-0.3-0.3h-0.3C237.7,103.4,237.7,103.5,237.7,103.7z M237.7,106.3c0,0.2,0,0.4,0.2,0.5h0.3l0.3-0.3v-0.3l-0.3-0.3
		h-0.3C237.7,105.9,237.7,106.1,237.7,106.3z M237.7,108.6v0.2v0.3c0,0.1,0,0.2,0.2,0.2h0.3h0.2l0.2-0.3v-0.2l-0.2-0.2l-0.3-0.2
		c-0.1,0-0.2,0-0.2,0.1C237.8,108.5,237.8,108.6,237.7,108.6z M237.7,111.3v0.2l0.2,0.2h0.2l0.3-0.2v-0.3h-0.2h-0.3L237.7,111.3z
		 M237.8,83.2v0.2v0.2h0.2l0.2-0.2v-0.2L238,83L237.8,83.2z M239,86.8c0,0.1,0,0.2-0.1,0.2s-0.1,0.1-0.1,0.2v0.3h0.3h0.2
		c0.3,0,0.5-0.1,0.5-0.3c0-0.2-0.2-0.3-0.5-0.3L239,86.8L239,86.8z M238.9,89.9c0.1,0.1,0.2,0.2,0.3,0.2h0.3c0.1,0,0.2,0,0.2-0.1
		c0,0,0-0.1,0.2-0.1v-0.2l-0.3-0.3h-0.3l-0.3,0.2L238.9,89.9L238.9,89.9z M238.9,92.4c0.1,0.1,0.2,0.2,0.3,0.2h0.3
		c0.2,0,0.3-0.1,0.3-0.3v-0.2c-0.1-0.1-0.2-0.2-0.3-0.2h-0.3l-0.3,0.2V92.4z M238.9,94.5V95c0.1,0.1,0.2,0.2,0.3,0.2h0.3l0.3-0.2
		v-0.5h-0.3h-0.3H238.9z M239,96.9l-0.2,0.2v0.5l0.2,0.2l0.3,0.2c0.1,0,0.2,0,0.2-0.1c0,0,0-0.1,0.2-0.1l0.2-0.2v-0.3v-0.2l-0.2-0.2
		h-0.3H239z M238.9,99.8v0.2c0,0.1,0.1,0.2,0.3,0.5h0.3c0.2-0.2,0.3-0.4,0.3-0.5v-0.2c0-0.1-0.1-0.3-0.3-0.5h-0.3
		C239,99.6,238.9,99.7,238.9,99.8z M238.9,102.4v0.2c0,0.1,0.1,0.2,0.3,0.5h0.3l0.3-0.3v-0.5l-0.3-0.3h-0.3
		C239,102.1,238.9,102.3,238.9,102.4z M238.9,104.9v0.2c0,0.1,0.1,0.2,0.3,0.5h0.3l0.3-0.3v-0.5l-0.3-0.3h-0.3
		C239,104.7,238.9,104.8,238.9,104.9z M238.9,107.5v0.2c0,0.1,0.1,0.2,0.3,0.5h0.3l0.3-0.3v-0.5l-0.3-0.3h-0.3
		C239,107.3,238.9,107.4,238.9,107.5z M239,109.8l-0.2,0.3l0.2,0.3l0.2,0.2h0.3l0.3-0.3v-0.2l-0.2-0.2c-0.1,0-0.2-0.1-0.2-0.2h-0.3
		L239,109.8L239,109.8z M239,84.6v0.3h0.2h0.3h0.2v-0.3c-0.1-0.1-0.2-0.2-0.3-0.2C239.1,84.4,239,84.5,239,84.6z M239.3,112.8
		l0.2-0.2h-0.2V112.8z M240.1,93.6c0,0.2,0.2,0.3,0.5,0.3l0.3-0.2l0.2-0.3c-0.2-0.2-0.4-0.3-0.5-0.3
		C240.2,93.2,240.1,93.3,240.1,93.6z M240.1,96.3c0.1,0.1,0.2,0.2,0.3,0.2h0.3c0.2,0,0.3-0.1,0.3-0.3V96l-0.3-0.3h-0.3l-0.3,0.2
		V96.3z M240.1,98.5V99l0.2,0.2l0.3,0.2c0.1,0,0.2,0,0.2-0.1c0,0,0-0.1,0.2-0.1l0.2-0.2v-0.5c-0.1-0.1-0.2-0.2-0.3-0.2h-0.5
		L240.1,98.5z M240.1,101.2v0.2c0,0.2,0.1,0.3,0.3,0.3h0.3c0.2,0,0.3-0.1,0.3-0.3v-0.2V101l-0.3-0.3h-0.3
		C240.2,100.9,240.1,101.1,240.1,101.2z M240.1,103.7v0.2l0.3,0.3h0.3l0.3-0.2v-0.5l-0.3-0.3h-0.3
		C240.2,103.5,240.1,103.6,240.1,103.7z M240.1,106.3c0,0.1,0.1,0.2,0.3,0.5h0.3l0.3-0.3v-0.3l-0.3-0.3h-0.3
		C240.2,106,240.1,106.2,240.1,106.3z M240.1,108.7v0.3c0.1,0.1,0.2,0.2,0.3,0.2h0.3h0.2l0.2-0.3v-0.2l-0.3-0.3h-0.3L240.1,108.7z
		 M240.2,85.8v0.3h0.2h0.3l0.2-0.2v-0.2c-0.1-0.1-0.2-0.2-0.3-0.2C240.3,85.6,240.2,85.7,240.2,85.8z M240.2,88.4v0.2l0.2,0.3h0.3
		l0.2-0.2v-0.5c-0.1-0.1-0.2-0.2-0.3-0.2h-0.2L240.2,88.4z M240.2,90.8v0.5l0.2,0.2h0.3c0.1-0.1,0.2-0.2,0.2-0.3V91
		c-0.1-0.1-0.2-0.2-0.2-0.3h-0.3L240.2,90.8z M240.4,111.1h-0.2v0.3c0,0.1,0.1,0.2,0.3,0.2s0.3-0.1,0.3-0.2v-0.3h-0.3H240.4z
		 M241.6,96.9c0,0.1,0,0.2-0.1,0.2s-0.1,0.1-0.1,0.2v0.3c0.1,0,0.2,0,0.2,0.1s0,0.1,0.2,0.1h0.3c0.1,0,0.2,0,0.2-0.2
		c0.1,0,0.2-0.1,0.2-0.3l-0.2-0.2v-0.2H242H241.6z M241.4,100.1l0.2,0.2l0.3,0.2l0.3-0.2l0.2-0.2v-0.5c-0.1-0.1-0.2-0.2-0.3-0.2
		h-0.3l-0.3,0.2L241.4,100.1L241.4,100.1z M241.4,102.4v0.2c0,0.1,0.1,0.2,0.3,0.5h0.3c0.2-0.2,0.3-0.4,0.3-0.5v-0.2
		c0-0.1-0.1-0.3-0.3-0.5h-0.3C241.5,102.1,241.4,102.3,241.4,102.4z M241.4,104.9v0.2c0,0.1,0.1,0.2,0.3,0.5h0.3l0.3-0.3v-0.5
		l-0.3-0.3h-0.3C241.5,104.7,241.4,104.8,241.4,104.9z M241.4,107.5v0.2c0,0.1,0.1,0.2,0.3,0.5h0.3l0.3-0.3v-0.5l-0.3-0.3h-0.3
		C241.5,107.3,241.4,107.4,241.4,107.5z M241.6,109.9c-0.1,0-0.2,0.1-0.2,0.3l0.3,0.3h0.3l0.3-0.3V110c0-0.2-0.1-0.3-0.3-0.3h-0.3
		L241.6,109.9z M241.6,92.1v0.3h0.2h0.3l0.2-0.2V92H242L241.6,92.1L241.6,92.1z M241.6,94.7V95l0.2,0.2h0.3l0.2-0.3v-0.2
		c-0.1-0.1-0.2-0.2-0.3-0.2h-0.2L241.6,94.7z M241.7,87.1v0.2h0.2h0.2v-0.2H241.7z M241.7,89.7v0.2h0.3v-0.2v-0.2h-0.3V89.7z
		 M241.9,112.8l0.2-0.2h-0.2V112.8z M242.6,98.8l0.2,0.2v0.2h0.3h0.3V99c0.1,0,0.2-0.1,0.2-0.3c0-0.2-0.2-0.3-0.5-0.3
		S242.6,98.5,242.6,98.8z M242.6,101.5l0.2,0.2h0.3h0.3l0.2-0.2V101c-0.1-0.1-0.2-0.2-0.3-0.2H243l-0.3,0.2L242.6,101.5L242.6,101.5
		z M242.6,103.7v0.2l0.3,0.3h0.3l0.3-0.2v-0.3c0-0.1-0.1-0.3-0.3-0.5h-0.3C242.7,103.5,242.6,103.6,242.6,103.7z M242.6,106.3
		c0,0.1,0.1,0.2,0.3,0.5h0.3l0.3-0.3v-0.3l-0.3-0.3h-0.3C242.7,106,242.6,106.2,242.6,106.3z M242.6,108.7v0.3
		c0.1,0.1,0.2,0.2,0.3,0.2h0.3h0.2l0.2-0.3v-0.2l-0.3-0.3H243L242.6,108.7z M242.8,95.9v0.5h0.2l0.2,0.2c0.1,0,0.2,0,0.2-0.1
		c0,0,0-0.1,0.2-0.1v-0.5h-0.2h-0.3H242.8z M242.9,111.1h-0.2v0.3c0,0.1,0.1,0.2,0.3,0.2s0.3-0.1,0.3-0.2v-0.3H243H242.9z
		 M242.9,93.5v0.2l0.2,0.2h0.2v-0.2v-0.2l-0.2-0.2L242.9,93.5z M244,100l0.2,0.2v0.2h0.3h0.3v-0.2v-0.3c0-0.2-0.1-0.3-0.3-0.3
		C244.1,99.5,244,99.7,244,100z M244,102.2v0.5l0.2,0.2l0.3,0.2c0.1,0,0.2,0,0.2-0.1s0-0.1,0.2-0.1v-0.2v-0.2v-0.3
		c0-0.1-0.1-0.2-0.2-0.2h-0.5L244,102.2z M244,104.9v0.2c0,0.1,0.1,0.2,0.3,0.5h0.3l0.2-0.3v-0.5l-0.2-0.3h-0.3
		C244.1,104.7,244,104.8,244,104.9z M244,107.5v0.2c0,0.1,0.1,0.2,0.3,0.5h0.3l0.2-0.3v-0.5l-0.2-0.3h-0.3
		C244.1,107.3,244,107.4,244,107.5z M244.1,109.8l-0.2,0.3v0.2l0.3,0.3h0.3l0.2-0.3v-0.2v-0.3h-0.3h-0.2H244.1z M244.1,97.3v0.3h0.2
		h0.3h0.2v-0.3l-0.2-0.2h-0.3L244.1,97.3z M244.3,94.8h0.2v-0.2h-0.2V94.8z M245.2,101.2v0.2c0,0.2,0.1,0.3,0.3,0.3h0.3
		c0-0.1,0-0.2,0.2-0.2c0.1,0,0.2-0.1,0.2-0.2v-0.2L246,101v-0.2h-0.3c-0.1,0-0.2,0-0.2,0.1c0,0-0.1,0.1-0.2,0.1L245.2,101.2z
		 M245.3,103.4l-0.2,0.2v0.5h0.2c0.1,0,0.2,0,0.2,0.1c0,0,0,0.1,0.2,0.1h0.2c0.1-0.1,0.2-0.2,0.3-0.2v-0.3v-0.2l-0.2-0.2l-0.3-0.2
		c-0.1,0-0.2,0-0.2,0.1S245.4,103.4,245.3,103.4z M245.2,106.3c0,0.1,0.1,0.2,0.3,0.5h0.3l0.3-0.3v-0.3l-0.3-0.3h-0.3
		C245.3,106,245.2,106.2,245.2,106.3z M245.3,108.6l-0.2,0.2v0.3c0.1,0.1,0.2,0.2,0.3,0.2h0.3l0.3-0.2v-0.3l-0.2-0.2l-0.3-0.2
		C245.4,108.4,245.3,108.4,245.3,108.6C245.5,108.5,245.4,108.6,245.3,108.6z M245.3,98.6v0.3h0.2h0.3h0.2v-0.3l-0.2-0.2h-0.3
		L245.3,98.6z M245.3,111.3v0.2l0.2,0.2h0.2l0.3-0.2v-0.3h-0.2h-0.3L245.3,111.3z M246.6,102.4v0.3c0.1,0.1,0.2,0.2,0.3,0.2h0.3
		l0.2-0.2v-0.3l-0.2-0.3h-0.3L246.6,102.4z M246.6,104.9v0.2c0,0.1,0.1,0.2,0.3,0.5h0.3l0.2-0.3V105c0-0.1,0-0.2-0.1-0.2
		c-0.1-0.1-0.1-0.1-0.1-0.2h-0.3C246.7,104.7,246.6,104.8,246.6,104.9z M246.6,107.5v0.2l0.2,0.3l0.3,0.2l0.2-0.2
		c0.1-0.1,0.2-0.2,0.2-0.3v-0.3l-0.2-0.3H247C246.7,107.3,246.6,107.4,246.6,107.5z M246.7,99.7v0.3c0,0.1,0,0.2,0.1,0.2
		c0,0,0.1,0,0.1,0.2h0.2l0.2-0.2v-0.5H247H246.7z M246.7,110.4l0.2,0.2h0.3v-0.2l0.2-0.3l-0.2-0.2v-0.2H247l-0.3,0.2V110.4z
		 M247.8,104h0.2l0.3,0.2c0.1,0,0.2,0,0.2-0.1s0-0.1,0.2-0.1h0.2v-0.5c-0.1-0.1-0.2-0.2-0.3-0.2h-0.3l-0.3,0.2v0.5H247.8z
		 M247.8,106.3c0,0.1,0.1,0.2,0.3,0.5h0.3l0.3-0.3v-0.3l-0.3-0.3h-0.3C247.9,106,247.8,106.2,247.8,106.3z M247.9,108.6l-0.2,0.2
		v0.3l0.3,0.2h0.3c0.1,0,0.2,0,0.2-0.1s0-0.1,0.2-0.1v-0.3c-0.1-0.1-0.2-0.2-0.2-0.2c-0.1,0-0.1-0.1-0.2-0.2c-0.1,0-0.2,0-0.2,0.1
		C248.1,108.5,248,108.6,247.9,108.6z M247.9,101.2v0.3l0.2,0.2h0.3c0.1-0.1,0.2-0.2,0.2-0.3v-0.2c0-0.2-0.1-0.3-0.3-0.3h-0.2
		L247.9,101.2z M248.1,111.1v0.3l0.2,0.2h0.2v-0.2v-0.3h-0.2H248.1z M249.1,102.5l0.2,0.3h0.3l0.2-0.2c0.1,0,0.2-0.1,0.2-0.3
		l-0.3-0.3h-0.2C249.2,102.3,249.1,102.4,249.1,102.5z M249.3,104.6c-0.1,0-0.2,0.1-0.2,0.3v0.2v0.2l0.3,0.3h0.2
		c0.2-0.2,0.3-0.4,0.3-0.5v-0.2v-0.2l-0.2-0.2l-0.2-0.2c-0.1,0-0.2,0-0.2,0.1C249.4,104.6,249.4,104.6,249.3,104.6z M249.1,107.4
		v0.3l0.2,0.3l0.3,0.2c0-0.1,0-0.2,0.2-0.2l0.2-0.2v-0.3v-0.2l-0.3-0.3h-0.2L249.1,107.4z M249.3,110.2l0.2,0.2l0.2,0.2
		c0.1-0.1,0.2-0.2,0.2-0.3V110l-0.2-0.2l-0.3,0.2L249.3,110.2L249.3,110.2z M249.4,99.8v0.2l0.2,0.2V100v-0.2H249.4z M250.3,103.7
		v0.3h0.3h0.3h0.3v-0.3c0-0.1,0-0.2-0.1-0.2s-0.1-0.1-0.1-0.2h-0.3h-0.2L250.3,103.7z M250.3,106.3c0,0.1,0.1,0.2,0.3,0.5h0.3
		l0.3-0.3v-0.3l-0.3-0.3h-0.3C250.4,106,250.3,106.2,250.3,106.3z M250.5,108.6l-0.2,0.2v0.2c0.2,0.3,0.4,0.4,0.5,0.3l0.3-0.2
		l0.2-0.2v-0.2c-0.1-0.1-0.2-0.2-0.3-0.2h-0.3L250.5,108.6L250.5,108.6z M250.5,101.3l0.2,0.2h0.3l0.2-0.2v-0.2
		c-0.1-0.1-0.2-0.2-0.3-0.2l-0.3,0.2L250.5,101.3L250.5,101.3z M250.6,111.3v0.2h0.3v-0.2v-0.2h-0.2L250.6,111.3z M251.7,104.8v0.5
		l0.2,0.2l0.2,0.2c0.1,0,0.2,0,0.2-0.1s0-0.1,0.2-0.1l0.2-0.2V105v-0.2c-0.1-0.1-0.2-0.2-0.3-0.2h-0.3L251.7,104.8z M251.7,107.4
		v0.5l0.2,0.2h0.3l0.3-0.2v-0.5l-0.2-0.2L252,107l-0.2,0.2L251.7,107.4z M251.8,102.2v0.2v0.2v0.3h0.3c0.1,0,0.2-0.1,0.2-0.3v-0.2
		l-0.3-0.3L251.8,102.2z M251.8,109.9v0.3c0,0.1,0,0.2,0.2,0.2s0.3-0.1,0.3-0.2v-0.3c-0.1-0.1-0.2-0.2-0.3-0.2h-0.2V109.9z
		 M252.9,103.7v0.2c0,0.1,0.1,0.2,0.3,0.2h0.3c0.2,0,0.3-0.1,0.3-0.2v-0.2c0-0.2-0.2-0.3-0.5-0.3c-0.1,0-0.2,0-0.2,0.1
		c0,0-0.1,0.1-0.2,0.1L252.9,103.7z M253,106l-0.2,0.2v0.2l0.2,0.3l0.3,0.2c0.1,0,0.2,0,0.2-0.1s0-0.1,0.2-0.1l0.2-0.2v-0.2v-0.2
		l-0.2-0.2l-0.3-0.2c-0.1,0-0.2,0-0.2,0.1C253.2,106,253.1,106,253,106z M252.9,108.7l0.2,0.3l0.2,0.2h0.3l0.2-0.2l0.2-0.3l-0.2-0.2
		h-0.3c-0.1,0-0.2,0-0.2,0.1c0,0-0.1,0.1-0.2,0.1H252.9z M253.2,101.3l0.2,0.2h0.2v-0.2v-0.2h-0.3L253.2,101.3L253.2,101.3z
		 M254.2,102.4v0.3l0.2,0.2h0.3l0.2-0.2v-0.3l-0.2-0.2h-0.3L254.2,102.4z M254.2,105.2v0.2l0.3,0.2c0.1,0,0.2,0,0.2-0.1
		s0-0.1,0.2-0.1l0.2-0.2v-0.5c-0.1-0.1-0.2-0.2-0.3-0.2h-0.3l-0.2,0.2L254.2,105.2L254.2,105.2z M254.2,107.8v0.2h0.3h0.3
		c0-0.1,0-0.2,0.1-0.2c0,0,0.1-0.1,0.1-0.2v-0.3c-0.1-0.1-0.2-0.2-0.3-0.2h-0.3l-0.2,0.2L254.2,107.8L254.2,107.8z M254.4,109.9v0.3
		l0.2,0.2h0.2v-0.2V110l-0.2-0.2L254.4,109.9L254.4,109.9z M255.5,103.9l0.2,0.2h0.2h0.2h0.3c0.1,0,0.2-0.1,0.2-0.3l-0.3-0.3H256
		C255.6,103.6,255.5,103.8,255.5,103.9z M255.6,106l-0.2,0.2v0.3c0.1,0.1,0.2,0.2,0.3,0.2h0.3l0.3-0.2v-0.3
		c-0.1-0.1-0.2-0.2-0.2-0.2c-0.1,0-0.1-0.1-0.2-0.2C255.8,105.8,255.7,105.8,255.6,106C255.8,106,255.7,106,255.6,106z M255.6,108.7
		v0.3h0.2h0.3h0.2v-0.3c-0.1,0-0.2-0.1-0.2-0.2h-0.3L255.6,108.7z M256.7,105.2c0.1,0.1,0.2,0.2,0.3,0.2h0.3l0.3-0.2v-0.5l-0.3-0.2
		H257l-0.3,0.2V105.2z M256.7,107.5l0.2,0.3l0.2,0.2h0.3l0.2-0.2l0.2-0.3l-0.2-0.3h-0.3C256.8,107.2,256.7,107.3,256.7,107.5z
		 M256.8,102.5l0.2,0.2l0.2,0.2c0.1,0,0.2,0,0.2-0.1s0-0.1,0.2-0.1v-0.3c0-0.1-0.1-0.2-0.3-0.2l-0.3,0.2v0.1H256.8z M257.1,110.2
		l0.2-0.2h-0.2V110.2z M258,106.3c0,0.1,0,0.2,0.2,0.3c0.1,0.1,0.2,0.1,0.3,0l0.3-0.2l0.2-0.2c0-0.2-0.1-0.3-0.3-0.3h-0.3
		C258.1,106,258,106.1,258,106.3z M258.2,103.6v0.5c0.1,0.1,0.2,0.1,0.3,0h0.3c0.1,0,0.2-0.1,0.2-0.3l-0.3-0.3h-0.3L258.2,103.6z
		 M258.3,47.6l0.2,0.2h0.2l0.2-0.2v-0.2l-0.2-0.2h-0.2l-0.2,0.2V47.6z M258.3,50v0.2l0.2,0.2h0.2v-0.2V50v-0.2h-0.2L258.3,50z
		 M258.3,108.7v0.2l0.2,0.2l0.2-0.2v-0.2h-0.2H258.3z M259.4,104.6c0,0.1,0,0.2-0.1,0.2s-0.1,0-0.1,0.2v0.2c0,0.1,0,0.2,0.1,0.2
		c0,0,0.1,0,0.1,0.2h0.3h0.3c0-0.1,0-0.2,0.1-0.2c0,0,0.1-0.1,0.1-0.2V105c0-0.1,0-0.2-0.1-0.2s-0.1-0.1-0.1-0.2h-0.3H259.4z
		 M259.4,46.3v0.2l0.2,0.2h0.3l0.2-0.2v-0.2c0-0.1-0.1-0.2-0.2-0.2h-0.3L259.4,46.3z M259.4,48.7v0.5c0.1,0.1,0.2,0.2,0.3,0.2h0.2
		l0.2-0.2l0.2-0.3l-0.3-0.3h-0.3L259.4,48.7z M259.4,102.5l0.2,0.2h0.3h0.2v-0.3c-0.1-0.1-0.2-0.2-0.3-0.2l-0.3,0.2v0.1H259.4z
		 M259.5,107.4h-0.2v0.3c0,0.1,0.1,0.2,0.3,0.2c0.2,0,0.3-0.1,0.3-0.2v-0.3c-0.1,0-0.2,0-0.2-0.1s-0.1-0.1-0.2-0.1L259.5,107.4z
		 M259.5,43.7v0.2l0.2,0.2h0.2l0.2-0.2v-0.2l-0.2-0.2h-0.2L259.5,43.7z M259.5,51.2v0.5h0.2h0.2l0.2-0.2v-0.3h-0.2h-0.2H259.5z
		 M260.7,47.3l-0.2,0.3c0,0.2,0.2,0.3,0.5,0.3h0.2l0.2-0.2v-0.3v-0.2H261h-0.3V47.3z M260.6,50l0.2,0.3c0,0.1,0.1,0.2,0.3,0.2h0.3
		v-0.3v-0.3l-0.2-0.2H261C260.7,49.7,260.6,49.8,260.6,50z M260.7,45.1l0.2,0.3h0.3l0.2-0.2v-0.3l-0.2-0.2h-0.3l-0.2,0.2V45.1z
		 M260.7,103.7v0.3h0.3h0.3v-0.3c0-0.1-0.1-0.2-0.2-0.3h-0.3C260.8,103.5,260.7,103.6,260.7,103.7z M260.7,106.3l0.2,0.3h0.2
		c0.1,0,0.2-0.1,0.2-0.2l0.2-0.2l-0.2-0.3H261C260.8,106.1,260.7,106.2,260.7,106.3z M260.9,42.5v0.2h0.2l0.3-0.2
		c-0.1-0.1-0.2-0.2-0.3-0.2C260.9,42.3,260.9,42.4,260.9,42.5z M260.9,52.4v0.3l0.2,0.2l0.3-0.2v-0.3h-0.2H260.9z M261,101.3h0.2
		v-0.2H261V101.3z M261.8,46.4l0.2,0.2l0.2,0.2h0.3l0.3-0.3v-0.2c0-0.1,0-0.2-0.1-0.2s-0.1,0-0.1-0.2h-0.3
		C261.9,46,261.8,46.1,261.8,46.4z M261.8,49.1c0.1,0.1,0.2,0.2,0.3,0.2h0.3l0.3-0.2v-0.5c-0.1-0.1-0.2-0.2-0.3-0.2h-0.3l-0.3,0.2
		V49.1z M261.9,51.1l-0.2,0.3l0.2,0.3l0.2,0.2h0.3l0.3-0.3v-0.2l-0.3-0.3h-0.3H261.9z M262.1,43.5l-0.2,0.2v0.2l0.2,0.3h0.3
		c0.1-0.1,0.2-0.2,0.2-0.3v-0.2l-0.3-0.3L262.1,43.5z M261.9,102.4v0.3h0.2l0.2,0.2c0.1,0,0.2,0,0.2-0.1s0-0.1,0.2-0.1v-0.5h-0.2
		h-0.2C262,102.2,261.9,102.3,261.9,102.4z M261.9,104.8v0.5l0.2,0.2h0.3c0.1-0.1,0.2-0.2,0.2-0.3v-0.3l-0.2-0.2h-0.3L261.9,104.8z
		 M262.1,41.1v0.2l0.2,0.2h0.2v-0.2v-0.2l-0.2-0.2L262.1,41.1z M262.1,54l0.2,0.2h0.2V54l-0.2-0.2L262.1,54z M262.1,107.5v0.2h0.2
		h0.2v-0.2l-0.2-0.2L262.1,107.5z M263.1,47.5v0.3c0.1,0.1,0.2,0.2,0.3,0.2h0.3c0.1-0.1,0.2-0.2,0.2-0.3v-0.2l-0.2-0.2h-0.3
		C263.3,47.3,263.2,47.4,263.1,47.5z M263.1,50.3c0.1,0.1,0.2,0.2,0.3,0.2h0.3l0.2-0.2v-0.5l-0.2-0.2h-0.3l-0.3,0.2V50.3z
		 M263.3,44.9v0.3l0.2,0.2h0.3v-0.3v-0.2v-0.2h-0.3L263.3,44.9z M263.3,52.4v0.5h0.2h0.3v-0.3v-0.3h-0.3L263.3,52.4z M263.3,103.7
		v0.2l0.2,0.2h0.3v-0.2v-0.2v-0.3h-0.3L263.3,103.7z M263.5,42.6h0.2h0.2v-0.2v-0.2h-0.3v0.4H263.5z M263.5,101.3l0.2,0.2h0.2v-0.2
		v-0.2h-0.3v0.2H263.5z M263.5,106.2v0.2v0.2h0.3v-0.2L263.5,106.2L263.5,106.2z M264.4,48.8v0.3c0.1,0.1,0.2,0.2,0.3,0.2h0.3
		l0.3-0.3v-0.2c0-0.1,0-0.2-0.1-0.2s-0.1,0-0.1-0.2h-0.3h-0.2L264.4,48.8z M264.5,51.1l-0.2,0.3v0.2l0.3,0.3h0.3
		c0.2-0.2,0.3-0.4,0.3-0.5l-0.2-0.2V51h-0.3h-0.2V51.1z M264.5,46.3v0.3l0.2,0.2h0.3c0.1-0.1,0.2-0.2,0.2-0.3v-0.2
		c-0.1-0.1-0.2-0.2-0.2-0.3h-0.3L264.5,46.3z M264.5,102.4v0.2l0.2,0.2h0.3h0.2v-0.5H265h-0.3L264.5,102.4z M264.5,104.9v0.2
		l0.2,0.2h0.2l0.3-0.2v-0.2l-0.2-0.2h-0.3L264.5,104.9z M264.7,43.7V44h0.2l0.2-0.2v-0.2v-0.2h-0.3v0.3H264.7z M264.7,54v0.2h0.2
		h0.2V54l-0.2-0.2L264.7,54z M265.9,49.7l-0.2,0.3v0.2c0,0.1,0,0.2,0.2,0.3c0.1,0.1,0.2,0.1,0.2,0l0.3-0.2c0.1,0,0.2-0.1,0.2-0.3
		l-0.2-0.2v-0.2H266h-0.1V49.7z M265.9,47.5v0.2l0.2,0.3h0.2c0.1-0.1,0.2-0.2,0.2-0.3v-0.2c-0.1-0.1-0.2-0.2-0.3-0.2L265.9,47.5z
		 M265.9,52.6v0.2l0.2,0.2l0.3-0.2v-0.3h-0.2H266L265.9,52.6z M265.9,103.7v0.2l0.2,0.2l0.3-0.2v-0.2l-0.2-0.2H266L265.9,103.7z
		 M266,44.9v0.2v0.2h0.2v-0.2v-0.2H266z M266,101.2v0.2v0.2h0.2v-0.3V101H266V101.2z M267.1,48.8V49l0.2,0.3h0.3
		c0.1-0.1,0.2-0.2,0.2-0.3v-0.2c-0.1,0-0.2,0-0.2-0.2l-0.2-0.2h-0.2L267.1,48.8z M267.1,51.4v0.2l0.2,0.2l0.2,0.2l0.3-0.3v-0.2
		c-0.1-0.1-0.2-0.2-0.2-0.3h-0.3L267.1,51.4z M267.2,102.2l-0.2,0.3l0.2,0.2h0.2l0.3-0.2v-0.2c-0.1-0.1-0.2-0.2-0.3-0.2L267.2,102.2
		L267.2,102.2z M267.2,46.3v0.2l0.2,0.2h0.2v-0.2v-0.2l-0.2-0.2L267.2,46.3z M268.4,47.5v0.2v0.2h0.3v-0.2v-0.2l-0.2-0.2L268.4,47.5
		z M268.4,49.9v0.5l0.2,0.2c0.1,0,0.2,0,0.2-0.1c0,0,0-0.1,0.2-0.1V50l-0.3-0.3L268.4,49.9z M268.4,52.6v0.2h0.3v-0.2v-0.2h-0.2
		L268.4,52.6z M268.4,101.2v0.2l0.2,0.2h0.2v-0.2v-0.2V101h-0.2L268.4,101.2z M269.8,48.8V49v0.2h0.3V49v-0.2l-0.2-0.2L269.8,48.8z
		 M269.8,51.2v0.3v0.2h0.3v-0.2v-0.2l-0.2-0.2h-0.1V51.2z M269.8,99.8v0.2h0.2h0.2v-0.2H270H269.8z M271,50.2l0.2,0.2l0.2-0.2V50
		l-0.2-0.2L271,50V50.2z"/>
	<g>
		<path d="M118.6,98.5c-1.3,1.3-3,2.8-5.1,4.6c-2.1,1.7-4.3,3.3-6.5,4.6c-2.3,1.4-4.5,2.4-6.8,3.1c-2.2,0.7-4.2,0.8-5.8,0.1
			c-1-0.4-1.7-1.1-2.1-2s-0.5-2-0.3-3.1c0.1-1.2,0.6-2.5,1.2-3.9c0.7-1.4,1.4-2.8,2.2-4.1c0.8-1.3,1.6-2.6,2.5-3.7
			c0.8-1.2,1.6-2.1,2.1-2.8c0.8-0.9,1.4-1.6,1.8-2.3c0.4-0.7,0.9-1.2,1.5-1.6s1.4-0.6,2.4-0.7s1.8-0.1,2.3,0.2
			c0.5,0.4,0.6,0.7,0.3,1c-0.3,0.3-0.5,0.6-0.7,0.7c-0.6,0.7-1.4,1.5-2.6,2.6c-1.1,1.1-2.3,2.4-3.6,3.8c-1.2,1.4-2.4,3-3.4,4.8
			s-1.7,3.6-2,5.6c0,0.8,0.5,1.3,1.5,1.5s2.4,0.1,4.1-0.3c0.4-0.1,1.4-0.4,2.8-1s3.1-1.4,5-2.5s3.9-2.3,6.1-3.9
			c2.2-1.5,4.1-3.2,5.9-5.2c0.6-0.8,1-1,1.1-0.5c0.1,0.4-0.1,1.1-0.8,1.9c-0.4,0.5-1,1-1.5,1.5C119.8,97.3,119.2,97.9,118.6,98.5z
			 M108.2,84.6c-0.6-1.4-0.5-2.4,0.2-3.1s1.6-1.1,2.5-1.1c1,0,1.8,0.2,2.4,0.7c0.7,0.5,0.6,1.3-0.2,2.4c-0.1,0.2-0.5,0.4-1,0.6
			s-1.1,0.3-1.6,0.4c-0.6,0.1-1.1,0.2-1.5,0.2C108.4,84.8,108.2,84.8,108.2,84.6z"/>
		<path d="M150.3,111.3c-1.2-0.2-1.9-0.8-2.3-1.7c-0.3-0.9-0.4-2-0.3-3.2c0.1-1.2,0.4-2.5,0.8-3.9c0.4-1.4,0.8-2.6,1.2-3.8
			c0.4-1.2,0.6-2.2,0.7-3c0.1-0.8-0.2-1.3-0.8-1.5c-0.7-0.1-1.5,0.1-2.4,0.8c-0.9,0.7-1.8,1.5-2.8,2.5s-2,2.1-3,3.3
			c-1,1.2-2,2.2-3,3s-1.9,1.4-2.9,1.7c-0.9,0.3-1.7,0-2.5-0.8c-0.5-1-0.7-2.1-0.4-3.4c0.2-1.3,0.5-2.5,0.9-3.6s0.8-2.1,1.2-3
			c0.4-0.8,0.6-1.3,0.5-1.3c-0.9,0.1-1.9,0.7-3,1.7s-2.2,2.2-3.4,3.6s-2.3,2.8-3.5,4.3c-1.1,1.5-2.1,2.7-3,3.7
			c-0.2,0.2-0.7,0.7-1.3,1.5c-0.7,0.8-1.4,1.5-2.1,2.2s-1.5,1-2.3,1.1c-0.7,0.1-1.3-0.5-1.8-1.8c-0.4-1.5-0.3-3.4,0.4-5.6
			c0.7-2.2,1.6-4.3,2.6-6.3s2-3.8,3-5.2c1-1.5,1.6-2.3,1.7-2.4c0.4-0.7,1-1.1,1.8-1.3c0.8-0.2,1.5-0.1,2,0.2
			c0.5,0.3,0.6,0.9,0.5,1.6c-0.1,0.8-1,1.8-2.6,3c-0.7,0.8-1.4,1.8-2.1,3s-1.2,2.4-1.6,3.6s-0.7,2.2-0.9,3c-0.1,0.8-0.1,1.3,0.2,1.3
			c0.5,0,1.2-0.5,2.1-1.5s2-2.2,3.2-3.6s2.6-2.9,4-4.5c1.4-1.6,2.9-3,4.3-4.2c1.5-1.2,2.6-1.9,3.5-2.2c0.9-0.3,1.7-0.4,2.6-0.2
			c0.8,0.1,1.2,0.7,0.9,1.8c-0.1,0.4-0.1,0.7-0.2,0.9c-0.1,0.2-0.2,0.5-0.4,0.8s-0.5,0.8-0.9,1.4s-0.9,1.5-1.7,2.6
			c-0.4,0.6-0.7,1.4-0.9,2.4c-0.3,1-0.3,1.9-0.3,2.6c0.1,0.9,0.5,1.1,1,0.6c0.6-0.5,1-1,1.5-1.5c1-1,2.1-2.1,3.4-3.4
			c1.3-1.3,2.6-2.5,4-3.7c1.3-1.2,2.6-2.1,3.7-2.9c1.2-0.8,2.1-1.2,2.6-1.2c1.3,0,2.1,0.5,2.3,1.6s0.2,2.3-0.2,3.9
			c-0.3,1.5-0.8,3.1-1.4,4.8c-0.6,1.7-1.2,3.2-1.6,4.5c-0.1,0.9,0.4,1.2,1.5,1s2.3-0.7,3.9-1.5c1.5-0.8,3-1.8,4.6-2.9
			s2.9-2.1,3.9-2.9c0.1-0.1,0.1-0.1,0.2-0.2c0.1,0,0.1-0.1,0.2-0.2c0.8-0.7,1.5-1.3,2.2-1.8s1.2-1,1.5-1.5s0.6-0.8,0.9-0.8
			c0.2,0,0.3,0.2,0.3,0.6s-0.3,0.9-0.8,1.5c-0.6,0.7-1.2,1.3-2,2c-1.2,1.2-2.6,2.7-4.3,4.3c-1.7,1.6-3.5,3.2-5.2,4.7
			c-1.8,1.5-3.4,2.7-4.8,3.7C152.2,111,151.1,111.4,150.3,111.3z"/>
		<path d="M158.2,107.3c-0.2-1.6,0.2-3.2,1.2-4.8c1-1.6,2.4-3.2,4-4.7c1.7-1.5,3.5-2.9,5.4-4.1s3.8-2.2,5.5-2.9
			c3.2-1.3,5.9-2.2,8.3-2.7c2.4-0.5,4.3-0.7,5.7-0.7c1.8,0,2.9,0.3,3.4,0.9s0,1.8-1.5,3.6c-1.3,1.5-3.2,2.8-5.7,4s-5,2.1-7.5,2.8
			c-2.5,0.7-4.8,1.1-6.9,1.2c-2.1,0.1-3.3-0.2-3.9-0.8c2.6,0,5.1-0.3,7.3-0.8s4.1-1.2,5.8-1.9c1.7-0.8,3.1-1.6,4.2-2.4
			c1.1-0.8,2-1.5,2.6-2.1s0.8-1,0.5-1.1c-0.2-0.1-0.7-0.2-1.4-0.2c-0.6,0-1.4,0.1-2.4,0.2s-2.1,0.4-3.4,0.7
			c-1.2,0.3-2.5,0.7-3.9,1.2s-2.6,1-3.8,1.7c-1.5,0.9-2.9,1.9-4.1,3c-1.2,1.1-2.2,2.3-2.9,3.4s-1.1,2.1-1.2,3
			c-0.1,0.9,0.3,1.6,1.1,2.1c1.9,0.8,4.1,1.1,6.7,0.8c2.5-0.3,5.2-0.8,7.9-1.7c0.7-0.2,1.2-0.4,1.5-0.5c0.4-0.1,1.1-0.4,2.2-0.8
			c1.2-0.5,2.5-1.1,4.1-1.8c1.5-0.7,3.1-1.4,4.6-2.3c1.5-0.8,2.9-1.7,4.2-2.6c1.3-1,2.4-1.9,3.2-3c0.6-0.8,1-1,1.2-0.5
			c0.2,0.4-0.1,1.1-0.8,1.9c-0.5,0.6-1.1,1.2-1.9,1.9c-0.7,0.7-1.4,1.3-2,1.8c-0.2,0.2-0.9,0.7-1.9,1.4c-1.1,0.7-2.4,1.6-3.9,2.5
			s-3.2,1.8-5.1,2.8c-1.8,0.9-3.6,1.7-5.4,2.3c-2.3,1-4.7,1.8-6.9,2.5c-2.3,0.7-4.4,1.1-6.3,1.2c-1.9,0.1-3.6-0.2-5-0.8
			C159.7,110.1,158.8,109,158.2,107.3z"/>
	</g>
	<g>
		<path d="M314.1,87.9c0.3,0.4,0.2,0.8-0.2,1.4c-0.4,0.6-1.1,1.6-2.1,3.2c0.1-0.1,0.2-0.3,0.4-0.5c2.3-2.3,4.5-4.2,6.6-5.5
			s3.8-1.4,5.2-0.3c0.5,0.4,0.8,1,0.9,1.6s0.1,1.2-0.1,1.7s-0.5,0.9-0.8,1.2c-0.4,0.3-0.8,0.4-1.2,0.2c-0.4-0.1-0.6-0.4-0.6-0.7
			c0.1-0.3,0-0.6-0.3-0.8c-0.7-0.6-1.7-0.5-3.2,0.2s-3.1,2-4.8,3.9c-1.2,1.3-2.4,2.7-3.5,4.1s-2,2.8-2.9,4.1
			c-0.9,1.3-1.7,2.6-2.4,3.7c-0.7,1.2-1.4,2.1-1.9,2.9c-0.7,1-1.5,1.8-2.3,2.2c-0.8,0.4-1.4,0.6-1.8,0.6s-0.7-0.3-0.7-0.9
			s0.3-1.4,1-2.5c0.2-0.4,0.5-0.8,0.8-1.3s0.7-1.1,1-1.8c1.9-3,3.5-5.9,4.8-8.6s2-4.8,2.1-6.2c0-1,0.3-1.6,0.8-2s1.2-0.6,1.8-0.7
			c0.7,0,1.3,0,1.9,0.2C313.4,87.5,313.9,87.7,314.1,87.9z"/>
		<path d="M350.2,87.7c-0.1-0.6-0.6-0.9-1.7-1s-2.5,0.1-4.2,0.4c-1.8,0.4-3.8,1.2-5.9,2.2s-4.1,2.2-6.1,3.6c-2,1.3-3.4,2.5-4.4,3.7
			c-1,1.1-1.9,2.5-3,4c-0.8,1.2-1.3,2.4-1.4,3.6c-0.1,1.1,0.3,2.1,1.2,2.9c0.8,0.7,2.3,0.4,4.5-0.9c2.2-1.2,4.8-2.8,7.9-4.7
			c1.3-0.8,2.6-1.7,4-2.6c1.3-0.9,2.6-1.7,3.8-2.4c1.2-0.7,2.3-1.2,3.2-1.6c1-0.4,1.7-0.5,2.1-0.3c1,0.4,1.4,1.2,1.2,2.1
			c-0.3,1-0.7,2-1.4,3.1c-0.7,1.1-1.4,2-2,2.9c-0.7,0.8-0.9,1.3-0.8,1.4c1.2,0.4,2.8,0.3,4.7-0.4c2-0.7,4-1.6,6-2.8
			c2-1.2,3.9-2.4,5.6-3.7c1.7-1.3,2.9-2.4,3.5-3.2c0.6-0.8,1-1,1.1-0.5c0.1,0.4-0.1,1.1-0.9,1.9c-0.2,0.3-0.4,0.6-0.7,0.8
			c-0.2,0.3-0.4,0.5-0.7,0.7c-0.7,0.8-1.8,1.8-3.2,3.1c-1.4,1.2-2.9,2.5-4.6,3.7s-3.4,2.3-5.2,3.4c-1.8,1.1-3.4,1.8-4.9,2.2
			c-1.5,0.4-2.6,0.4-3.5,0.1c-0.9-0.4-1.3-1.4-1.2-3c0.1-1,0.7-2.2,1.5-3.6c0.4-0.7,0.7-1.2,1-1.6s0.6-0.8,0.7-1.1
			c0.2-0.3,0.4-0.6,0.6-0.9c-0.3-0.1-1.3,0.3-3,1.3s-3.6,2.2-5.8,3.6c-1.8,1.1-3.5,2.2-5.3,3.3c-1.8,1.1-3.5,2-5.1,2.8
			c-1.6,0.7-3.1,1.2-4.3,1.5c-1.3,0.3-2.3,0.1-3-0.6c-1.5-1.2-2.1-2.8-2-4.5c0.1-1.8,0.8-3.6,2-5.5c1.1-1.7,2.6-3.4,4.5-5.2
			c1.9-1.8,3.9-3.4,6.1-4.9s4.5-2.8,6.8-3.9s4.5-1.9,6.5-2.4c2.5-0.6,4.6-0.6,6.4-0.2c1.8,0.5,2.9,1.7,3.5,3.7
			c0.1,1.3-0.1,2.2-0.6,2.7c-0.6,0.5-1.6,0.4-3.2-0.2c-0.4-0.2-0.5-0.6-0.3-1.2C350.2,88.7,350.2,88.1,350.2,87.7z"/>
		<path d="M362.2,87.1c1.5-0.7,2.7-1.1,3.7-1.2s1.9-0.1,2.5,0.1c0.7,0.2,1.1,0.6,1.4,1c0.3,0.5,0.5,1,0.6,1.7c0.1,1-0.1,2-0.5,3.1
			s-0.9,2.3-1.4,3.5s-1.1,2.4-1.7,3.6s-1.1,2.2-1.4,3.1c-0.4,0.9-0.5,1.7-0.5,2.3c0,0.6,0.4,0.9,1,0.9s1.7-0.6,3.1-1.6
			c1.4-1.1,3.1-2.4,5-4s3.9-3.3,6-5.1c2.2-1.8,4.3-3.4,6.4-4.9s4.1-2.6,6.1-3.5c2-0.8,3.7-1.1,5.2-0.8c0.1,0.1,0.2,0.2,0.1,0.4
			c-0.1,0.2-0.2,0.5-0.5,0.8s-0.5,0.6-0.8,0.8c-0.3,0.2-0.6,0.4-0.9,0.4c-0.7-0.1-1.8,0.3-3.1,1c-1.4,0.7-2.9,1.7-4.5,3
			s-3.4,2.7-5.2,4.3c-1.8,1.6-3.6,3.2-5.3,4.7c-1.7,1.5-3.3,2.9-4.8,4.2c-1.5,1.3-2.7,2.3-3.6,3c-2.1,1.6-3.7,2.6-4.7,2.9
			s-2,0.4-2.9,0.4c-0.6,0-1-0.3-1.3-0.9s-0.4-1.4-0.4-2.4s0.1-2,0.4-3.2s0.7-2.3,1.3-3.4c0.5-1.1,1.1-2.2,1.7-3.3
			c0.6-1.1,1.2-2.1,1.6-3.1c0.5-1,0.9-1.9,1.2-2.8c0.3-0.8,0.4-1.6,0.4-2.1c-0.1-1.2-0.8-1.5-2-1.1c-0.2,0.1-0.5,0-0.9-0.2
			s-0.7-0.4-0.9-0.6c-0.3-0.2-0.5-0.4-0.6-0.7C361.9,87.4,361.9,87.2,362.2,87.1z"/>
		<path d="M385.6,107.3c-0.2-1.6,0.2-3.2,1.2-4.8c1-1.6,2.4-3.2,4-4.7c1.7-1.5,3.5-2.9,5.4-4.1c2-1.2,3.8-2.2,5.5-2.9
			c3.2-1.3,5.9-2.2,8.3-2.7s4.3-0.7,5.7-0.7c1.8,0,2.9,0.3,3.4,0.9s0,1.8-1.5,3.6c-1.3,1.5-3.2,2.8-5.7,4s-5,2.1-7.5,2.8
			c-2.5,0.7-4.8,1.1-6.9,1.2s-3.3-0.2-3.8-0.8c2.6,0,5.1-0.3,7.3-0.8c2.2-0.5,4.1-1.2,5.8-1.9c1.7-0.8,3.1-1.6,4.2-2.4
			s2-1.5,2.6-2.1s0.8-1,0.6-1.1c-0.2-0.1-0.7-0.2-1.4-0.2c-0.6,0-1.4,0.1-2.4,0.2s-2.1,0.4-3.4,0.7c-1.2,0.3-2.5,0.7-3.9,1.2
			s-2.6,1-3.8,1.7c-1.5,0.9-2.9,1.9-4.1,3s-2.2,2.3-2.9,3.4c-0.7,1.1-1.1,2.1-1.2,3s0.3,1.6,1.1,2.1c1.9,0.8,4.1,1.1,6.7,0.8
			c2.5-0.3,5.2-0.8,7.9-1.7c0.7-0.2,1.2-0.4,1.5-0.5c0.4-0.1,1.1-0.4,2.2-0.8c1.2-0.5,2.5-1.1,4.1-1.8c1.5-0.7,3.1-1.4,4.6-2.3
			c1.5-0.8,2.9-1.7,4.2-2.6c1.3-1,2.4-1.9,3.2-3c0.6-0.8,1-1,1.2-0.5c0.2,0.4-0.1,1.1-0.8,1.9c-0.5,0.6-1.1,1.2-1.9,1.9
			c-0.7,0.7-1.4,1.3-2,1.8c-0.2,0.2-0.9,0.7-1.9,1.4c-1.1,0.7-2.4,1.6-3.9,2.5s-3.2,1.8-5.1,2.8c-1.8,0.9-3.6,1.7-5.4,2.3
			c-2.3,1-4.7,1.8-6.9,2.5c-2.3,0.7-4.4,1.1-6.3,1.2s-3.6-0.2-5-0.8C387.1,110.1,386.1,109,385.6,107.3z"/>
		<path d="M454.1,57.1c-1.5,1.8-3.1,3.6-4.8,5.4c-1.8,1.8-3.7,4-5.8,6.5s-4.3,5.6-6.7,9.2c-2.3,3.6-4.8,8-7.5,13.3
			c-1.8,3.6-2.9,6.5-3.5,8.7s-0.4,3.7,0.4,4.5c0.8,0.5,1.7,0.8,2.8,0.9c1,0.1,2.2,0,3.4-0.2c1.2-0.3,2.7-0.9,4.6-1.8s3.8-1.9,5.7-3
			c1.9-1.1,3.6-2.1,5.2-3.1c1.5-1,2.5-1.7,3-2.1l1.4-1.4c0.6-0.8,1-1,1.1-0.5c0.1,0.4-0.1,1.1-0.9,1.9c-0.8,0.9-1.8,1.9-2.9,2.9
			c-1.1,1.1-2.4,2.1-3.8,3.1c-1.7,1.4-3.5,2.8-5.5,4.1c-2,1.4-4,2.5-5.9,3.5c-2,1-3.9,1.7-5.7,2.2c-1.8,0.5-3.4,0.5-4.8,0.2
			c-1.7-0.5-2.7-1.5-3.1-3.1c-0.4-1.5-0.3-3.4,0.3-5.7c0.5-2.1,1.4-4.5,2.6-7c1.2-2.6,2.7-5.2,4.3-8c2.8-5.2,5.4-9.5,7.8-12.8
			s4.5-6,6.3-8.1s3.2-3.9,4.2-5.2c1-1.4,1.6-2.7,1.6-4.1c0.1-0.6,0.7-1.2,1.9-1.8c1.2-0.6,2.3-1,3.4-1.3c1.1-0.2,1.8-0.1,2.3,0.3
			C455.8,54.8,455.4,55.7,454.1,57.1z"/>
	</g>
</g>
</svg>
